<svg xmlns="http://www.w3.org/2000/svg" xmlns:xlink="http://www.w3.org/1999/xlink" width="500" zoomAndPan="magnify" viewBox="0 0 375 374.999991" height="500" preserveAspectRatio="xMidYMid meet" version="1.0"><defs><filter x="0%" y="0%" width="100%" height="100%" id="2d79c16687"><feColorMatrix values="0 0 0 0 1 0 0 0 0 1 0 0 0 0 1 0 0 0 1 0" color-interpolation-filters="sRGB"/></filter><g/><clipPath id="f43a5cf6cd"><path d="M 0.0390625 62 L 365.078125 62 L 365.078125 125.480469 L 0.0390625 125.480469 Z M 0.0390625 62 " clip-rule="nonzero"/></clipPath><mask id="70f2fd4aa6"><g filter="url(#2d79c16687)"><rect x="-87.5" width="540" fill="#000000" y="-197.499998" height="539.999987" fill-opacity="0.43"/></g></mask><clipPath id="8e3a0b2535"><path d="M 0.320312 1 L 364.96875 1 L 364.96875 63.480469 L 0.320312 63.480469 Z M 0.320312 1 " clip-rule="nonzero"/></clipPath><clipPath id="589bfb2408"><rect x="0" width="366" y="0" height="64"/></clipPath><clipPath id="e319565916"><rect x="0" width="366" y="0" height="126"/></clipPath></defs><rect x="-37.5" width="450" fill="#ffffff" y="-37.499999" height="449.999989" fill-opacity="1"/><rect x="-37.5" width="450" fill="#ffffff" y="-37.499999" height="449.999989" fill-opacity="1"/><g transform="matrix(1, 0, 0, 1, 5, 115)"><g clip-path="url(#e319565916)"><g clip-path="url(#f43a5cf6cd)"><g mask="url(#70f2fd4aa6)"><g transform="matrix(1, 0, 0, 1, 0, 62)"><g clip-path="url(#589bfb2408)"><g clip-path="url(#8e3a0b2535)"><path fill="#b0c89f" d="M 5.476562 3.5 C 7.867188 18.300781 24.976562 25.660156 56.800781 25.578125 C 76.867188 25.546875 97.121094 24.316406 117.5625 21.882812 L 117.640625 21.875 C 127.804688 21.007812 157.164062 16.765625 205.710938 9.152344 L 205.773438 9.144531 C 232.25 5.722656 253.832031 3.496094 270.515625 2.460938 L 270.457031 2.464844 C 295.167969 0.292969 320.027344 1.117188 345.035156 4.929688 L 345.050781 4.933594 C 355.117188 6.53125 361.078125 8.121094 362.933594 9.695312 C 363.933594 10.542969 364.339844 11.53125 364.160156 12.667969 L 364.160156 12.671875 C 364.027344 13.515625 363.566406 14.230469 362.78125 14.816406 C 362.257812 15.210938 361.539062 15.570312 360.628906 15.886719 L 360.382812 15.960938 L 309.605469 27.667969 L 309.539062 27.679688 L 309.535156 27.683594 L 309.65625 27.652344 C 307.851562 28.117188 306.761719 28.441406 306.390625 28.632812 C 307.304688 28.167969 307.617188 27.359375 307.324219 26.207031 L 307.320312 26.199219 C 307.109375 25.378906 306.625 24.859375 305.867188 24.632812 C 306.789062 24.910156 307.453125 25.714844 307.542969 26.675781 C 307.46875 25.878906 307.140625 25.371094 306.554688 25.152344 C 306.792969 25.242188 307.316406 25.3125 308.121094 25.363281 L 308.128906 25.363281 C 330.949219 26.933594 343.359375 27.996094 345.367188 28.546875 L 345.070312 28.484375 C 351.574219 29.402344 355.71875 30.523438 357.5 31.851562 L 358.453125 33.746094 L 357.421875 31.792969 C 358.171875 32.308594 358.746094 32.902344 359.144531 33.574219 L 359.148438 33.578125 C 359.617188 34.375 359.824219 35.238281 359.765625 36.164062 C 359.738281 36.566406 359.660156 36.976562 359.527344 37.382812 C 359.472656 37.554688 359.402344 37.714844 359.3125 37.867188 C 355.050781 45.085938 353.183594 49.78125 353.714844 51.945312 C 353.757812 52.125 353.78125 52.308594 353.78125 52.492188 C 353.792969 54.890625 355.40625 56.949219 358.613281 58.664062 C 359.761719 59.28125 360.195312 60.710938 359.582031 61.859375 C 358.964844 63.007812 357.535156 63.441406 356.386719 62.828125 C 351.523438 60.222656 349.082031 56.789062 349.0625 52.519531 L 349.128906 53.070312 C 348.292969 49.660156 350.332031 43.792969 355.246094 35.464844 L 355.03125 35.949219 C 355.046875 35.90625 355.050781 35.875 355.054688 35.855469 L 355.054688 35.859375 C 355.050781 35.898438 355.058594 35.9375 355.082031 35.976562 C 355.039062 35.90625 354.933594 35.8125 354.761719 35.695312 L 353.730469 33.746094 L 354.679688 35.636719 C 353.542969 34.789062 350.121094 33.964844 344.414062 33.160156 L 344.117188 33.097656 C 342.414062 32.628906 330.3125 31.621094 307.804688 30.074219 L 307.816406 30.074219 C 306.546875 29.992188 305.574219 29.824219 304.898438 29.570312 C 303.636719 29.097656 302.953125 28.277344 302.84375 27.113281 L 304.515625 29.15625 C 303.574219 28.875 302.984375 28.28125 302.75 27.382812 L 302.75 27.371094 C 302.421875 26.082031 302.921875 25.101562 304.253906 24.421875 L 304.253906 24.425781 C 304.933594 24.078125 306.34375 23.628906 308.484375 23.082031 L 308.609375 23.054688 L 308.613281 23.050781 L 308.542969 23.066406 L 359.320312 11.359375 L 359.070312 11.433594 C 359.519531 11.273438 359.8125 11.144531 359.949219 11.042969 C 359.714844 11.21875 359.566406 11.511719 359.5 11.929688 C 359.402344 12.542969 359.53125 12.996094 359.882812 13.296875 C 358.695312 12.289062 353.503906 11.054688 344.308594 9.59375 L 344.324219 9.597656 C 319.691406 5.839844 295.207031 5.027344 270.867188 7.167969 L 270.808594 7.171875 C 254.226562 8.199219 232.75 10.417969 206.378906 13.824219 L 206.441406 13.816406 C 157.785156 21.445312 128.320312 25.699219 118.042969 26.578125 L 118.121094 26.570312 C 97.496094 29.023438 77.058594 30.265625 56.808594 30.300781 C 22.300781 30.386719 3.636719 21.703125 0.816406 4.253906 C 0.609375 2.96875 1.480469 1.757812 2.769531 1.546875 C 4.054688 1.339844 5.265625 2.214844 5.476562 3.5 Z M 5.476562 3.5 " fill-opacity="0.996" fill-rule="nonzero"/></g></g></g></g></g><g fill="#b0c89f" fill-opacity="1"><g transform="translate(45.377498, 56.965439)"><g><path d="M 19.046875 -4.34375 C 19.554688 -4.769531 20 -4.945312 20.375 -4.875 C 20.757812 -4.800781 20.960938 -4.425781 20.984375 -3.75 C 20.984375 -3.582031 20.953125 -3.410156 20.890625 -3.234375 C 20.835938 -3.054688 20.742188 -2.882812 20.609375 -2.71875 C 20.484375 -2.550781 20.359375 -2.398438 20.234375 -2.265625 C 20.117188 -2.140625 19.960938 -2 19.765625 -1.84375 C 19.566406 -1.695312 19.398438 -1.582031 19.265625 -1.5 C 19.140625 -1.414062 18.96875 -1.300781 18.75 -1.15625 C 18.539062 -1.019531 18.398438 -0.929688 18.328125 -0.890625 C 17.765625 -0.503906 17.191406 -0.179688 16.609375 0.078125 C 16.222656 0.234375 15.582031 0.457031 14.6875 0.75 C 13.800781 1.050781 12.660156 1.382812 11.265625 1.75 C 9.878906 2.113281 8.523438 2.253906 7.203125 2.171875 C 5.890625 2.085938 4.898438 1.71875 4.234375 1.0625 C 3.972656 0.800781 3.675781 0.425781 3.34375 -0.0625 C 3.019531 -0.5625 2.734375 -1.046875 2.484375 -1.515625 C 2.242188 -1.984375 2.0625 -2.375 1.9375 -2.6875 C 1.632812 -3.507812 1.492188 -4.648438 1.515625 -6.109375 C 1.734375 -10.554688 3.644531 -14.375 7.25 -17.5625 C 8.09375 -18.269531 8.710938 -18.695312 9.109375 -18.84375 C 9.515625 -19 10.269531 -19.078125 11.375 -19.078125 C 13.394531 -19.078125 14.941406 -18.628906 16.015625 -17.734375 C 17.085938 -16.835938 17.492188 -15.660156 17.234375 -14.203125 C 17.078125 -13.472656 16.921875 -13.019531 16.765625 -12.84375 C 16.609375 -12.664062 16.257812 -12.539062 15.71875 -12.46875 C 14.988281 -12.394531 14.300781 -12.539062 13.65625 -12.90625 C 13.007812 -13.269531 12.753906 -13.664062 12.890625 -14.09375 C 13.035156 -14.445312 12.957031 -14.804688 12.65625 -15.171875 C 12.363281 -15.535156 12.007812 -15.71875 11.59375 -15.71875 C 10.8125 -15.71875 9.625 -14.898438 8.03125 -13.265625 C 6.445312 -11.628906 5.65625 -10.398438 5.65625 -9.578125 C 5.65625 -9.265625 5.488281 -8.816406 5.15625 -8.234375 C 4.800781 -7.710938 4.632812 -6.816406 4.65625 -5.546875 C 4.707031 -4.296875 4.910156 -3.410156 5.265625 -2.890625 C 5.828125 -2.046875 6.773438 -1.460938 8.109375 -1.140625 C 9.441406 -0.828125 10.660156 -0.773438 11.765625 -0.984375 C 12.347656 -1.078125 12.984375 -1.265625 13.671875 -1.546875 C 14.921875 -2.046875 16.0625 -2.695312 17.09375 -3.5 C 17.894531 -4.082031 18.453125 -4.304688 18.765625 -4.171875 C 18.785156 -4.171875 18.820312 -4.191406 18.875 -4.234375 C 18.9375 -4.285156 18.992188 -4.320312 19.046875 -4.34375 Z M 19.046875 -4.34375 "/></g></g></g><g fill="#b0c89f" fill-opacity="1"><g transform="translate(64.711425, 56.965439)"><g><path d="M 20.671875 -6.78125 C 21.023438 -6.59375 21.203125 -6.179688 21.203125 -5.546875 C 21.222656 -4.816406 20.804688 -4.132812 19.953125 -3.5 C 19.648438 -3.28125 19.300781 -3.066406 18.90625 -2.859375 C 18.832031 -2.835938 18.75 -2.789062 18.65625 -2.71875 C 18.320312 -2.53125 18.039062 -2.425781 17.8125 -2.40625 C 17.101562 -2.351562 16.414062 -2.632812 15.75 -3.25 C 15.59375 -3.394531 15.414062 -3.640625 15.21875 -3.984375 L 15.125 -4.171875 C 14.90625 -4.523438 14.703125 -4.75 14.515625 -4.84375 C 14.328125 -4.9375 14.09375 -4.910156 13.8125 -4.765625 C 13.457031 -4.578125 13.054688 -4 12.609375 -3.03125 C 12.398438 -2.539062 12.222656 -2.203125 12.078125 -2.015625 C 11.628906 -1.359375 11.242188 -0.984375 10.921875 -0.890625 C 10.492188 -0.671875 9.914062 -0.335938 9.1875 0.109375 C 8.289062 0.648438 7.441406 0.941406 6.640625 0.984375 C 5.722656 1.054688 5.039062 1.148438 4.59375 1.265625 C 4.476562 1.296875 4.359375 1.3125 4.234375 1.3125 C 3.972656 1.3125 3.75 1.265625 3.5625 1.171875 C 3.28125 1.046875 2.867188 0.726562 2.328125 0.21875 C 1.742188 -0.320312 1.34375 -0.800781 1.125 -1.21875 C 0.914062 -1.632812 0.707031 -2.359375 0.5 -3.390625 C 0.144531 -5.085938 0.0625 -6.445312 0.25 -7.46875 C 0.4375 -8.5 0.953125 -9.695312 1.796875 -11.0625 C 2.878906 -12.800781 3.90625 -14.0625 4.875 -14.84375 C 5.84375 -15.613281 7.03125 -16.164062 8.4375 -16.5 C 9.125 -16.632812 9.726562 -16.878906 10.25 -17.234375 C 11.070312 -17.773438 11.800781 -17.976562 12.4375 -17.84375 C 13.050781 -17.71875 13.757812 -17.234375 14.5625 -16.390625 C 14.976562 -15.921875 15.28125 -15.546875 15.46875 -15.265625 C 15.65625 -14.984375 15.785156 -14.710938 15.859375 -14.453125 C 15.929688 -14.191406 15.96875 -13.8125 15.96875 -13.3125 C 15.96875 -11.21875 16.039062 -9.59375 16.1875 -8.4375 C 16.25 -7.757812 16.40625 -7.238281 16.65625 -6.875 C 16.90625 -6.507812 17.335938 -6.066406 17.953125 -5.546875 L 18.046875 -5.609375 C 18.472656 -5.898438 18.78125 -6.125 18.96875 -6.28125 C 19.675781 -6.820312 20.242188 -6.988281 20.671875 -6.78125 Z M 12.5 -12.859375 C 12.5 -13.773438 12.40625 -14.28125 12.21875 -14.375 C 12.175781 -14.332031 12.128906 -14.273438 12.078125 -14.203125 C 11.960938 -13.992188 11.976562 -13.507812 12.125 -12.75 C 12.21875 -12.207031 12.3125 -11.867188 12.40625 -11.734375 C 12.46875 -11.921875 12.5 -12.296875 12.5 -12.859375 Z M 11.484375 -7.421875 C 11.578125 -7.960938 11.566406 -8.347656 11.453125 -8.578125 C 11.359375 -8.816406 11.0625 -9.1875 10.5625 -9.6875 C 9.78125 -10.4375 9.390625 -11.054688 9.390625 -11.546875 C 9.390625 -11.878906 9.285156 -12.269531 9.078125 -12.71875 C 8.867188 -13.164062 8.65625 -13.457031 8.4375 -13.59375 C 8.28125 -13.71875 8.140625 -13.78125 8.015625 -13.78125 C 7.921875 -13.78125 7.835938 -13.753906 7.765625 -13.703125 C 7.535156 -13.585938 7.054688 -13.15625 6.328125 -12.40625 C 5.691406 -11.769531 5.09375 -10.957031 4.53125 -9.96875 C 3.976562 -8.976562 3.578125 -8.046875 3.328125 -7.171875 C 3.066406 -6.347656 3.015625 -5.75 3.171875 -5.375 C 3.367188 -5.019531 3.476562 -4.414062 3.5 -3.5625 C 3.570312 -2.925781 3.664062 -2.457031 3.78125 -2.15625 C 3.894531 -1.894531 4.070312 -1.71875 4.3125 -1.625 C 4.570312 -1.507812 4.992188 -1.453125 5.578125 -1.453125 C 5.859375 -1.453125 6.09375 -1.460938 6.28125 -1.484375 C 6.476562 -1.484375 6.65625 -1.503906 6.8125 -1.546875 C 6.976562 -1.597656 7.132812 -1.660156 7.28125 -1.734375 C 7.445312 -1.828125 7.609375 -1.929688 7.765625 -2.046875 C 7.929688 -2.160156 8.132812 -2.316406 8.375 -2.515625 C 9.269531 -3.210938 9.773438 -3.773438 9.890625 -4.203125 C 10.035156 -4.648438 10.316406 -5.117188 10.734375 -5.609375 C 11.117188 -6.015625 11.367188 -6.617188 11.484375 -7.421875 Z M 11.484375 -7.421875 "/></g></g></g><g fill="#b0c89f" fill-opacity="1"><g transform="translate(83.904107, 56.965439)"><g><path d="M -1.453125 -4.875 C -1.078125 -5.507812 -0.347656 -6.960938 0.734375 -9.234375 C 1.816406 -11.503906 2.75 -13.101562 3.53125 -14.03125 C 3.644531 -14.1875 3.773438 -14.335938 3.921875 -14.484375 C 4.203125 -14.785156 4.585938 -15.015625 5.078125 -15.171875 C 5.578125 -15.328125 6.023438 -15.3125 6.421875 -15.125 C 6.566406 -15.03125 6.664062 -14.78125 6.71875 -14.375 C 6.78125 -13.976562 6.875 -13.769531 7 -13.75 C 7.164062 -13.71875 7.566406 -13.925781 8.203125 -14.375 C 9.285156 -15.132812 10.988281 -15.757812 13.3125 -16.25 C 14.257812 -16.488281 14.875 -16.582031 15.15625 -16.53125 C 15.4375 -16.488281 15.789062 -16.273438 16.21875 -15.890625 C 16.757812 -15.347656 17.039062 -14.6875 17.0625 -13.90625 C 17.082031 -13.132812 16.820312 -12.410156 16.28125 -11.734375 C 15.882812 -11.140625 15.367188 -9.96875 14.734375 -8.21875 C 14.097656 -6.476562 13.78125 -5.28125 13.78125 -4.625 C 13.78125 -4.15625 13.9375 -3.644531 14.25 -3.09375 C 14.570312 -2.539062 14.960938 -2.082031 15.421875 -1.71875 C 15.878906 -1.351562 16.296875 -1.171875 16.671875 -1.171875 C 17.234375 -1.171875 18.421875 -1.640625 20.234375 -2.578125 C 22.054688 -3.515625 23.484375 -4.410156 24.515625 -5.265625 C 25.296875 -5.847656 25.847656 -6.125 26.171875 -6.09375 C 26.503906 -6.0625 26.671875 -5.710938 26.671875 -5.046875 C 26.671875 -4.765625 26.546875 -4.441406 26.296875 -4.078125 C 26.054688 -3.710938 25.734375 -3.332031 25.328125 -2.9375 C 24.898438 -2.550781 24.40625 -2.164062 23.84375 -1.78125 C 23.28125 -1.394531 22.703125 -1.082031 22.109375 -0.84375 C 20.554688 -0.113281 19.441406 0.410156 18.765625 0.734375 C 17.585938 1.273438 16.539062 1.425781 15.625 1.1875 C 14.71875 0.957031 13.65625 0.234375 12.4375 -0.984375 C 11.445312 -1.972656 10.863281 -2.648438 10.6875 -3.015625 C 10.507812 -3.378906 10.421875 -4.082031 10.421875 -5.125 C 10.421875 -6.632812 10.691406 -8.203125 11.234375 -9.828125 C 11.703125 -11.453125 11.890625 -12.332031 11.796875 -12.46875 C 11.660156 -12.613281 10.707031 -11.851562 8.9375 -10.1875 C 7.164062 -8.53125 5.429688 -6.773438 3.734375 -4.921875 C 2.046875 -3.078125 1.203125 -2.015625 1.203125 -1.734375 C 1.203125 -1.492188 1.050781 -1.234375 0.75 -0.953125 C 0.457031 -0.671875 0.101562 -0.441406 -0.3125 -0.265625 C -0.738281 -0.0859375 -1.117188 -0.0351562 -1.453125 -0.109375 C -1.992188 -0.179688 -2.367188 -0.601562 -2.578125 -1.375 C -2.742188 -1.894531 -2.765625 -2.351562 -2.640625 -2.75 C -2.523438 -3.15625 -2.128906 -3.863281 -1.453125 -4.875 Z M -1.453125 -4.875 "/></g></g></g><g fill="#b0c89f" fill-opacity="1"><g transform="translate(108.711566, 56.965439)"><g><path d="M 17.90625 -4.28125 C 18.445312 -4.65625 18.90625 -4.773438 19.28125 -4.640625 C 19.664062 -4.515625 19.832031 -4.125 19.78125 -3.46875 C 19.757812 -3.300781 19.707031 -3.128906 19.625 -2.953125 C 19.539062 -2.773438 19.425781 -2.613281 19.28125 -2.46875 C 19.144531 -2.332031 19.007812 -2.203125 18.875 -2.078125 C 18.75 -1.960938 18.578125 -1.835938 18.359375 -1.703125 C 18.148438 -1.578125 17.972656 -1.476562 17.828125 -1.40625 C 17.691406 -1.34375 17.507812 -1.25 17.28125 -1.125 C 17.0625 -1.007812 16.914062 -0.929688 16.84375 -0.890625 C 16.257812 -0.578125 15.648438 -0.328125 15.015625 -0.140625 C 14.992188 -0.117188 14.703125 0.0625 14.140625 0.40625 C 13.585938 0.75 12.957031 1.125 12.25 1.53125 C 11.550781 1.945312 10.976562 2.222656 10.53125 2.359375 C 9.914062 2.578125 9.273438 2.742188 8.609375 2.859375 C 7.953125 2.972656 7.257812 3.046875 6.53125 3.078125 C 5.800781 3.117188 5.097656 3.046875 4.421875 2.859375 C 3.753906 2.671875 3.195312 2.390625 2.75 2.015625 C 2.207031 1.515625 1.765625 0.835938 1.421875 -0.015625 C 1.085938 -0.878906 0.863281 -1.8125 0.75 -2.8125 C 0.644531 -3.8125 0.59375 -4.742188 0.59375 -5.609375 C 0.59375 -6.484375 0.628906 -7.320312 0.703125 -8.125 C 0.722656 -8.238281 0.859375 -9.242188 1.109375 -11.140625 C 1.359375 -13.035156 1.59375 -14.898438 1.8125 -16.734375 L 2.15625 -19.46875 C 1.875 -19.632812 1.34375 -19.75 0.5625 -19.8125 C 0.09375 -19.84375 -0.390625 -19.84375 -0.890625 -19.8125 C -2.035156 -19.8125 -2.847656 -19.847656 -3.328125 -19.921875 C -3.421875 -19.941406 -3.550781 -19.953125 -3.71875 -19.953125 C -3.894531 -19.953125 -4.070312 -19.953125 -4.25 -19.953125 C -4.425781 -19.953125 -4.601562 -19.953125 -4.78125 -19.953125 C -4.957031 -19.953125 -5.097656 -19.96875 -5.203125 -20 C -5.316406 -20.039062 -5.382812 -20.097656 -5.40625 -20.171875 C -5.445312 -20.546875 -5.296875 -20.816406 -4.953125 -20.984375 C -4.921875 -21.003906 -4.757812 -21.101562 -4.46875 -21.28125 C -4.175781 -21.457031 -3.867188 -21.628906 -3.546875 -21.796875 C -3.234375 -21.960938 -2.804688 -22.109375 -2.265625 -22.234375 C -1.722656 -22.367188 -1.164062 -22.421875 -0.59375 -22.390625 C 1.164062 -22.234375 2.265625 -22.179688 2.703125 -22.234375 C 3.140625 -22.296875 3.566406 -22.550781 3.984375 -23 C 4.628906 -23.582031 5.476562 -25.125 6.53125 -27.625 C 6.582031 -27.71875 6.65625 -27.859375 6.75 -28.046875 C 7.144531 -28.992188 7.472656 -29.738281 7.734375 -30.28125 C 7.992188 -30.820312 8.359375 -31.507812 8.828125 -32.34375 C 9.296875 -33.175781 9.8125 -33.875 10.375 -34.4375 C 10.945312 -35.007812 11.539062 -35.445312 12.15625 -35.75 C 14.132812 -36.695312 15.125 -36.640625 15.125 -35.578125 C 15.125 -34.960938 14.664062 -33.582031 13.75 -31.4375 C 13.488281 -30.851562 13.296875 -30.394531 13.171875 -30.0625 C 13.035156 -29.632812 12.921875 -29.125 12.828125 -28.53125 C 12.734375 -27.945312 12.507812 -27.363281 12.15625 -26.78125 C 11.59375 -25.789062 11.117188 -24.953125 10.734375 -24.265625 C 10.285156 -23.460938 10.125 -22.992188 10.25 -22.859375 C 10.363281 -22.671875 11.550781 -22.457031 13.8125 -22.21875 C 15.394531 -22.050781 16.351562 -21.910156 16.6875 -21.796875 C 17.03125 -21.679688 17.179688 -21.457031 17.140625 -21.125 C 17.085938 -20.675781 16.828125 -20.488281 16.359375 -20.5625 C 16.171875 -20.582031 15.789062 -20.59375 15.21875 -20.59375 C 14.65625 -20.570312 14.019531 -20.535156 13.3125 -20.484375 C 12.613281 -20.441406 11.882812 -20.375 11.125 -20.28125 C 10.394531 -20.1875 9.785156 -20.113281 9.296875 -20.0625 C 9.035156 -20.019531 8.691406 -19.265625 8.265625 -17.796875 C 7.835938 -16.335938 7.367188 -14.566406 6.859375 -12.484375 C 6.359375 -10.398438 5.992188 -9.003906 5.765625 -8.296875 C 4.554688 -4.691406 4.707031 -2.222656 6.21875 -0.890625 C 6.90625 -0.273438 7.539062 0.0195312 8.125 0 C 8.476562 0 8.867188 -0.128906 9.296875 -0.390625 C 9.359375 -0.484375 9.597656 -0.625 10.015625 -0.8125 C 10.429688 -1 10.851562 -1.164062 11.28125 -1.3125 C 11.71875 -1.46875 12.164062 -1.628906 12.625 -1.796875 C 13.082031 -1.960938 13.328125 -2.046875 13.359375 -2.046875 C 15.242188 -2.796875 16.757812 -3.539062 17.90625 -4.28125 Z M 17.90625 -4.28125 "/></g></g></g><g fill="#b0c89f" fill-opacity="1"><g transform="translate(126.138582, 56.965439)"><g><path d="M 16.609375 -3.953125 C 17.117188 -4.378906 17.566406 -4.550781 17.953125 -4.46875 C 18.347656 -4.382812 18.546875 -4.015625 18.546875 -3.359375 C 18.566406 -3.140625 18.523438 -2.925781 18.421875 -2.71875 C 18.316406 -2.507812 18.203125 -2.328125 18.078125 -2.171875 C 17.960938 -2.015625 17.789062 -1.84375 17.5625 -1.65625 C 17.34375 -1.46875 17.160156 -1.328125 17.015625 -1.234375 C 16.878906 -1.140625 16.675781 -1.003906 16.40625 -0.828125 C 16.132812 -0.648438 15.976562 -0.539062 15.9375 -0.5 C 15.363281 -0.113281 14.785156 0.203125 14.203125 0.453125 C 14.148438 0.484375 14.082031 0.515625 14 0.546875 C 13.925781 0.578125 13.835938 0.609375 13.734375 0.640625 C 13.640625 0.679688 13.546875 0.71875 13.453125 0.75 C 13.359375 0.789062 13.285156 0.820312 13.234375 0.84375 L 13.140625 0.890625 C 11.703125 1.472656 10.160156 1.8125 8.515625 1.90625 C 6.816406 2 5.578125 1.847656 4.796875 1.453125 C 4.703125 1.398438 4.328125 1.234375 3.671875 0.953125 C 3.015625 0.671875 2.546875 0.425781 2.265625 0.21875 C 1.722656 -0.132812 1.203125 -0.898438 0.703125 -2.078125 C -0.210938 -4.203125 -0.671875 -6.078125 -0.671875 -7.703125 C -0.671875 -8.691406 -0.492188 -9.988281 -0.140625 -11.59375 C -0.117188 -11.6875 -0.078125 -11.882812 -0.015625 -12.1875 C 0.046875 -12.488281 0.0976562 -12.71875 0.140625 -12.875 C 0.191406 -13.03125 0.25 -13.242188 0.3125 -13.515625 C 0.382812 -13.785156 0.457031 -14.015625 0.53125 -14.203125 C 0.601562 -14.390625 0.6875 -14.582031 0.78125 -14.78125 C 0.875 -14.976562 0.96875 -15.160156 1.0625 -15.328125 C 1.550781 -16.015625 1.953125 -16.507812 2.265625 -16.8125 C 3.535156 -18.132812 5.144531 -18.722656 7.09375 -18.578125 C 9.125 -18.410156 10.222656 -17.738281 10.390625 -16.5625 C 10.523438 -15.644531 10.46875 -14.695312 10.21875 -13.71875 C 9.976562 -12.75 9.675781 -11.941406 9.3125 -11.296875 C 8.945312 -10.660156 8.4375 -9.835938 7.78125 -8.828125 C 7.132812 -7.816406 6.671875 -7.039062 6.390625 -6.5 C 5.359375 -4.539062 4.84375 -3.375 4.84375 -3 C 4.84375 -2.695312 5.132812 -2.265625 5.71875 -1.703125 C 6.09375 -1.347656 6.425781 -1.132812 6.71875 -1.0625 C 7.019531 -0.988281 7.5625 -1.023438 8.34375 -1.171875 C 9.5625 -1.328125 10.890625 -1.617188 12.328125 -2.046875 C 12.867188 -2.234375 13.65625 -2.550781 14.6875 -3 C 15.726562 -3.445312 16.367188 -3.765625 16.609375 -3.953125 Z M 2.890625 -6.46875 C 3.109375 -6.46875 3.695312 -7.382812 4.65625 -9.21875 C 5.601562 -11.050781 6.078125 -12.160156 6.078125 -12.546875 C 6.078125 -12.992188 5.832031 -13.28125 5.34375 -13.40625 C 4.863281 -13.53125 4.484375 -13.421875 4.203125 -13.078125 C 3.960938 -12.785156 3.726562 -12.359375 3.5 -11.796875 C 3.257812 -11.234375 3.070312 -10.65625 2.9375 -10.0625 C 2.8125 -9.476562 2.703125 -8.914062 2.609375 -8.375 C 2.515625 -7.832031 2.488281 -7.378906 2.53125 -7.015625 C 2.582031 -6.648438 2.703125 -6.46875 2.890625 -6.46875 Z M 2.890625 -6.46875 "/></g></g></g><g fill="#b0c89f" fill-opacity="1"><g transform="translate(142.047133, 56.965439)"><g><path d="M -1.453125 -4.875 C -1.078125 -5.507812 -0.347656 -6.960938 0.734375 -9.234375 C 1.816406 -11.503906 2.75 -13.101562 3.53125 -14.03125 C 3.644531 -14.1875 3.773438 -14.335938 3.921875 -14.484375 C 4.203125 -14.785156 4.585938 -15.015625 5.078125 -15.171875 C 5.578125 -15.328125 6.023438 -15.3125 6.421875 -15.125 C 6.566406 -15.03125 6.664062 -14.78125 6.71875 -14.375 C 6.78125 -13.976562 6.875 -13.769531 7 -13.75 C 7.164062 -13.71875 7.566406 -13.925781 8.203125 -14.375 C 9.285156 -15.132812 10.988281 -15.757812 13.3125 -16.25 C 14.257812 -16.488281 14.875 -16.582031 15.15625 -16.53125 C 15.4375 -16.488281 15.789062 -16.273438 16.21875 -15.890625 C 16.757812 -15.347656 17.039062 -14.6875 17.0625 -13.90625 C 17.082031 -13.132812 16.820312 -12.410156 16.28125 -11.734375 C 15.882812 -11.140625 15.367188 -9.96875 14.734375 -8.21875 C 14.097656 -6.476562 13.78125 -5.28125 13.78125 -4.625 C 13.78125 -4.15625 13.9375 -3.644531 14.25 -3.09375 C 14.570312 -2.539062 14.960938 -2.082031 15.421875 -1.71875 C 15.878906 -1.351562 16.296875 -1.171875 16.671875 -1.171875 C 17.234375 -1.171875 18.421875 -1.640625 20.234375 -2.578125 C 22.054688 -3.515625 23.484375 -4.410156 24.515625 -5.265625 C 25.296875 -5.847656 25.847656 -6.125 26.171875 -6.09375 C 26.503906 -6.0625 26.671875 -5.710938 26.671875 -5.046875 C 26.671875 -4.765625 26.546875 -4.441406 26.296875 -4.078125 C 26.054688 -3.710938 25.734375 -3.332031 25.328125 -2.9375 C 24.898438 -2.550781 24.40625 -2.164062 23.84375 -1.78125 C 23.28125 -1.394531 22.703125 -1.082031 22.109375 -0.84375 C 20.554688 -0.113281 19.441406 0.410156 18.765625 0.734375 C 17.585938 1.273438 16.539062 1.425781 15.625 1.1875 C 14.71875 0.957031 13.65625 0.234375 12.4375 -0.984375 C 11.445312 -1.972656 10.863281 -2.648438 10.6875 -3.015625 C 10.507812 -3.378906 10.421875 -4.082031 10.421875 -5.125 C 10.421875 -6.632812 10.691406 -8.203125 11.234375 -9.828125 C 11.703125 -11.453125 11.890625 -12.332031 11.796875 -12.46875 C 11.660156 -12.613281 10.707031 -11.851562 8.9375 -10.1875 C 7.164062 -8.53125 5.429688 -6.773438 3.734375 -4.921875 C 2.046875 -3.078125 1.203125 -2.015625 1.203125 -1.734375 C 1.203125 -1.492188 1.050781 -1.234375 0.75 -0.953125 C 0.457031 -0.671875 0.101562 -0.441406 -0.3125 -0.265625 C -0.738281 -0.0859375 -1.117188 -0.0351562 -1.453125 -0.109375 C -1.992188 -0.179688 -2.367188 -0.601562 -2.578125 -1.375 C -2.742188 -1.894531 -2.765625 -2.351562 -2.640625 -2.75 C -2.523438 -3.15625 -2.128906 -3.863281 -1.453125 -4.875 Z M -1.453125 -4.875 "/></g></g></g><g fill="#b0c89f" fill-opacity="1"><g transform="translate(166.854592, 56.965439)"><g><path d="M 17.90625 -4.28125 C 18.445312 -4.65625 18.90625 -4.773438 19.28125 -4.640625 C 19.664062 -4.515625 19.832031 -4.125 19.78125 -3.46875 C 19.757812 -3.300781 19.707031 -3.128906 19.625 -2.953125 C 19.539062 -2.773438 19.425781 -2.613281 19.28125 -2.46875 C 19.144531 -2.332031 19.007812 -2.203125 18.875 -2.078125 C 18.75 -1.960938 18.578125 -1.835938 18.359375 -1.703125 C 18.148438 -1.578125 17.972656 -1.476562 17.828125 -1.40625 C 17.691406 -1.34375 17.507812 -1.25 17.28125 -1.125 C 17.0625 -1.007812 16.914062 -0.929688 16.84375 -0.890625 C 16.257812 -0.578125 15.648438 -0.328125 15.015625 -0.140625 C 14.992188 -0.117188 14.703125 0.0625 14.140625 0.40625 C 13.585938 0.75 12.957031 1.125 12.25 1.53125 C 11.550781 1.945312 10.976562 2.222656 10.53125 2.359375 C 9.914062 2.578125 9.273438 2.742188 8.609375 2.859375 C 7.953125 2.972656 7.257812 3.046875 6.53125 3.078125 C 5.800781 3.117188 5.097656 3.046875 4.421875 2.859375 C 3.753906 2.671875 3.195312 2.390625 2.75 2.015625 C 2.207031 1.515625 1.765625 0.835938 1.421875 -0.015625 C 1.085938 -0.878906 0.863281 -1.8125 0.75 -2.8125 C 0.644531 -3.8125 0.59375 -4.742188 0.59375 -5.609375 C 0.59375 -6.484375 0.628906 -7.320312 0.703125 -8.125 C 0.722656 -8.238281 0.859375 -9.242188 1.109375 -11.140625 C 1.359375 -13.035156 1.59375 -14.898438 1.8125 -16.734375 L 2.15625 -19.46875 C 1.875 -19.632812 1.34375 -19.75 0.5625 -19.8125 C 0.09375 -19.84375 -0.390625 -19.84375 -0.890625 -19.8125 C -2.035156 -19.8125 -2.847656 -19.847656 -3.328125 -19.921875 C -3.421875 -19.941406 -3.550781 -19.953125 -3.71875 -19.953125 C -3.894531 -19.953125 -4.070312 -19.953125 -4.25 -19.953125 C -4.425781 -19.953125 -4.601562 -19.953125 -4.78125 -19.953125 C -4.957031 -19.953125 -5.097656 -19.96875 -5.203125 -20 C -5.316406 -20.039062 -5.382812 -20.097656 -5.40625 -20.171875 C -5.445312 -20.546875 -5.296875 -20.816406 -4.953125 -20.984375 C -4.921875 -21.003906 -4.757812 -21.101562 -4.46875 -21.28125 C -4.175781 -21.457031 -3.867188 -21.628906 -3.546875 -21.796875 C -3.234375 -21.960938 -2.804688 -22.109375 -2.265625 -22.234375 C -1.722656 -22.367188 -1.164062 -22.421875 -0.59375 -22.390625 C 1.164062 -22.234375 2.265625 -22.179688 2.703125 -22.234375 C 3.140625 -22.296875 3.566406 -22.550781 3.984375 -23 C 4.628906 -23.582031 5.476562 -25.125 6.53125 -27.625 C 6.582031 -27.71875 6.65625 -27.859375 6.75 -28.046875 C 7.144531 -28.992188 7.472656 -29.738281 7.734375 -30.28125 C 7.992188 -30.820312 8.359375 -31.507812 8.828125 -32.34375 C 9.296875 -33.175781 9.8125 -33.875 10.375 -34.4375 C 10.945312 -35.007812 11.539062 -35.445312 12.15625 -35.75 C 14.132812 -36.695312 15.125 -36.640625 15.125 -35.578125 C 15.125 -34.960938 14.664062 -33.582031 13.75 -31.4375 C 13.488281 -30.851562 13.296875 -30.394531 13.171875 -30.0625 C 13.035156 -29.632812 12.921875 -29.125 12.828125 -28.53125 C 12.734375 -27.945312 12.507812 -27.363281 12.15625 -26.78125 C 11.59375 -25.789062 11.117188 -24.953125 10.734375 -24.265625 C 10.285156 -23.460938 10.125 -22.992188 10.25 -22.859375 C 10.363281 -22.671875 11.550781 -22.457031 13.8125 -22.21875 C 15.394531 -22.050781 16.351562 -21.910156 16.6875 -21.796875 C 17.03125 -21.679688 17.179688 -21.457031 17.140625 -21.125 C 17.085938 -20.675781 16.828125 -20.488281 16.359375 -20.5625 C 16.171875 -20.582031 15.789062 -20.59375 15.21875 -20.59375 C 14.65625 -20.570312 14.019531 -20.535156 13.3125 -20.484375 C 12.613281 -20.441406 11.882812 -20.375 11.125 -20.28125 C 10.394531 -20.1875 9.785156 -20.113281 9.296875 -20.0625 C 9.035156 -20.019531 8.691406 -19.265625 8.265625 -17.796875 C 7.835938 -16.335938 7.367188 -14.566406 6.859375 -12.484375 C 6.359375 -10.398438 5.992188 -9.003906 5.765625 -8.296875 C 4.554688 -4.691406 4.707031 -2.222656 6.21875 -0.890625 C 6.90625 -0.273438 7.539062 0.0195312 8.125 0 C 8.476562 0 8.867188 -0.128906 9.296875 -0.390625 C 9.359375 -0.484375 9.597656 -0.625 10.015625 -0.8125 C 10.429688 -1 10.851562 -1.164062 11.28125 -1.3125 C 11.71875 -1.46875 12.164062 -1.628906 12.625 -1.796875 C 13.082031 -1.960938 13.328125 -2.046875 13.359375 -2.046875 C 15.242188 -2.796875 16.757812 -3.539062 17.90625 -4.28125 Z M 17.90625 -4.28125 "/></g></g></g><g fill="#b0c89f" fill-opacity="1"><g transform="translate(184.281608, 56.965439)"><g/></g></g><g fill="#b0c89f" fill-opacity="1"><g transform="translate(200.402041, 56.965439)"><g><path d="M 19.046875 -4.34375 C 19.554688 -4.769531 20 -4.945312 20.375 -4.875 C 20.757812 -4.800781 20.960938 -4.425781 20.984375 -3.75 C 20.984375 -3.582031 20.953125 -3.410156 20.890625 -3.234375 C 20.835938 -3.054688 20.742188 -2.882812 20.609375 -2.71875 C 20.484375 -2.550781 20.359375 -2.398438 20.234375 -2.265625 C 20.117188 -2.140625 19.960938 -2 19.765625 -1.84375 C 19.566406 -1.695312 19.398438 -1.582031 19.265625 -1.5 C 19.140625 -1.414062 18.96875 -1.300781 18.75 -1.15625 C 18.539062 -1.019531 18.398438 -0.929688 18.328125 -0.890625 C 17.765625 -0.503906 17.191406 -0.179688 16.609375 0.078125 C 16.222656 0.234375 15.582031 0.457031 14.6875 0.75 C 13.800781 1.050781 12.660156 1.382812 11.265625 1.75 C 9.878906 2.113281 8.523438 2.253906 7.203125 2.171875 C 5.890625 2.085938 4.898438 1.71875 4.234375 1.0625 C 3.972656 0.800781 3.675781 0.425781 3.34375 -0.0625 C 3.019531 -0.5625 2.734375 -1.046875 2.484375 -1.515625 C 2.242188 -1.984375 2.0625 -2.375 1.9375 -2.6875 C 1.632812 -3.507812 1.492188 -4.648438 1.515625 -6.109375 C 1.734375 -10.554688 3.644531 -14.375 7.25 -17.5625 C 8.09375 -18.269531 8.710938 -18.695312 9.109375 -18.84375 C 9.515625 -19 10.269531 -19.078125 11.375 -19.078125 C 13.394531 -19.078125 14.941406 -18.628906 16.015625 -17.734375 C 17.085938 -16.835938 17.492188 -15.660156 17.234375 -14.203125 C 17.078125 -13.472656 16.921875 -13.019531 16.765625 -12.84375 C 16.609375 -12.664062 16.257812 -12.539062 15.71875 -12.46875 C 14.988281 -12.394531 14.300781 -12.539062 13.65625 -12.90625 C 13.007812 -13.269531 12.753906 -13.664062 12.890625 -14.09375 C 13.035156 -14.445312 12.957031 -14.804688 12.65625 -15.171875 C 12.363281 -15.535156 12.007812 -15.71875 11.59375 -15.71875 C 10.8125 -15.71875 9.625 -14.898438 8.03125 -13.265625 C 6.445312 -11.628906 5.65625 -10.398438 5.65625 -9.578125 C 5.65625 -9.265625 5.488281 -8.816406 5.15625 -8.234375 C 4.800781 -7.710938 4.632812 -6.816406 4.65625 -5.546875 C 4.707031 -4.296875 4.910156 -3.410156 5.265625 -2.890625 C 5.828125 -2.046875 6.773438 -1.460938 8.109375 -1.140625 C 9.441406 -0.828125 10.660156 -0.773438 11.765625 -0.984375 C 12.347656 -1.078125 12.984375 -1.265625 13.671875 -1.546875 C 14.921875 -2.046875 16.0625 -2.695312 17.09375 -3.5 C 17.894531 -4.082031 18.453125 -4.304688 18.765625 -4.171875 C 18.785156 -4.171875 18.820312 -4.191406 18.875 -4.234375 C 18.9375 -4.285156 18.992188 -4.320312 19.046875 -4.34375 Z M 19.046875 -4.34375 "/></g></g></g><g fill="#b0c89f" fill-opacity="1"><g transform="translate(219.735968, 56.965439)"><g><path d="M 22.609375 -5.71875 C 23.109375 -6.164062 23.550781 -6.347656 23.9375 -6.265625 C 24.320312 -6.179688 24.523438 -5.8125 24.546875 -5.15625 C 24.546875 -4.96875 24.515625 -4.785156 24.453125 -4.609375 C 24.398438 -4.429688 24.304688 -4.265625 24.171875 -4.109375 C 24.046875 -3.960938 23.914062 -3.816406 23.78125 -3.671875 C 23.65625 -3.535156 23.5 -3.394531 23.3125 -3.25 C 23.125 -3.101562 22.960938 -2.984375 22.828125 -2.890625 C 22.703125 -2.796875 22.535156 -2.679688 22.328125 -2.546875 C 22.117188 -2.421875 21.976562 -2.328125 21.90625 -2.265625 C 21.34375 -1.890625 20.765625 -1.582031 20.171875 -1.34375 C 20.128906 -1.320312 20.054688 -1.285156 19.953125 -1.234375 C 19.910156 -1.117188 19.816406 -1.023438 19.671875 -0.953125 C 19.535156 -0.878906 19.328125 -0.804688 19.046875 -0.734375 C 18.503906 -0.429688 17.703125 -0.21875 16.640625 -0.09375 C 15.578125 0.0195312 14.609375 0.046875 13.734375 -0.015625 C 12.867188 -0.078125 12.304688 -0.175781 12.046875 -0.3125 C 11.835938 -0.457031 11.601562 -0.753906 11.34375 -1.203125 C 11.082031 -1.648438 10.859375 -2.097656 10.671875 -2.546875 C 10.484375 -2.992188 10.363281 -3.332031 10.3125 -3.5625 C 10.144531 -4.25 10.085938 -4.984375 10.140625 -5.765625 C 10.210938 -6.554688 10.34375 -7.800781 10.53125 -9.5 L 10.53125 -10 C 10.53125 -10.113281 10.488281 -10.195312 10.40625 -10.25 C 10.320312 -10.3125 10.207031 -10.359375 10.0625 -10.390625 C 9.925781 -10.390625 9.738281 -10.390625 9.5 -10.390625 C 9.21875 -10.390625 8.898438 -10.4375 8.546875 -10.53125 C 8.191406 -10.625 7.84375 -10.710938 7.5 -10.796875 C 7.164062 -10.878906 6.867188 -10.921875 6.609375 -10.921875 C 6.628906 -10.921875 6.546875 -10.546875 6.359375 -9.796875 C 6.171875 -9.054688 5.925781 -8.273438 5.625 -7.453125 C 5.332031 -6.628906 5.070312 -6.144531 4.84375 -6 C 3.988281 -5.507812 3.09375 -5.160156 2.15625 -4.953125 C 0.925781 -4.660156 1.476562 -7.332031 3.8125 -12.96875 C 3.863281 -13.101562 3.984375 -13.394531 4.171875 -13.84375 C 4.359375 -14.289062 4.484375 -14.601562 4.546875 -14.78125 C 4.617188 -14.957031 4.734375 -15.238281 4.890625 -15.625 C 5.046875 -16.019531 5.15625 -16.335938 5.21875 -16.578125 C 5.289062 -16.828125 5.367188 -17.128906 5.453125 -17.484375 C 5.535156 -17.835938 5.59375 -18.171875 5.625 -18.484375 C 5.664062 -18.804688 5.6875 -19.132812 5.6875 -19.46875 C 5.6875 -19.84375 5.925781 -20.507812 6.40625 -21.46875 C 6.894531 -22.4375 7.28125 -23.03125 7.5625 -23.25 C 7.9375 -23.457031 8.445312 -23.53125 9.09375 -23.46875 C 9.738281 -23.414062 10.171875 -23.269531 10.390625 -23.03125 C 10.671875 -22.675781 10.671875 -21.3125 10.390625 -18.9375 C 10.171875 -17.382812 10.078125 -16.382812 10.109375 -15.9375 C 10.128906 -15.457031 10.257812 -15.078125 10.5 -14.796875 C 10.78125 -14.566406 11.023438 -14.457031 11.234375 -14.46875 C 11.441406 -14.476562 11.84375 -14.660156 12.4375 -15.015625 C 13.3125 -15.503906 13.941406 -15.738281 14.328125 -15.71875 C 14.710938 -15.695312 15.070312 -15.425781 15.40625 -14.90625 C 15.664062 -14.53125 15.78125 -14.1875 15.75 -13.875 C 15.726562 -13.570312 15.550781 -12.988281 15.21875 -12.125 C 14.75 -10.875 14.328125 -9.445312 13.953125 -7.84375 C 13.671875 -6.570312 13.582031 -5.628906 13.6875 -5.015625 C 13.789062 -4.398438 14.175781 -3.679688 14.84375 -2.859375 C 15.125 -2.460938 15.347656 -2.238281 15.515625 -2.1875 C 15.578125 -2.164062 15.695312 -2.179688 15.875 -2.234375 C 16.050781 -2.296875 16.238281 -2.367188 16.4375 -2.453125 C 16.644531 -2.535156 16.78125 -2.585938 16.84375 -2.609375 C 17.582031 -2.796875 18.066406 -2.953125 18.296875 -3.078125 C 20.109375 -4.015625 21.546875 -4.894531 22.609375 -5.71875 Z M 22.609375 -5.71875 "/></g></g></g><g fill="#b0c89f" fill-opacity="1"><g transform="translate(241.718379, 56.965439)"><g><path d="M 16.609375 -3.953125 C 17.117188 -4.378906 17.566406 -4.550781 17.953125 -4.46875 C 18.347656 -4.382812 18.546875 -4.015625 18.546875 -3.359375 C 18.566406 -3.140625 18.523438 -2.925781 18.421875 -2.71875 C 18.316406 -2.507812 18.203125 -2.328125 18.078125 -2.171875 C 17.960938 -2.015625 17.789062 -1.84375 17.5625 -1.65625 C 17.34375 -1.46875 17.160156 -1.328125 17.015625 -1.234375 C 16.878906 -1.140625 16.675781 -1.003906 16.40625 -0.828125 C 16.132812 -0.648438 15.976562 -0.539062 15.9375 -0.5 C 15.363281 -0.113281 14.785156 0.203125 14.203125 0.453125 C 14.148438 0.484375 14.082031 0.515625 14 0.546875 C 13.925781 0.578125 13.835938 0.609375 13.734375 0.640625 C 13.640625 0.679688 13.546875 0.71875 13.453125 0.75 C 13.359375 0.789062 13.285156 0.820312 13.234375 0.84375 L 13.140625 0.890625 C 11.703125 1.472656 10.160156 1.8125 8.515625 1.90625 C 6.816406 2 5.578125 1.847656 4.796875 1.453125 C 4.703125 1.398438 4.328125 1.234375 3.671875 0.953125 C 3.015625 0.671875 2.546875 0.425781 2.265625 0.21875 C 1.722656 -0.132812 1.203125 -0.898438 0.703125 -2.078125 C -0.210938 -4.203125 -0.671875 -6.078125 -0.671875 -7.703125 C -0.671875 -8.691406 -0.492188 -9.988281 -0.140625 -11.59375 C -0.117188 -11.6875 -0.078125 -11.882812 -0.015625 -12.1875 C 0.046875 -12.488281 0.0976562 -12.71875 0.140625 -12.875 C 0.191406 -13.03125 0.25 -13.242188 0.3125 -13.515625 C 0.382812 -13.785156 0.457031 -14.015625 0.53125 -14.203125 C 0.601562 -14.390625 0.6875 -14.582031 0.78125 -14.78125 C 0.875 -14.976562 0.96875 -15.160156 1.0625 -15.328125 C 1.550781 -16.015625 1.953125 -16.507812 2.265625 -16.8125 C 3.535156 -18.132812 5.144531 -18.722656 7.09375 -18.578125 C 9.125 -18.410156 10.222656 -17.738281 10.390625 -16.5625 C 10.523438 -15.644531 10.46875 -14.695312 10.21875 -13.71875 C 9.976562 -12.75 9.675781 -11.941406 9.3125 -11.296875 C 8.945312 -10.660156 8.4375 -9.835938 7.78125 -8.828125 C 7.132812 -7.816406 6.671875 -7.039062 6.390625 -6.5 C 5.359375 -4.539062 4.84375 -3.375 4.84375 -3 C 4.84375 -2.695312 5.132812 -2.265625 5.71875 -1.703125 C 6.09375 -1.347656 6.425781 -1.132812 6.71875 -1.0625 C 7.019531 -0.988281 7.5625 -1.023438 8.34375 -1.171875 C 9.5625 -1.328125 10.890625 -1.617188 12.328125 -2.046875 C 12.867188 -2.234375 13.65625 -2.550781 14.6875 -3 C 15.726562 -3.445312 16.367188 -3.765625 16.609375 -3.953125 Z M 2.890625 -6.46875 C 3.109375 -6.46875 3.695312 -7.382812 4.65625 -9.21875 C 5.601562 -11.050781 6.078125 -12.160156 6.078125 -12.546875 C 6.078125 -12.992188 5.832031 -13.28125 5.34375 -13.40625 C 4.863281 -13.53125 4.484375 -13.421875 4.203125 -13.078125 C 3.960938 -12.785156 3.726562 -12.359375 3.5 -11.796875 C 3.257812 -11.234375 3.070312 -10.65625 2.9375 -10.0625 C 2.8125 -9.476562 2.703125 -8.914062 2.609375 -8.375 C 2.515625 -7.832031 2.488281 -7.378906 2.53125 -7.015625 C 2.582031 -6.648438 2.703125 -6.46875 2.890625 -6.46875 Z M 2.890625 -6.46875 "/></g></g></g><g fill="#b0c89f" fill-opacity="1"><g transform="translate(257.62693, 56.965439)"><g><path d="M 22.609375 -4.3125 C 23.054688 -4.664062 23.4375 -4.8125 23.75 -4.75 C 24.070312 -4.6875 24.234375 -4.375 24.234375 -3.8125 C 24.234375 -3.695312 24.207031 -3.570312 24.15625 -3.4375 C 24.113281 -3.3125 24.0625 -3.195312 24 -3.09375 C 23.945312 -2.988281 23.859375 -2.875 23.734375 -2.75 C 23.617188 -2.632812 23.515625 -2.53125 23.421875 -2.4375 C 23.328125 -2.34375 23.207031 -2.242188 23.0625 -2.140625 C 22.925781 -2.035156 22.8125 -1.953125 22.71875 -1.890625 C 22.625 -1.828125 22.503906 -1.75 22.359375 -1.65625 C 22.222656 -1.5625 22.117188 -1.492188 22.046875 -1.453125 C 21.597656 -1.140625 21.125 -0.878906 20.625 -0.671875 C 20.582031 -0.648438 20.300781 -0.507812 19.78125 -0.25 L 19.609375 -0.03125 C 18.972656 0.582031 18.050781 0.957031 16.84375 1.09375 C 16.09375 1.1875 15.507812 1.191406 15.09375 1.109375 C 14.6875 1.023438 14.117188 0.820312 13.390625 0.5 C 12.304688 -0.0195312 11.585938 -0.445312 11.234375 -0.78125 C 10.992188 -0.96875 10.789062 -1.046875 10.625 -1.015625 C 10.46875 -0.992188 10.164062 -0.804688 9.71875 -0.453125 C 8.28125 0.578125 6.566406 1.15625 4.578125 1.28125 C 2.585938 1.414062 1.285156 1.023438 0.671875 0.109375 C 0.296875 -0.484375 0.125 -1.625 0.15625 -3.3125 C 0.195312 -5.007812 0.414062 -6.222656 0.8125 -6.953125 C 1.164062 -7.585938 1.4375 -8.0625 1.625 -8.375 C 1.832031 -8.675781 2.03125 -8.957031 2.21875 -9.21875 C 2.414062 -9.5 2.734375 -9.910156 3.171875 -10.453125 C 4.660156 -12.296875 5.828125 -13.554688 6.671875 -14.234375 C 7.335938 -14.753906 8.113281 -15.195312 9 -15.5625 C 9.894531 -15.925781 10.832031 -16.164062 11.8125 -16.28125 C 12.789062 -16.40625 13.65625 -16.273438 14.40625 -15.890625 C 15.332031 -15.421875 15.898438 -14.613281 16.109375 -13.46875 C 16.316406 -12.332031 16.289062 -11.226562 16.03125 -10.15625 C 15.78125 -9.082031 15.414062 -8.078125 14.9375 -7.140625 C 14.539062 -6.242188 14.242188 -5.265625 14.046875 -4.203125 C 13.847656 -3.140625 13.851562 -2.445312 14.0625 -2.125 C 14.507812 -1.226562 15.976562 -1.164062 18.46875 -1.9375 C 18.570312 -1.96875 18.671875 -1.984375 18.765625 -1.984375 C 18.898438 -2.023438 19.003906 -2.070312 19.078125 -2.125 C 20.585938 -2.894531 21.765625 -3.625 22.609375 -4.3125 Z M 11.9375 -10.953125 C 12.195312 -11.085938 12.335938 -11.203125 12.359375 -11.296875 C 12.390625 -11.398438 12.332031 -11.519531 12.1875 -11.65625 C 11.90625 -11.96875 11.503906 -12.171875 10.984375 -12.265625 C 10.460938 -12.359375 9.957031 -12.332031 9.46875 -12.1875 C 8.96875 -12.070312 8.21875 -11.597656 7.21875 -10.765625 C 6.21875 -9.941406 5.539062 -9.238281 5.1875 -8.65625 C 4.71875 -7.96875 4.316406 -7.351562 3.984375 -6.8125 C 3.585938 -6.25 3.316406 -5.425781 3.171875 -4.34375 C 3.035156 -3.257812 3.097656 -2.550781 3.359375 -2.21875 C 3.585938 -1.9375 4.101562 -1.796875 4.90625 -1.796875 C 5.707031 -1.796875 6.460938 -1.925781 7.171875 -2.1875 C 7.859375 -2.519531 8.363281 -3.015625 8.6875 -3.671875 C 9.25 -4.773438 9.707031 -5.671875 10.0625 -6.359375 C 10.675781 -7.421875 10.984375 -8.140625 10.984375 -8.515625 C 10.984375 -8.753906 11.082031 -8.992188 11.28125 -9.234375 C 11.488281 -9.484375 11.546875 -9.75 11.453125 -10.03125 C 11.328125 -10.40625 11.488281 -10.710938 11.9375 -10.953125 Z M 11.9375 -10.953125 "/></g></g></g><g fill="#b0c89f" fill-opacity="1"><g transform="translate(279.697623, 56.965439)"><g><path d="M 17.90625 -4.28125 C 18.445312 -4.65625 18.90625 -4.773438 19.28125 -4.640625 C 19.664062 -4.515625 19.832031 -4.125 19.78125 -3.46875 C 19.757812 -3.300781 19.707031 -3.128906 19.625 -2.953125 C 19.539062 -2.773438 19.425781 -2.613281 19.28125 -2.46875 C 19.144531 -2.332031 19.007812 -2.203125 18.875 -2.078125 C 18.75 -1.960938 18.578125 -1.835938 18.359375 -1.703125 C 18.148438 -1.578125 17.972656 -1.476562 17.828125 -1.40625 C 17.691406 -1.34375 17.507812 -1.25 17.28125 -1.125 C 17.0625 -1.007812 16.914062 -0.929688 16.84375 -0.890625 C 16.257812 -0.578125 15.648438 -0.328125 15.015625 -0.140625 C 14.992188 -0.117188 14.703125 0.0625 14.140625 0.40625 C 13.585938 0.75 12.957031 1.125 12.25 1.53125 C 11.550781 1.945312 10.976562 2.222656 10.53125 2.359375 C 9.914062 2.578125 9.273438 2.742188 8.609375 2.859375 C 7.953125 2.972656 7.257812 3.046875 6.53125 3.078125 C 5.800781 3.117188 5.097656 3.046875 4.421875 2.859375 C 3.753906 2.671875 3.195312 2.390625 2.75 2.015625 C 2.207031 1.515625 1.765625 0.835938 1.421875 -0.015625 C 1.085938 -0.878906 0.863281 -1.8125 0.75 -2.8125 C 0.644531 -3.8125 0.59375 -4.742188 0.59375 -5.609375 C 0.59375 -6.484375 0.628906 -7.320312 0.703125 -8.125 C 0.722656 -8.238281 0.859375 -9.242188 1.109375 -11.140625 C 1.359375 -13.035156 1.59375 -14.898438 1.8125 -16.734375 L 2.15625 -19.46875 C 1.875 -19.632812 1.34375 -19.75 0.5625 -19.8125 C 0.09375 -19.84375 -0.390625 -19.84375 -0.890625 -19.8125 C -2.035156 -19.8125 -2.847656 -19.847656 -3.328125 -19.921875 C -3.421875 -19.941406 -3.550781 -19.953125 -3.71875 -19.953125 C -3.894531 -19.953125 -4.070312 -19.953125 -4.25 -19.953125 C -4.425781 -19.953125 -4.601562 -19.953125 -4.78125 -19.953125 C -4.957031 -19.953125 -5.097656 -19.96875 -5.203125 -20 C -5.316406 -20.039062 -5.382812 -20.097656 -5.40625 -20.171875 C -5.445312 -20.546875 -5.296875 -20.816406 -4.953125 -20.984375 C -4.921875 -21.003906 -4.757812 -21.101562 -4.46875 -21.28125 C -4.175781 -21.457031 -3.867188 -21.628906 -3.546875 -21.796875 C -3.234375 -21.960938 -2.804688 -22.109375 -2.265625 -22.234375 C -1.722656 -22.367188 -1.164062 -22.421875 -0.59375 -22.390625 C 1.164062 -22.234375 2.265625 -22.179688 2.703125 -22.234375 C 3.140625 -22.296875 3.566406 -22.550781 3.984375 -23 C 4.628906 -23.582031 5.476562 -25.125 6.53125 -27.625 C 6.582031 -27.71875 6.65625 -27.859375 6.75 -28.046875 C 7.144531 -28.992188 7.472656 -29.738281 7.734375 -30.28125 C 7.992188 -30.820312 8.359375 -31.507812 8.828125 -32.34375 C 9.296875 -33.175781 9.8125 -33.875 10.375 -34.4375 C 10.945312 -35.007812 11.539062 -35.445312 12.15625 -35.75 C 14.132812 -36.695312 15.125 -36.640625 15.125 -35.578125 C 15.125 -34.960938 14.664062 -33.582031 13.75 -31.4375 C 13.488281 -30.851562 13.296875 -30.394531 13.171875 -30.0625 C 13.035156 -29.632812 12.921875 -29.125 12.828125 -28.53125 C 12.734375 -27.945312 12.507812 -27.363281 12.15625 -26.78125 C 11.59375 -25.789062 11.117188 -24.953125 10.734375 -24.265625 C 10.285156 -23.460938 10.125 -22.992188 10.25 -22.859375 C 10.363281 -22.671875 11.550781 -22.457031 13.8125 -22.21875 C 15.394531 -22.050781 16.351562 -21.910156 16.6875 -21.796875 C 17.03125 -21.679688 17.179688 -21.457031 17.140625 -21.125 C 17.085938 -20.675781 16.828125 -20.488281 16.359375 -20.5625 C 16.171875 -20.582031 15.789062 -20.59375 15.21875 -20.59375 C 14.65625 -20.570312 14.019531 -20.535156 13.3125 -20.484375 C 12.613281 -20.441406 11.882812 -20.375 11.125 -20.28125 C 10.394531 -20.1875 9.785156 -20.113281 9.296875 -20.0625 C 9.035156 -20.019531 8.691406 -19.265625 8.265625 -17.796875 C 7.835938 -16.335938 7.367188 -14.566406 6.859375 -12.484375 C 6.359375 -10.398438 5.992188 -9.003906 5.765625 -8.296875 C 4.554688 -4.691406 4.707031 -2.222656 6.21875 -0.890625 C 6.90625 -0.273438 7.539062 0.0195312 8.125 0 C 8.476562 0 8.867188 -0.128906 9.296875 -0.390625 C 9.359375 -0.484375 9.597656 -0.625 10.015625 -0.8125 C 10.429688 -1 10.851562 -1.164062 11.28125 -1.3125 C 11.71875 -1.46875 12.164062 -1.628906 12.625 -1.796875 C 13.082031 -1.960938 13.328125 -2.046875 13.359375 -2.046875 C 15.242188 -2.796875 16.757812 -3.539062 17.90625 -4.28125 Z M 17.90625 -4.28125 "/></g></g></g><g fill="#b0c89f" fill-opacity="1"><g transform="translate(297.124639, 56.965439)"><g><path d="M 8.4375 -21.4375 C 7.78125 -21.28125 7.132812 -21.519531 6.5 -22.15625 C 6.050781 -22.601562 5.816406 -22.894531 5.796875 -23.03125 C 5.773438 -23.175781 5.9375 -23.390625 6.28125 -23.671875 C 6.78125 -24.023438 7.410156 -24.203125 8.171875 -24.203125 C 8.941406 -24.203125 9.46875 -24.023438 9.75 -23.671875 C 10.050781 -23.265625 10.066406 -22.828125 9.796875 -22.359375 C 9.523438 -21.890625 9.070312 -21.582031 8.4375 -21.4375 Z M 14.734375 -4.515625 C 14.898438 -4.234375 14.90625 -3.960938 14.75 -3.703125 C 14.59375 -3.453125 14.160156 -3.03125 13.453125 -2.4375 C 12.347656 -1.5 11.039062 -0.640625 9.53125 0.140625 C 8.40625 0.703125 7.234375 0.929688 6.015625 0.828125 C 4.804688 0.722656 3.664062 0.378906 2.59375 -0.203125 C 1.519531 -0.796875 0.597656 -1.566406 -0.171875 -2.515625 C -1.285156 -3.828125 -1.617188 -5.578125 -1.171875 -7.765625 C -1.117188 -7.929688 -1.019531 -8.5 -0.875 -9.46875 C -0.738281 -10.4375 -0.59375 -11.289062 -0.4375 -12.03125 C -0.289062 -12.769531 -0.117188 -13.257812 0.078125 -13.5 C 0.285156 -13.757812 0.628906 -13.9375 1.109375 -14.03125 C 1.597656 -14.125 2.097656 -14.128906 2.609375 -14.046875 C 3.128906 -13.960938 3.625 -13.804688 4.09375 -13.578125 C 4.5625 -13.359375 4.882812 -13.0625 5.0625 -12.6875 C 5.238281 -12.3125 5.234375 -11.882812 5.046875 -11.40625 C 4.503906 -10.28125 4.234375 -9.492188 4.234375 -9.046875 C 4.234375 -8.617188 4 -8.085938 3.53125 -7.453125 C 3.132812 -6.984375 2.894531 -6.410156 2.8125 -5.734375 C 2.726562 -5.066406 2.835938 -4.628906 3.140625 -4.421875 C 3.398438 -4.328125 3.53125 -4.03125 3.53125 -3.53125 C 3.53125 -3.101562 3.835938 -2.617188 4.453125 -2.078125 C 4.878906 -1.679688 5.210938 -1.457031 5.453125 -1.40625 C 5.703125 -1.363281 6.15625 -1.425781 6.8125 -1.59375 C 7.78125 -1.945312 9.019531 -2.664062 10.53125 -3.75 C 11.726562 -4.613281 12.640625 -5.101562 13.265625 -5.21875 C 13.890625 -5.34375 14.378906 -5.109375 14.734375 -4.515625 Z M 14.734375 -4.515625 "/></g></g></g><g fill="#b0c89f" fill-opacity="1"><g transform="translate(308.901558, 56.965439)"><g><path d="M 20.671875 -6.78125 C 21.023438 -6.59375 21.203125 -6.179688 21.203125 -5.546875 C 21.222656 -4.816406 20.804688 -4.132812 19.953125 -3.5 C 19.648438 -3.28125 19.300781 -3.066406 18.90625 -2.859375 C 18.832031 -2.835938 18.75 -2.789062 18.65625 -2.71875 C 18.320312 -2.53125 18.039062 -2.425781 17.8125 -2.40625 C 17.101562 -2.351562 16.414062 -2.632812 15.75 -3.25 C 15.59375 -3.394531 15.414062 -3.640625 15.21875 -3.984375 L 15.125 -4.171875 C 14.90625 -4.523438 14.703125 -4.75 14.515625 -4.84375 C 14.328125 -4.9375 14.09375 -4.910156 13.8125 -4.765625 C 13.457031 -4.578125 13.054688 -4 12.609375 -3.03125 C 12.398438 -2.539062 12.222656 -2.203125 12.078125 -2.015625 C 11.628906 -1.359375 11.242188 -0.984375 10.921875 -0.890625 C 10.492188 -0.671875 9.914062 -0.335938 9.1875 0.109375 C 8.289062 0.648438 7.441406 0.941406 6.640625 0.984375 C 5.722656 1.054688 5.039062 1.148438 4.59375 1.265625 C 4.476562 1.296875 4.359375 1.3125 4.234375 1.3125 C 3.972656 1.3125 3.75 1.265625 3.5625 1.171875 C 3.28125 1.046875 2.867188 0.726562 2.328125 0.21875 C 1.742188 -0.320312 1.34375 -0.800781 1.125 -1.21875 C 0.914062 -1.632812 0.707031 -2.359375 0.5 -3.390625 C 0.144531 -5.085938 0.0625 -6.445312 0.25 -7.46875 C 0.4375 -8.5 0.953125 -9.695312 1.796875 -11.0625 C 2.878906 -12.800781 3.90625 -14.0625 4.875 -14.84375 C 5.84375 -15.613281 7.03125 -16.164062 8.4375 -16.5 C 9.125 -16.632812 9.726562 -16.878906 10.25 -17.234375 C 11.070312 -17.773438 11.800781 -17.976562 12.4375 -17.84375 C 13.050781 -17.71875 13.757812 -17.234375 14.5625 -16.390625 C 14.976562 -15.921875 15.28125 -15.546875 15.46875 -15.265625 C 15.65625 -14.984375 15.785156 -14.710938 15.859375 -14.453125 C 15.929688 -14.191406 15.96875 -13.8125 15.96875 -13.3125 C 15.96875 -11.21875 16.039062 -9.59375 16.1875 -8.4375 C 16.25 -7.757812 16.40625 -7.238281 16.65625 -6.875 C 16.90625 -6.507812 17.335938 -6.066406 17.953125 -5.546875 L 18.046875 -5.609375 C 18.472656 -5.898438 18.78125 -6.125 18.96875 -6.28125 C 19.675781 -6.820312 20.242188 -6.988281 20.671875 -6.78125 Z M 12.5 -12.859375 C 12.5 -13.773438 12.40625 -14.28125 12.21875 -14.375 C 12.175781 -14.332031 12.128906 -14.273438 12.078125 -14.203125 C 11.960938 -13.992188 11.976562 -13.507812 12.125 -12.75 C 12.21875 -12.207031 12.3125 -11.867188 12.40625 -11.734375 C 12.46875 -11.921875 12.5 -12.296875 12.5 -12.859375 Z M 11.484375 -7.421875 C 11.578125 -7.960938 11.566406 -8.347656 11.453125 -8.578125 C 11.359375 -8.816406 11.0625 -9.1875 10.5625 -9.6875 C 9.78125 -10.4375 9.390625 -11.054688 9.390625 -11.546875 C 9.390625 -11.878906 9.285156 -12.269531 9.078125 -12.71875 C 8.867188 -13.164062 8.65625 -13.457031 8.4375 -13.59375 C 8.28125 -13.71875 8.140625 -13.78125 8.015625 -13.78125 C 7.921875 -13.78125 7.835938 -13.753906 7.765625 -13.703125 C 7.535156 -13.585938 7.054688 -13.15625 6.328125 -12.40625 C 5.691406 -11.769531 5.09375 -10.957031 4.53125 -9.96875 C 3.976562 -8.976562 3.578125 -8.046875 3.328125 -7.171875 C 3.066406 -6.347656 3.015625 -5.75 3.171875 -5.375 C 3.367188 -5.019531 3.476562 -4.414062 3.5 -3.5625 C 3.570312 -2.925781 3.664062 -2.457031 3.78125 -2.15625 C 3.894531 -1.894531 4.070312 -1.71875 4.3125 -1.625 C 4.570312 -1.507812 4.992188 -1.453125 5.578125 -1.453125 C 5.859375 -1.453125 6.09375 -1.460938 6.28125 -1.484375 C 6.476562 -1.484375 6.65625 -1.503906 6.8125 -1.546875 C 6.976562 -1.597656 7.132812 -1.660156 7.28125 -1.734375 C 7.445312 -1.828125 7.609375 -1.929688 7.765625 -2.046875 C 7.929688 -2.160156 8.132812 -2.316406 8.375 -2.515625 C 9.269531 -3.210938 9.773438 -3.773438 9.890625 -4.203125 C 10.035156 -4.648438 10.316406 -5.117188 10.734375 -5.609375 C 11.117188 -6.015625 11.367188 -6.617188 11.484375 -7.421875 Z M 11.484375 -7.421875 "/></g></g></g><g fill="#b0c89f" fill-opacity="1"><g transform="translate(328.09424, 56.965439)"><g><path d="M -1.453125 -4.875 C -1.078125 -5.507812 -0.347656 -6.960938 0.734375 -9.234375 C 1.816406 -11.503906 2.75 -13.101562 3.53125 -14.03125 C 3.644531 -14.1875 3.773438 -14.335938 3.921875 -14.484375 C 4.203125 -14.785156 4.585938 -15.015625 5.078125 -15.171875 C 5.578125 -15.328125 6.023438 -15.3125 6.421875 -15.125 C 6.566406 -15.03125 6.664062 -14.78125 6.71875 -14.375 C 6.78125 -13.976562 6.875 -13.769531 7 -13.75 C 7.164062 -13.71875 7.566406 -13.925781 8.203125 -14.375 C 9.285156 -15.132812 10.988281 -15.757812 13.3125 -16.25 C 14.257812 -16.488281 14.875 -16.582031 15.15625 -16.53125 C 15.4375 -16.488281 15.789062 -16.273438 16.21875 -15.890625 C 16.757812 -15.347656 17.039062 -14.6875 17.0625 -13.90625 C 17.082031 -13.132812 16.820312 -12.410156 16.28125 -11.734375 C 15.882812 -11.140625 15.367188 -9.96875 14.734375 -8.21875 C 14.097656 -6.476562 13.78125 -5.28125 13.78125 -4.625 C 13.78125 -4.15625 13.9375 -3.644531 14.25 -3.09375 C 14.570312 -2.539062 14.960938 -2.082031 15.421875 -1.71875 C 15.878906 -1.351562 16.296875 -1.171875 16.671875 -1.171875 C 17.234375 -1.171875 18.421875 -1.640625 20.234375 -2.578125 C 22.054688 -3.515625 23.484375 -4.410156 24.515625 -5.265625 C 25.296875 -5.847656 25.847656 -6.125 26.171875 -6.09375 C 26.503906 -6.0625 26.671875 -5.710938 26.671875 -5.046875 C 26.671875 -4.765625 26.546875 -4.441406 26.296875 -4.078125 C 26.054688 -3.710938 25.734375 -3.332031 25.328125 -2.9375 C 24.898438 -2.550781 24.40625 -2.164062 23.84375 -1.78125 C 23.28125 -1.394531 22.703125 -1.082031 22.109375 -0.84375 C 20.554688 -0.113281 19.441406 0.410156 18.765625 0.734375 C 17.585938 1.273438 16.539062 1.425781 15.625 1.1875 C 14.71875 0.957031 13.65625 0.234375 12.4375 -0.984375 C 11.445312 -1.972656 10.863281 -2.648438 10.6875 -3.015625 C 10.507812 -3.378906 10.421875 -4.082031 10.421875 -5.125 C 10.421875 -6.632812 10.691406 -8.203125 11.234375 -9.828125 C 11.703125 -11.453125 11.890625 -12.332031 11.796875 -12.46875 C 11.660156 -12.613281 10.707031 -11.851562 8.9375 -10.1875 C 7.164062 -8.53125 5.429688 -6.773438 3.734375 -4.921875 C 2.046875 -3.078125 1.203125 -2.015625 1.203125 -1.734375 C 1.203125 -1.492188 1.050781 -1.234375 0.75 -0.953125 C 0.457031 -0.671875 0.101562 -0.441406 -0.3125 -0.265625 C -0.738281 -0.0859375 -1.117188 -0.0351562 -1.453125 -0.109375 C -1.992188 -0.179688 -2.367188 -0.601562 -2.578125 -1.375 C -2.742188 -1.894531 -2.765625 -2.351562 -2.640625 -2.75 C -2.523438 -3.15625 -2.128906 -3.863281 -1.453125 -4.875 Z M -1.453125 -4.875 "/></g></g></g></g></g></svg>