<svg xmlns="http://www.w3.org/2000/svg" xmlns:xlink="http://www.w3.org/1999/xlink" width="500" zoomAndPan="magnify" viewBox="0 0 375 374.999991" height="500" preserveAspectRatio="xMidYMid meet" version="1.0"><defs><filter x="0%" y="0%" width="100%" height="100%" id="74d8191eb1"><feColorMatrix values="0 0 0 0 1 0 0 0 0 1 0 0 0 0 1 0 0 0 1 0" color-interpolation-filters="sRGB"/></filter><g/><clipPath id="05ea5b48a7"><path d="M 0.28125 0.71875 L 174 0.71875 L 174 86 L 0.28125 86 Z M 0.28125 0.71875 " clip-rule="nonzero"/></clipPath><mask id="9431f3d759"><g filter="url(#74d8191eb1)"><rect x="-87.5" width="540" fill="#000000" y="-226.499998" height="539.999987" fill-opacity="0.5"/></g></mask><clipPath id="f6a37a0b6b"><path d="M 0.28125 0.929688 L 172.929688 0.929688 L 172.929688 85.332031 L 0.28125 85.332031 Z M 0.28125 0.929688 " clip-rule="nonzero"/></clipPath><clipPath id="4a8d78926a"><rect x="0" width="174" y="0" height="86"/></clipPath><clipPath id="784b4d586c"><rect x="0" width="369" y="0" height="98"/></clipPath></defs><rect x="-37.5" width="450" fill="#ffffff" y="-37.499999" height="449.999989" fill-opacity="1"/><rect x="-37.5" width="450" fill="#ffffff" y="-37.499999" height="449.999989" fill-opacity="1"/><g transform="matrix(1, 0, 0, 1, 5, 144)"><g clip-path="url(#784b4d586c)"><g clip-path="url(#05ea5b48a7)"><g mask="url(#9431f3d759)"><g transform="matrix(1, 0, 0, 1, 0.000000000000000888, 0)"><g clip-path="url(#4a8d78926a)"><g clip-path="url(#f6a37a0b6b)"><path fill="#b0c89f" d="M 108.207031 1.621094 C 107.605469 1.980469 101.386719 6.609375 94.386719 11.894531 C 87.414062 17.183594 79.78125 23.042969 77.4375 24.9375 C 75.09375 26.828125 70.5 30.644531 67.222656 33.46875 C 63.949219 36.292969 58.628906 40.980469 55.445312 43.867188 C 52.257812 46.78125 46.878906 51.859375 43.515625 55.195312 C 40.121094 58.53125 37.175781 61.265625 36.933594 61.265625 C 36.632812 61.265625 36.605469 61.085938 36.84375 60.664062 C 37.023438 60.363281 38.707031 58.167969 40.628906 55.824219 C 42.554688 53.480469 46.730469 48.253906 49.976562 44.226562 C 53.191406 40.199219 57.488281 35.0625 59.53125 32.808594 C 61.574219 30.554688 66.410156 25.566406 70.289062 21.722656 C 74.195312 17.875 78.191406 13.820312 79.152344 12.675781 C 80.144531 11.566406 81.375 9.941406 81.917969 9.101562 C 82.457031 8.261719 82.90625 7.296875 82.878906 6.96875 C 82.878906 6.636719 82.609375 6.308594 82.277344 6.1875 C 81.945312 6.097656 81.015625 6.488281 79.992188 7.207031 C 79.0625 7.839844 76.296875 10.183594 73.863281 12.375 C 71.398438 14.570312 65.660156 19.5 61.0625 23.375 C 56.464844 27.25 50.636719 32.238281 48.113281 34.492188 C 45.589844 36.746094 40 41.882812 35.671875 45.941406 C 31.375 49.964844 25.90625 55.164062 23.5625 57.507812 C 21.191406 59.851562 16.203125 65.140625 12.445312 69.226562 C 8.71875 73.3125 4.785156 77.699219 3.703125 78.933594 C 2.621094 80.195312 1.386719 81.878906 0.96875 82.660156 C 0.246094 84.011719 0.246094 84.128906 0.789062 84.703125 C 1.328125 85.273438 1.386719 85.210938 2.46875 83.648438 C 3.101562 82.71875 4.214844 81.214844 4.964844 80.34375 C 5.714844 79.441406 10.101562 74.574219 14.730469 69.558594 C 19.507812 64.359375 26.75 56.96875 31.617188 52.371094 C 36.273438 47.953125 42.402344 42.214844 45.199219 39.628906 C 48.023438 37.074219 53.703125 32.089844 57.816406 28.601562 C 61.964844 25.117188 66.863281 20.941406 68.726562 19.289062 C 70.617188 17.636719 72.269531 16.402344 72.421875 16.523438 C 72.542969 16.671875 69.476562 20.007812 65.570312 23.945312 C 61.664062 27.882812 57.398438 32.328125 56.105469 33.832031 C 54.785156 35.332031 50.96875 39.992188 47.601562 44.199219 C 44.207031 48.375 40.03125 53.601562 38.257812 55.765625 C 36.515625 57.960938 33.960938 61.414062 32.609375 63.488281 C 31.226562 65.5625 29.875 67.785156 29.542969 68.445312 C 29.210938 69.078125 29.0625 69.828125 29.152344 70.039062 C 29.273438 70.277344 29.632812 70.488281 29.964844 70.488281 C 30.292969 70.488281 31.164062 69.859375 31.917969 69.078125 C 32.667969 68.296875 37.566406 63.519531 42.824219 58.410156 C 48.082031 53.332031 54.753906 47.023438 57.667969 44.378906 C 60.550781 41.761719 65.628906 37.316406 68.90625 34.492188 C 72.179688 31.699219 76.417969 28.152344 78.28125 26.621094 C 80.171875 25.117188 87.835938 19.226562 95.347656 13.546875 C 104.8125 6.367188 108.988281 3.390625 109.050781 3.78125 C 109.109375 4.082031 108.660156 5.136719 108.058594 6.125 C 107.398438 7.179688 101.777344 13.128906 94.476562 20.519531 C 87.625 27.460938 79.632812 35.8125 76.71875 39.121094 C 73.804688 42.394531 68.035156 49.066406 63.917969 53.933594 C 59.800781 58.832031 54.691406 64.960938 52.558594 67.574219 C 50.457031 70.21875 48.050781 73.492188 47.210938 74.90625 C 46.398438 76.320312 45.707031 77.820312 45.707031 78.242188 C 45.707031 78.660156 45.980469 79.082031 46.308594 79.203125 C 46.671875 79.324219 47.453125 79.023438 48.292969 78.453125 C 49.015625 77.941406 54.542969 72.59375 60.550781 66.554688 C 66.5625 60.511719 73.53125 53.691406 76.085938 51.347656 C 78.609375 49.035156 82.90625 45.1875 85.613281 42.84375 C 88.347656 40.472656 95.316406 34.582031 101.117188 29.714844 C 106.945312 24.847656 113.226562 19.617188 115.121094 18.117188 C 116.980469 16.582031 119.746094 14.449219 121.25 13.339844 C 122.75 12.226562 126.054688 9.914062 128.582031 8.171875 C 131.105469 6.425781 133.359375 4.984375 133.597656 5.015625 C 133.898438 5.015625 133.867188 5.316406 133.449219 6.097656 C 133.117188 6.667969 127.710938 12.316406 121.460938 18.625 C 115.210938 24.90625 107.308594 33.230469 103.910156 37.074219 C 100.515625 40.921875 97.03125 44.980469 96.1875 46.089844 C 95.316406 47.230469 94.445312 48.644531 94.207031 49.246094 C 93.875 50.148438 93.875 50.476562 94.234375 50.898438 C 94.445312 51.167969 94.835938 51.410156 95.078125 51.410156 C 95.316406 51.378906 96.28125 50.988281 97.210938 50.539062 C 98.140625 50.058594 101.328125 47.742188 104.273438 45.339844 C 107.246094 42.964844 111.421875 39.539062 113.585938 37.738281 C 115.71875 35.964844 120.257812 32.417969 123.621094 29.894531 C 127.019531 27.371094 132.007812 23.824219 134.710938 22.023438 C 137.445312 20.21875 140.691406 18.117188 141.953125 17.335938 C 143.214844 16.554688 144.324219 16.074219 144.445312 16.253906 C 144.535156 16.464844 144.085938 17.246094 143.453125 18.054688 C 142.824219 18.867188 139.667969 22.414062 136.421875 25.988281 C 133.207031 29.535156 129.753906 33.53125 128.761719 34.851562 C 127.769531 36.175781 126.175781 38.546875 125.214844 40.140625 C 124.253906 41.734375 123.441406 43.324219 123.441406 43.714844 C 123.441406 44.078125 123.621094 44.558594 123.863281 44.769531 C 124.105469 45.007812 124.765625 45.277344 125.335938 45.398438 C 125.996094 45.550781 127.078125 45.398438 128.398438 44.949219 C 129.542969 44.589844 131.617188 43.625 132.996094 42.84375 C 134.410156 42.035156 138.105469 39.75 141.199219 37.738281 C 144.296875 35.722656 149.976562 32.296875 153.820312 30.136719 C 157.667969 27.972656 163.554688 24.695312 166.921875 22.863281 C 171.847656 20.160156 173.082031 19.347656 173.171875 18.746094 C 173.230469 18.207031 173.050781 17.964844 172.660156 17.964844 C 172.332031 17.964844 168.214844 20.070312 163.527344 22.621094 C 158.839844 25.175781 152.917969 28.421875 150.394531 29.894531 C 147.871094 31.335938 143.125 34.25 139.820312 36.414062 C 136.542969 38.546875 132.398438 41.011719 130.625 41.914062 C 128.851562 42.816406 126.957031 43.535156 126.445312 43.535156 L 125.515625 43.535156 C 127.167969 40.5 128.460938 38.457031 129.453125 37.074219 C 130.472656 35.664062 132.9375 32.6875 134.949219 30.433594 C 136.992188 28.210938 140.210938 24.605469 142.164062 22.414062 C 144.085938 20.25 146.039062 17.726562 146.519531 16.765625 C 146.96875 15.832031 147.332031 14.691406 147.269531 14.210938 C 147.179688 13.609375 146.941406 13.339844 146.308594 13.277344 C 145.796875 13.21875 144.535156 13.699219 143.242188 14.421875 C 142.011719 15.109375 139.097656 16.914062 136.753906 18.417969 C 134.410156 19.917969 130.351562 22.683594 127.738281 24.574219 C 125.09375 26.4375 121.25 29.292969 119.207031 30.886719 C 117.132812 32.449219 113.375 35.484375 110.851562 37.558594 C 108.328125 39.660156 104.390625 42.84375 102.136719 44.679688 C 99.914062 46.480469 97.871094 47.984375 97.632812 47.984375 C 97.390625 47.984375 97.210938 47.894531 97.210938 47.804688 C 97.210938 47.714844 98.171875 46.511719 99.34375 45.128906 C 100.515625 43.746094 103.699219 40.109375 106.40625 37.015625 C 109.109375 33.949219 116.382812 26.378906 122.570312 20.1875 C 128.761719 14 134.351562 8.078125 135.039062 7.058594 C 135.730469 6.035156 136.394531 4.5625 136.542969 3.8125 C 136.722656 2.761719 136.664062 2.339844 136.242188 1.949219 C 135.761719 1.5 135.550781 1.53125 134.289062 2.25 C 133.476562 2.703125 131.164062 4.171875 129.089844 5.527344 C 127.019531 6.878906 122.722656 9.941406 119.535156 12.347656 C 116.351562 14.75 109.140625 20.550781 103.519531 25.238281 C 97.902344 29.953125 90.691406 36.023438 87.503906 38.757812 C 84.289062 41.464844 79.152344 46 76.058594 48.824219 C 72.960938 51.617188 66.109375 58.257812 60.824219 63.578125 C 55.503906 68.867188 51.117188 73.101562 51.027344 72.953125 C 50.9375 72.804688 52.347656 70.851562 54.152344 68.597656 C 55.957031 66.34375 60.824219 60.511719 64.9375 55.644531 C 69.054688 50.777344 74.613281 44.316406 77.257812 41.3125 C 79.933594 38.339844 83.988281 33.890625 86.304688 31.425781 C 88.617188 28.992188 94.445312 23.105469 99.253906 18.296875 C 104.902344 12.707031 108.539062 8.832031 109.441406 7.390625 C 110.25 6.1875 111.03125 4.59375 111.214844 3.902344 C 111.421875 3.09375 111.394531 2.3125 111.183594 1.769531 C 110.972656 1.230469 110.582031 0.929688 110.070312 0.929688 C 109.652344 0.929688 108.808594 1.230469 108.207031 1.621094 Z M 108.207031 1.621094 " fill-opacity="1" fill-rule="nonzero"/></g></g></g></g></g><g fill="#b0c89f" fill-opacity="1"><g transform="translate(68.729591, 83.230385)"><g><path d="M 17.4375 -3.59375 C 17.78125 -3.894531 18.082031 -4.015625 18.34375 -3.953125 C 18.601562 -3.898438 18.734375 -3.65625 18.734375 -3.21875 C 18.742188 -3.082031 18.710938 -2.941406 18.640625 -2.796875 C 18.578125 -2.660156 18.503906 -2.539062 18.421875 -2.4375 C 18.347656 -2.332031 18.234375 -2.210938 18.078125 -2.078125 C 17.929688 -1.941406 17.8125 -1.84375 17.71875 -1.78125 C 17.625 -1.71875 17.484375 -1.628906 17.296875 -1.515625 C 17.117188 -1.398438 17.015625 -1.328125 16.984375 -1.296875 C 16.609375 -1.046875 16.226562 -0.84375 15.84375 -0.6875 C 15.78125 -0.65625 15.664062 -0.59375 15.5 -0.5 C 15.34375 -0.40625 15.226562 -0.34375 15.15625 -0.3125 C 14.632812 -0.101562 14.25 0.015625 14 0.046875 C 12.664062 0.222656 11.753906 0.253906 11.265625 0.140625 C 10.785156 0.0234375 10.238281 -0.300781 9.625 -0.84375 C 9.25 -1.21875 8.984375 -1.5625 8.828125 -1.875 C 8.671875 -2.195312 8.546875 -2.625 8.453125 -3.15625 C 8.265625 -4.019531 8.078125 -4.457031 7.890625 -4.46875 C 7.742188 -4.46875 7.578125 -4.3125 7.390625 -4 C 7.140625 -3.539062 6.691406 -2.957031 6.046875 -2.25 C 5.398438 -1.550781 4.875 -1.0625 4.46875 -0.78125 C 4.1875 -0.59375 3.867188 -0.4375 3.515625 -0.3125 C 3.160156 -0.195312 2.78125 -0.117188 2.375 -0.078125 C 1.8125 -0.0234375 1.4375 -0.0195312 1.25 -0.0625 C 1.0625 -0.101562 0.890625 -0.25 0.734375 -0.5 C 0.242188 -1.257812 0.0703125 -2.40625 0.21875 -3.9375 C 0.375 -5.46875 0.796875 -6.769531 1.484375 -7.84375 C 1.890625 -8.4375 2.445312 -9.066406 3.15625 -9.734375 C 3.863281 -10.398438 4.613281 -10.953125 5.40625 -11.390625 C 5.914062 -11.691406 6.789062 -11.84375 8.03125 -11.84375 C 8.414062 -11.851562 8.738281 -11.910156 9 -12.015625 C 9.269531 -12.117188 9.492188 -12.273438 9.671875 -12.484375 C 9.847656 -12.691406 9.984375 -12.898438 10.078125 -13.109375 C 10.179688 -13.328125 10.316406 -13.613281 10.484375 -13.96875 C 10.648438 -14.320312 10.8125 -14.625 10.96875 -14.875 C 13.382812 -18.6875 14.6875 -20.734375 14.875 -21.015625 C 14.914062 -21.109375 15.007812 -21.269531 15.15625 -21.5 C 16.144531 -23.1875 16.875 -24.097656 17.34375 -24.234375 C 17.75 -24.359375 18.039062 -24.066406 18.21875 -23.359375 C 18.40625 -22.660156 18.320312 -21.832031 17.96875 -20.875 C 17.625 -19.914062 17.207031 -19.0625 16.71875 -18.3125 C 16.226562 -17.570312 15.632812 -16.71875 14.9375 -15.75 C 14.25 -14.789062 13.796875 -14.101562 13.578125 -13.6875 C 13.390625 -13.375 13.179688 -12.898438 12.953125 -12.265625 C 12.722656 -11.628906 12.5625 -11.203125 12.46875 -10.984375 C 11.101562 -8.023438 10.554688 -5.53125 10.828125 -3.5 C 10.921875 -2.75 11.113281 -2.210938 11.40625 -1.890625 C 11.695312 -1.566406 12.113281 -1.40625 12.65625 -1.40625 C 13.050781 -1.40625 13.554688 -1.492188 14.171875 -1.671875 C 14.398438 -1.742188 14.539062 -1.796875 14.59375 -1.828125 C 15.800781 -2.460938 16.75 -3.050781 17.4375 -3.59375 Z M 5.203125 -4.546875 C 7.429688 -7.367188 8.515625 -9.003906 8.453125 -9.453125 C 8.367188 -9.785156 8.0625 -9.945312 7.53125 -9.9375 C 7.007812 -9.9375 6.507812 -9.757812 6.03125 -9.40625 C 5.425781 -9 4.765625 -8.394531 4.046875 -7.59375 C 3.335938 -6.800781 2.882812 -6.160156 2.6875 -5.671875 C 2.445312 -5.148438 2.328125 -4.503906 2.328125 -3.734375 C 2.328125 -2.785156 2.515625 -2.332031 2.890625 -2.375 C 3.328125 -2.425781 4.097656 -3.148438 5.203125 -4.546875 Z M 5.203125 -4.546875 "/></g></g></g><g fill="#b0c89f" fill-opacity="1"><g transform="translate(86.14293, 83.230385)"><g><path d="M 5.625 -14.28125 C 5.1875 -14.175781 4.753906 -14.332031 4.328125 -14.75 C 4.023438 -15.050781 3.863281 -15.25 3.84375 -15.34375 C 3.832031 -15.4375 3.945312 -15.578125 4.1875 -15.765625 C 4.519531 -16.003906 4.941406 -16.125 5.453125 -16.125 C 5.960938 -16.125 6.3125 -16.003906 6.5 -15.765625 C 6.695312 -15.492188 6.707031 -15.203125 6.53125 -14.890625 C 6.351562 -14.578125 6.050781 -14.375 5.625 -14.28125 Z M 9.8125 -3.015625 C 9.925781 -2.828125 9.929688 -2.644531 9.828125 -2.46875 C 9.722656 -2.300781 9.4375 -2.019531 8.96875 -1.625 C 8.226562 -1 7.359375 -0.425781 6.359375 0.09375 C 5.597656 0.46875 4.8125 0.617188 4 0.546875 C 3.195312 0.484375 2.4375 0.253906 1.71875 -0.140625 C 1.007812 -0.535156 0.394531 -1.046875 -0.125 -1.671875 C -0.851562 -2.546875 -1.070312 -3.710938 -0.78125 -5.171875 C -0.75 -5.285156 -0.6875 -5.660156 -0.59375 -6.296875 C -0.5 -6.941406 -0.398438 -7.507812 -0.296875 -8 C -0.191406 -8.5 -0.078125 -8.828125 0.046875 -8.984375 C 0.191406 -9.160156 0.421875 -9.28125 0.734375 -9.34375 C 1.054688 -9.40625 1.390625 -9.40625 1.734375 -9.34375 C 2.085938 -9.289062 2.421875 -9.191406 2.734375 -9.046875 C 3.046875 -8.898438 3.257812 -8.703125 3.375 -8.453125 C 3.488281 -8.203125 3.484375 -7.914062 3.359375 -7.59375 C 3.003906 -6.84375 2.828125 -6.320312 2.828125 -6.03125 C 2.828125 -5.738281 2.671875 -5.382812 2.359375 -4.96875 C 2.085938 -4.65625 1.921875 -4.273438 1.859375 -3.828125 C 1.804688 -3.378906 1.882812 -3.082031 2.09375 -2.9375 C 2.269531 -2.875 2.359375 -2.679688 2.359375 -2.359375 C 2.359375 -2.066406 2.5625 -1.742188 2.96875 -1.390625 C 3.25 -1.117188 3.46875 -0.96875 3.625 -0.9375 C 3.789062 -0.90625 4.097656 -0.945312 4.546875 -1.0625 C 5.179688 -1.289062 6.003906 -1.769531 7.015625 -2.5 C 7.816406 -3.070312 8.421875 -3.394531 8.828125 -3.46875 C 9.242188 -3.550781 9.570312 -3.398438 9.8125 -3.015625 Z M 9.8125 -3.015625 "/></g></g></g><g fill="#b0c89f" fill-opacity="1"><g transform="translate(93.985396, 83.230385)"><g><path d="M 11.484375 -3.0625 C 11.828125 -3.351562 12.128906 -3.472656 12.390625 -3.421875 C 12.648438 -3.367188 12.78125 -3.113281 12.78125 -2.65625 C 12.78125 -2.53125 12.75 -2.394531 12.6875 -2.25 C 12.625 -2.113281 12.550781 -1.992188 12.46875 -1.890625 C 12.394531 -1.785156 12.28125 -1.664062 12.125 -1.53125 C 11.96875 -1.40625 11.84375 -1.3125 11.75 -1.25 C 11.664062 -1.1875 11.53125 -1.09375 11.34375 -0.96875 C 11.164062 -0.851562 11.0625 -0.78125 11.03125 -0.75 C 10.65625 -0.5 10.265625 -0.296875 9.859375 -0.140625 C 9.816406 -0.109375 9.632812 -0.0078125 9.3125 0.15625 C 9 0.332031 8.660156 0.503906 8.296875 0.671875 C 7.941406 0.847656 7.625 0.984375 7.34375 1.078125 C 7 1.328125 6.550781 1.601562 6 1.90625 C 5.1875 2.363281 4.644531 2.894531 4.375 3.5 C 4.300781 3.65625 4.191406 3.863281 4.046875 4.125 C 3.921875 4.351562 3.769531 4.59375 3.59375 4.84375 C 3.4375 5.082031 3.257812 5.34375 3.0625 5.625 C 2.851562 5.925781 2.671875 6.191406 2.515625 6.421875 C 2.359375 6.660156 2.195312 6.890625 2.03125 7.109375 C 1.851562 7.335938 1.722656 7.507812 1.640625 7.625 C 1.535156 7.8125 1.1875 8.085938 0.59375 8.453125 C 0.0078125 8.828125 -0.578125 9.171875 -1.171875 9.484375 C -2.441406 10.109375 -3.242188 9.890625 -3.578125 8.828125 C -3.710938 8.367188 -3.78125 8.019531 -3.78125 7.78125 C -3.78125 7.65625 -3.753906 7.523438 -3.703125 7.390625 C -3.648438 7.265625 -3.59375 7.144531 -3.53125 7.03125 C -3.46875 6.925781 -3.375 6.8125 -3.25 6.6875 C -3.132812 6.5625 -3.035156 6.457031 -2.953125 6.375 C -2.867188 6.300781 -2.757812 6.203125 -2.625 6.078125 C -2.488281 5.953125 -2.390625 5.863281 -2.328125 5.8125 C -1.734375 5.226562 -0.929688 4.671875 0.078125 4.140625 C 0.359375 3.984375 0.769531 3.722656 1.3125 3.359375 C 2.039062 2.890625 2.46875 2.625 2.59375 2.5625 C 2.9375 2.375 3.363281 1.882812 3.875 1.09375 C 4.394531 0.3125 4.59375 -0.140625 4.46875 -0.265625 C 4.375 -0.335938 3.96875 -0.257812 3.25 -0.03125 C 1.320312 0.632812 0.0859375 -0.0625 -0.453125 -2.125 C -0.609375 -2.6875 -0.550781 -3.4375 -0.28125 -4.375 C -0.0078125 -5.3125 0.375 -6.148438 0.875 -6.890625 C 1.164062 -7.316406 1.476562 -7.722656 1.8125 -8.109375 C 2.15625 -8.503906 2.550781 -8.894531 3 -9.28125 C 3.445312 -9.664062 3.898438 -9.992188 4.359375 -10.265625 C 4.828125 -10.546875 5.328125 -10.75 5.859375 -10.875 C 6.390625 -11 6.898438 -11.015625 7.390625 -10.921875 C 7.953125 -10.828125 8.375 -10.601562 8.65625 -10.25 C 8.9375 -9.90625 9.082031 -9.515625 9.09375 -9.078125 C 9.101562 -8.640625 9.0625 -8.171875 8.96875 -7.671875 C 8.789062 -6.953125 8.582031 -6.257812 8.34375 -5.59375 C 8.101562 -4.9375 7.894531 -4.507812 7.71875 -4.3125 C 7.507812 -4.0625 7.40625 -3.851562 7.40625 -3.6875 C 7.40625 -3.550781 7.195312 -3.078125 6.78125 -2.265625 C 6.382812 -1.398438 6.1875 -0.796875 6.1875 -0.453125 C 6.1875 -0.304688 6.195312 -0.195312 6.21875 -0.125 C 6.257812 -0.195312 6.425781 -0.300781 6.71875 -0.4375 C 7.007812 -0.582031 7.363281 -0.738281 7.78125 -0.90625 C 8.195312 -1.082031 8.472656 -1.203125 8.609375 -1.265625 C 9.816406 -1.910156 10.773438 -2.507812 11.484375 -3.0625 Z M 2.3125 4.546875 C 2.601562 4.035156 2.648438 3.78125 2.453125 3.78125 C 2.148438 3.78125 1.582031 4.117188 0.75 4.796875 C -0.0820312 5.472656 -0.820312 6.179688 -1.46875 6.921875 C -2.125 7.671875 -2.378906 8.117188 -2.234375 8.265625 C -1.898438 8.578125 -1.21875 8.304688 -0.1875 7.453125 C 0.84375 6.609375 1.675781 5.640625 2.3125 4.546875 Z M 4.359375 -3.125 C 5.242188 -4.582031 5.6875 -5.398438 5.6875 -5.578125 C 5.6875 -5.921875 5.804688 -6.269531 6.046875 -6.625 C 6.285156 -6.976562 6.425781 -7.398438 6.46875 -7.890625 C 6.53125 -8.335938 6.46875 -8.59375 6.28125 -8.65625 C 6.082031 -8.71875 5.671875 -8.554688 5.046875 -8.171875 C 4.429688 -7.785156 4.019531 -7.445312 3.8125 -7.15625 C 3.75 -7.0625 3.578125 -6.898438 3.296875 -6.671875 C 3.023438 -6.441406 2.738281 -6.171875 2.4375 -5.859375 C 2.144531 -5.546875 1.925781 -5.234375 1.78125 -4.921875 C 1.269531 -3.816406 1.078125 -3.023438 1.203125 -2.546875 C 1.335938 -1.960938 1.578125 -1.632812 1.921875 -1.5625 C 2.273438 -1.488281 2.78125 -1.664062 3.4375 -2.09375 C 3.726562 -2.269531 4.035156 -2.613281 4.359375 -3.125 Z M 4.359375 -3.125 "/></g></g></g><g fill="#b0c89f" fill-opacity="1"><g transform="translate(105.00248, 83.230385)"><g><path d="M 5.625 -14.28125 C 5.1875 -14.175781 4.753906 -14.332031 4.328125 -14.75 C 4.023438 -15.050781 3.863281 -15.25 3.84375 -15.34375 C 3.832031 -15.4375 3.945312 -15.578125 4.1875 -15.765625 C 4.519531 -16.003906 4.941406 -16.125 5.453125 -16.125 C 5.960938 -16.125 6.3125 -16.003906 6.5 -15.765625 C 6.695312 -15.492188 6.707031 -15.203125 6.53125 -14.890625 C 6.351562 -14.578125 6.050781 -14.375 5.625 -14.28125 Z M 9.8125 -3.015625 C 9.925781 -2.828125 9.929688 -2.644531 9.828125 -2.46875 C 9.722656 -2.300781 9.4375 -2.019531 8.96875 -1.625 C 8.226562 -1 7.359375 -0.425781 6.359375 0.09375 C 5.597656 0.46875 4.8125 0.617188 4 0.546875 C 3.195312 0.484375 2.4375 0.253906 1.71875 -0.140625 C 1.007812 -0.535156 0.394531 -1.046875 -0.125 -1.671875 C -0.851562 -2.546875 -1.070312 -3.710938 -0.78125 -5.171875 C -0.75 -5.285156 -0.6875 -5.660156 -0.59375 -6.296875 C -0.5 -6.941406 -0.398438 -7.507812 -0.296875 -8 C -0.191406 -8.5 -0.078125 -8.828125 0.046875 -8.984375 C 0.191406 -9.160156 0.421875 -9.28125 0.734375 -9.34375 C 1.054688 -9.40625 1.390625 -9.40625 1.734375 -9.34375 C 2.085938 -9.289062 2.421875 -9.191406 2.734375 -9.046875 C 3.046875 -8.898438 3.257812 -8.703125 3.375 -8.453125 C 3.488281 -8.203125 3.484375 -7.914062 3.359375 -7.59375 C 3.003906 -6.84375 2.828125 -6.320312 2.828125 -6.03125 C 2.828125 -5.738281 2.671875 -5.382812 2.359375 -4.96875 C 2.085938 -4.65625 1.921875 -4.273438 1.859375 -3.828125 C 1.804688 -3.378906 1.882812 -3.082031 2.09375 -2.9375 C 2.269531 -2.875 2.359375 -2.679688 2.359375 -2.359375 C 2.359375 -2.066406 2.5625 -1.742188 2.96875 -1.390625 C 3.25 -1.117188 3.46875 -0.96875 3.625 -0.9375 C 3.789062 -0.90625 4.097656 -0.945312 4.546875 -1.0625 C 5.179688 -1.289062 6.003906 -1.769531 7.015625 -2.5 C 7.816406 -3.070312 8.421875 -3.394531 8.828125 -3.46875 C 9.242188 -3.550781 9.570312 -3.398438 9.8125 -3.015625 Z M 9.8125 -3.015625 "/></g></g></g><g fill="#b0c89f" fill-opacity="1"><g transform="translate(112.844947, 83.230385)"><g><path d="M 11.9375 -2.84375 C 12.289062 -3.09375 12.59375 -3.175781 12.84375 -3.09375 C 13.09375 -3.007812 13.203125 -2.75 13.171875 -2.3125 C 13.160156 -2.195312 13.125 -2.078125 13.0625 -1.953125 C 13.007812 -1.835938 12.9375 -1.734375 12.84375 -1.640625 C 12.75 -1.546875 12.660156 -1.457031 12.578125 -1.375 C 12.492188 -1.300781 12.378906 -1.222656 12.234375 -1.140625 C 12.097656 -1.054688 11.976562 -0.988281 11.875 -0.9375 C 11.78125 -0.894531 11.660156 -0.832031 11.515625 -0.75 C 11.367188 -0.675781 11.269531 -0.625 11.21875 -0.59375 C 10.832031 -0.382812 10.425781 -0.21875 10 -0.09375 C 9.988281 -0.0820312 9.796875 0.0351562 9.421875 0.265625 C 9.054688 0.492188 8.632812 0.742188 8.15625 1.015625 C 7.6875 1.296875 7.304688 1.484375 7.015625 1.578125 C 6.609375 1.710938 6.179688 1.820312 5.734375 1.90625 C 5.296875 1.988281 4.832031 2.039062 4.34375 2.0625 C 3.863281 2.082031 3.398438 2.03125 2.953125 1.90625 C 2.503906 1.78125 2.128906 1.59375 1.828125 1.34375 C 1.472656 1.007812 1.179688 0.554688 0.953125 -0.015625 C 0.722656 -0.585938 0.570312 -1.207031 0.5 -1.875 C 0.4375 -2.539062 0.40625 -3.160156 0.40625 -3.734375 C 0.40625 -4.316406 0.425781 -4.875 0.46875 -5.40625 C 0.488281 -5.488281 0.578125 -6.160156 0.734375 -7.421875 C 0.898438 -8.679688 1.0625 -9.921875 1.21875 -11.140625 L 1.4375 -12.96875 C 1.25 -13.070312 0.894531 -13.148438 0.375 -13.203125 C 0.0625 -13.210938 -0.257812 -13.210938 -0.59375 -13.203125 C -1.351562 -13.203125 -1.894531 -13.222656 -2.21875 -13.265625 C -2.28125 -13.285156 -2.367188 -13.296875 -2.484375 -13.296875 C -2.597656 -13.296875 -2.710938 -13.296875 -2.828125 -13.296875 C -2.953125 -13.296875 -3.070312 -13.296875 -3.1875 -13.296875 C -3.300781 -13.296875 -3.394531 -13.304688 -3.46875 -13.328125 C -3.539062 -13.347656 -3.582031 -13.382812 -3.59375 -13.4375 C -3.625 -13.6875 -3.523438 -13.867188 -3.296875 -13.984375 C -3.273438 -13.992188 -3.164062 -14.054688 -2.96875 -14.171875 C -2.78125 -14.296875 -2.578125 -14.410156 -2.359375 -14.515625 C -2.148438 -14.628906 -1.863281 -14.726562 -1.5 -14.8125 C -1.144531 -14.894531 -0.78125 -14.929688 -0.40625 -14.921875 C 0.769531 -14.804688 1.503906 -14.769531 1.796875 -14.8125 C 2.085938 -14.851562 2.375 -15.019531 2.65625 -15.3125 C 3.082031 -15.707031 3.648438 -16.738281 4.359375 -18.40625 C 4.390625 -18.46875 4.4375 -18.5625 4.5 -18.6875 C 4.757812 -19.3125 4.972656 -19.800781 5.140625 -20.15625 C 5.316406 -20.519531 5.5625 -20.976562 5.875 -21.53125 C 6.195312 -22.09375 6.546875 -22.5625 6.921875 -22.9375 C 7.296875 -23.320312 7.6875 -23.613281 8.09375 -23.8125 C 9.414062 -24.4375 10.078125 -24.398438 10.078125 -23.703125 C 10.078125 -23.285156 9.769531 -22.363281 9.15625 -20.9375 C 8.976562 -20.550781 8.851562 -20.25 8.78125 -20.03125 C 8.6875 -19.75 8.609375 -19.410156 8.546875 -19.015625 C 8.484375 -18.617188 8.332031 -18.226562 8.09375 -17.84375 C 7.71875 -17.175781 7.40625 -16.617188 7.15625 -16.171875 C 6.851562 -15.628906 6.742188 -15.3125 6.828125 -15.21875 C 6.898438 -15.09375 7.691406 -14.953125 9.203125 -14.796875 C 10.253906 -14.691406 10.890625 -14.597656 11.109375 -14.515625 C 11.335938 -14.441406 11.4375 -14.296875 11.40625 -14.078125 C 11.375 -13.773438 11.203125 -13.644531 10.890625 -13.6875 C 10.765625 -13.707031 10.515625 -13.71875 10.140625 -13.71875 C 9.765625 -13.695312 9.34375 -13.671875 8.875 -13.640625 C 8.40625 -13.609375 7.914062 -13.5625 7.40625 -13.5 C 6.925781 -13.4375 6.519531 -13.390625 6.1875 -13.359375 C 6.019531 -13.328125 5.789062 -12.828125 5.5 -11.859375 C 5.21875 -10.890625 4.910156 -9.707031 4.578125 -8.3125 C 4.242188 -6.925781 3.992188 -6 3.828125 -5.53125 C 3.035156 -3.125 3.140625 -1.476562 4.140625 -0.59375 C 4.597656 -0.175781 5.019531 0.0195312 5.40625 0 C 5.644531 0 5.90625 -0.0859375 6.1875 -0.265625 C 6.238281 -0.328125 6.398438 -0.421875 6.671875 -0.546875 C 6.941406 -0.671875 7.222656 -0.78125 7.515625 -0.875 C 7.804688 -0.976562 8.101562 -1.082031 8.40625 -1.1875 C 8.71875 -1.300781 8.878906 -1.359375 8.890625 -1.359375 C 10.148438 -1.867188 11.164062 -2.363281 11.9375 -2.84375 Z M 11.9375 -2.84375 "/></g></g></g><g fill="#b0c89f" fill-opacity="1"><g transform="translate(124.449916, 83.230385)"><g><path d="M 15.0625 -2.875 C 15.351562 -3.101562 15.601562 -3.195312 15.8125 -3.15625 C 16.03125 -3.125 16.140625 -2.921875 16.140625 -2.546875 C 16.140625 -2.460938 16.125 -2.378906 16.09375 -2.296875 C 16.0625 -2.210938 16.023438 -2.132812 15.984375 -2.0625 C 15.953125 -1.988281 15.894531 -1.910156 15.8125 -1.828125 C 15.738281 -1.753906 15.664062 -1.6875 15.59375 -1.625 C 15.53125 -1.5625 15.453125 -1.492188 15.359375 -1.421875 C 15.265625 -1.347656 15.1875 -1.289062 15.125 -1.25 C 15.0625 -1.21875 14.984375 -1.171875 14.890625 -1.109375 C 14.796875 -1.046875 14.726562 -1 14.6875 -0.96875 C 14.382812 -0.757812 14.070312 -0.585938 13.75 -0.453125 C 13.707031 -0.429688 13.515625 -0.335938 13.171875 -0.171875 L 13.0625 -0.03125 C 12.632812 0.382812 12.019531 0.640625 11.21875 0.734375 C 10.71875 0.796875 10.328125 0.796875 10.046875 0.734375 C 9.773438 0.679688 9.398438 0.546875 8.921875 0.328125 C 8.203125 -0.015625 7.722656 -0.296875 7.484375 -0.515625 C 7.328125 -0.640625 7.191406 -0.691406 7.078125 -0.671875 C 6.972656 -0.660156 6.769531 -0.539062 6.46875 -0.3125 C 5.507812 0.382812 4.367188 0.773438 3.046875 0.859375 C 1.722656 0.941406 0.859375 0.679688 0.453125 0.078125 C 0.203125 -0.316406 0.0859375 -1.078125 0.109375 -2.203125 C 0.128906 -3.335938 0.273438 -4.148438 0.546875 -4.640625 C 0.773438 -5.054688 0.953125 -5.367188 1.078125 -5.578125 C 1.222656 -5.785156 1.359375 -5.972656 1.484375 -6.140625 C 1.609375 -6.328125 1.820312 -6.601562 2.125 -6.96875 C 3.101562 -8.1875 3.878906 -9.023438 4.453125 -9.484375 C 4.890625 -9.828125 5.40625 -10.117188 6 -10.359375 C 6.59375 -10.609375 7.210938 -10.769531 7.859375 -10.84375 C 8.515625 -10.925781 9.09375 -10.84375 9.59375 -10.59375 C 10.207031 -10.28125 10.582031 -9.742188 10.71875 -8.984375 C 10.863281 -8.222656 10.847656 -7.484375 10.671875 -6.765625 C 10.503906 -6.046875 10.265625 -5.375 9.953125 -4.75 C 9.679688 -4.15625 9.476562 -3.503906 9.34375 -2.796875 C 9.21875 -2.085938 9.222656 -1.625 9.359375 -1.40625 C 9.660156 -0.8125 10.644531 -0.773438 12.3125 -1.296875 C 12.375 -1.304688 12.4375 -1.3125 12.5 -1.3125 C 12.59375 -1.34375 12.660156 -1.375 12.703125 -1.40625 C 13.710938 -1.925781 14.5 -2.414062 15.0625 -2.875 Z M 7.953125 -7.296875 C 8.128906 -7.390625 8.222656 -7.46875 8.234375 -7.53125 C 8.253906 -7.59375 8.21875 -7.671875 8.125 -7.765625 C 7.9375 -7.972656 7.664062 -8.109375 7.3125 -8.171875 C 6.96875 -8.234375 6.632812 -8.21875 6.3125 -8.125 C 5.976562 -8.039062 5.476562 -7.722656 4.8125 -7.171875 C 4.144531 -6.628906 3.691406 -6.160156 3.453125 -5.765625 C 3.140625 -5.304688 2.875 -4.898438 2.65625 -4.546875 C 2.394531 -4.171875 2.21875 -3.617188 2.125 -2.890625 C 2.03125 -2.171875 2.066406 -1.703125 2.234375 -1.484375 C 2.390625 -1.296875 2.734375 -1.203125 3.265625 -1.203125 C 3.804688 -1.203125 4.3125 -1.285156 4.78125 -1.453125 C 5.226562 -1.671875 5.5625 -2.003906 5.78125 -2.453125 C 6.164062 -3.179688 6.472656 -3.773438 6.703125 -4.234375 C 7.109375 -4.941406 7.3125 -5.421875 7.3125 -5.671875 C 7.3125 -5.828125 7.378906 -5.988281 7.515625 -6.15625 C 7.648438 -6.320312 7.6875 -6.5 7.625 -6.6875 C 7.539062 -6.9375 7.648438 -7.140625 7.953125 -7.296875 Z M 7.953125 -7.296875 "/></g></g></g><g fill="#b0c89f" fill-opacity="1"><g transform="translate(139.147195, 83.230385)"><g><path d="M 3.828125 -7.90625 C 3.316406 -7.28125 2.875 -6.691406 2.5 -6.140625 C 2.113281 -5.585938 1.941406 -5.242188 1.984375 -5.109375 C 1.984375 -4.859375 2.203125 -4.285156 2.640625 -3.390625 C 3.171875 -2.367188 3.789062 -1.859375 4.5 -1.859375 C 4.632812 -1.859375 4.773438 -1.875 4.921875 -1.90625 C 5.078125 -1.9375 5.265625 -1.988281 5.484375 -2.0625 C 5.710938 -2.144531 5.863281 -2.195312 5.9375 -2.21875 C 6.101562 -2.257812 6.382812 -2.398438 6.78125 -2.640625 C 7.257812 -2.929688 7.722656 -3.25 8.171875 -3.59375 C 8.515625 -3.894531 8.8125 -4.015625 9.0625 -3.953125 C 9.320312 -3.898438 9.460938 -3.65625 9.484375 -3.21875 C 9.484375 -3.082031 9.445312 -2.941406 9.375 -2.796875 C 9.300781 -2.660156 9.222656 -2.539062 9.140625 -2.4375 C 9.066406 -2.332031 8.957031 -2.210938 8.8125 -2.078125 C 8.664062 -1.941406 8.546875 -1.84375 8.453125 -1.78125 C 8.359375 -1.71875 8.222656 -1.628906 8.046875 -1.515625 C 7.867188 -1.398438 7.757812 -1.328125 7.71875 -1.296875 C 7.59375 -1.210938 7.40625 -1.09375 7.15625 -0.9375 C 6.90625 -0.78125 6.71875 -0.664062 6.59375 -0.59375 C 6.050781 -0.226562 5.507812 -0.015625 4.96875 0.046875 C 4.4375 0.128906 4.035156 0.132812 3.765625 0.0625 C 3.492188 -0.0078125 3.101562 -0.21875 2.59375 -0.5625 C 1.925781 -1.019531 1.390625 -1.515625 0.984375 -2.046875 C 0.578125 -2.578125 0.300781 -3.085938 0.15625 -3.578125 C 0.0195312 -4.066406 -0.046875 -4.628906 -0.046875 -5.265625 C -0.046875 -5.910156 -0.0078125 -6.488281 0.0625 -7 C 0.144531 -7.507812 0.242188 -8.132812 0.359375 -8.875 C 0.484375 -9.625 0.550781 -10.265625 0.5625 -10.796875 C 0.582031 -11.003906 0.601562 -11.21875 0.625 -11.4375 C 0.644531 -11.65625 0.664062 -11.851562 0.6875 -12.03125 C 0.71875 -12.21875 0.753906 -12.4375 0.796875 -12.6875 C 0.847656 -12.9375 0.882812 -13.128906 0.90625 -13.265625 C 0.925781 -13.410156 0.972656 -13.617188 1.046875 -13.890625 C 1.128906 -14.171875 1.179688 -14.363281 1.203125 -14.46875 C 1.234375 -14.582031 1.289062 -14.789062 1.375 -15.09375 C 1.457031 -15.394531 1.507812 -15.585938 1.53125 -15.671875 C 1.5625 -15.753906 1.625 -15.960938 1.71875 -16.296875 C 1.820312 -16.628906 1.882812 -16.828125 1.90625 -16.890625 C 2.082031 -17.472656 2.234375 -17.898438 2.359375 -18.171875 C 2.492188 -18.453125 2.679688 -18.726562 2.921875 -19 C 3.171875 -19.269531 3.390625 -19.492188 3.578125 -19.671875 C 3.773438 -19.847656 4.039062 -20.066406 4.375 -20.328125 C 4.5 -20.421875 4.710938 -20.59375 5.015625 -20.84375 C 5.328125 -21.09375 5.550781 -21.269531 5.6875 -21.375 C 5.832031 -21.476562 6.023438 -21.617188 6.265625 -21.796875 C 6.515625 -21.984375 6.75 -22.140625 6.96875 -22.265625 C 7.195312 -22.398438 7.445312 -22.53125 7.71875 -22.65625 C 8.3125 -22.957031 8.773438 -23.066406 9.109375 -22.984375 C 9.359375 -22.921875 9.566406 -22.785156 9.734375 -22.578125 C 9.910156 -22.367188 10.03125 -22.128906 10.09375 -21.859375 C 10.144531 -21.671875 10.179688 -21.476562 10.203125 -21.28125 C 10.222656 -21.082031 10.222656 -20.867188 10.203125 -20.640625 C 10.191406 -20.421875 10.179688 -20.234375 10.171875 -20.078125 C 10.171875 -19.921875 10.140625 -19.707031 10.078125 -19.4375 C 10.015625 -19.164062 9.96875 -18.972656 9.9375 -18.859375 C 9.914062 -18.742188 9.851562 -18.539062 9.75 -18.25 C 9.644531 -17.957031 9.582031 -17.769531 9.5625 -17.6875 C 9.539062 -17.613281 9.46875 -17.414062 9.34375 -17.09375 C 9.226562 -16.769531 9.164062 -16.585938 9.15625 -16.546875 C 8.757812 -15.492188 8.445312 -14.800781 8.21875 -14.46875 C 8.0625 -14.25 7.601562 -13.425781 6.84375 -12 C 6.070312 -10.570312 5.539062 -9.71875 5.25 -9.4375 C 4.820312 -9.039062 4.347656 -8.53125 3.828125 -7.90625 Z M 3.53125 -13.625 C 3.351562 -13.46875 3.148438 -12.929688 2.921875 -12.015625 C 2.703125 -11.109375 2.660156 -10.585938 2.796875 -10.453125 C 2.878906 -10.390625 3.007812 -10.453125 3.1875 -10.640625 C 3.363281 -10.835938 3.582031 -11.144531 3.84375 -11.5625 C 4.101562 -11.976562 4.359375 -12.476562 4.609375 -13.0625 C 5.128906 -14.09375 5.390625 -14.65625 5.390625 -14.75 C 5.390625 -14.800781 5.632812 -15.335938 6.125 -16.359375 C 6.601562 -17.359375 6.84375 -17.96875 6.84375 -18.1875 C 6.84375 -18.644531 6.640625 -18.691406 6.234375 -18.328125 C 5.960938 -18.128906 5.703125 -17.804688 5.453125 -17.359375 C 5.066406 -16.640625 4.703125 -16.0625 4.359375 -15.625 C 4.035156 -15.21875 3.875 -14.832031 3.875 -14.46875 C 3.875 -14.125 3.757812 -13.84375 3.53125 -13.625 Z M 3.53125 -13.625 "/></g></g></g><g fill="#b0c89f" fill-opacity="1"><g transform="translate(147.130758, 83.230385)"><g/></g></g><g fill="#b0c89f" fill-opacity="1"><g transform="translate(157.86565, 83.230385)"><g><path d="M 15.0625 -2.875 C 15.351562 -3.101562 15.601562 -3.195312 15.8125 -3.15625 C 16.03125 -3.125 16.140625 -2.921875 16.140625 -2.546875 C 16.140625 -2.460938 16.125 -2.378906 16.09375 -2.296875 C 16.0625 -2.210938 16.023438 -2.132812 15.984375 -2.0625 C 15.953125 -1.988281 15.894531 -1.910156 15.8125 -1.828125 C 15.738281 -1.753906 15.664062 -1.6875 15.59375 -1.625 C 15.53125 -1.5625 15.453125 -1.492188 15.359375 -1.421875 C 15.265625 -1.347656 15.1875 -1.289062 15.125 -1.25 C 15.0625 -1.21875 14.984375 -1.171875 14.890625 -1.109375 C 14.796875 -1.046875 14.726562 -1 14.6875 -0.96875 C 14.382812 -0.757812 14.070312 -0.585938 13.75 -0.453125 C 13.707031 -0.429688 13.515625 -0.335938 13.171875 -0.171875 L 13.0625 -0.03125 C 12.632812 0.382812 12.019531 0.640625 11.21875 0.734375 C 10.71875 0.796875 10.328125 0.796875 10.046875 0.734375 C 9.773438 0.679688 9.398438 0.546875 8.921875 0.328125 C 8.203125 -0.015625 7.722656 -0.296875 7.484375 -0.515625 C 7.328125 -0.640625 7.191406 -0.691406 7.078125 -0.671875 C 6.972656 -0.660156 6.769531 -0.539062 6.46875 -0.3125 C 5.507812 0.382812 4.367188 0.773438 3.046875 0.859375 C 1.722656 0.941406 0.859375 0.679688 0.453125 0.078125 C 0.203125 -0.316406 0.0859375 -1.078125 0.109375 -2.203125 C 0.128906 -3.335938 0.273438 -4.148438 0.546875 -4.640625 C 0.773438 -5.054688 0.953125 -5.367188 1.078125 -5.578125 C 1.222656 -5.785156 1.359375 -5.972656 1.484375 -6.140625 C 1.609375 -6.328125 1.820312 -6.601562 2.125 -6.96875 C 3.101562 -8.1875 3.878906 -9.023438 4.453125 -9.484375 C 4.890625 -9.828125 5.40625 -10.117188 6 -10.359375 C 6.59375 -10.609375 7.210938 -10.769531 7.859375 -10.84375 C 8.515625 -10.925781 9.09375 -10.84375 9.59375 -10.59375 C 10.207031 -10.28125 10.582031 -9.742188 10.71875 -8.984375 C 10.863281 -8.222656 10.847656 -7.484375 10.671875 -6.765625 C 10.503906 -6.046875 10.265625 -5.375 9.953125 -4.75 C 9.679688 -4.15625 9.476562 -3.503906 9.34375 -2.796875 C 9.21875 -2.085938 9.222656 -1.625 9.359375 -1.40625 C 9.660156 -0.8125 10.644531 -0.773438 12.3125 -1.296875 C 12.375 -1.304688 12.4375 -1.3125 12.5 -1.3125 C 12.59375 -1.34375 12.660156 -1.375 12.703125 -1.40625 C 13.710938 -1.925781 14.5 -2.414062 15.0625 -2.875 Z M 7.953125 -7.296875 C 8.128906 -7.390625 8.222656 -7.46875 8.234375 -7.53125 C 8.253906 -7.59375 8.21875 -7.671875 8.125 -7.765625 C 7.9375 -7.972656 7.664062 -8.109375 7.3125 -8.171875 C 6.96875 -8.234375 6.632812 -8.21875 6.3125 -8.125 C 5.976562 -8.039062 5.476562 -7.722656 4.8125 -7.171875 C 4.144531 -6.628906 3.691406 -6.160156 3.453125 -5.765625 C 3.140625 -5.304688 2.875 -4.898438 2.65625 -4.546875 C 2.394531 -4.171875 2.21875 -3.617188 2.125 -2.890625 C 2.03125 -2.171875 2.066406 -1.703125 2.234375 -1.484375 C 2.390625 -1.296875 2.734375 -1.203125 3.265625 -1.203125 C 3.804688 -1.203125 4.3125 -1.285156 4.78125 -1.453125 C 5.226562 -1.671875 5.5625 -2.003906 5.78125 -2.453125 C 6.164062 -3.179688 6.472656 -3.773438 6.703125 -4.234375 C 7.109375 -4.941406 7.3125 -5.421875 7.3125 -5.671875 C 7.3125 -5.828125 7.378906 -5.988281 7.515625 -6.15625 C 7.648438 -6.320312 7.6875 -6.5 7.625 -6.6875 C 7.539062 -6.9375 7.648438 -7.140625 7.953125 -7.296875 Z M 7.953125 -7.296875 "/></g></g></g><g fill="#b0c89f" fill-opacity="1"><g transform="translate(172.562929, 83.230385)"><g><path d="M 12.125 -4.453125 C 12.46875 -4.742188 12.765625 -4.863281 13.015625 -4.8125 C 13.273438 -4.757812 13.40625 -4.503906 13.40625 -4.046875 C 13.40625 -3.953125 13.390625 -3.847656 13.359375 -3.734375 C 13.328125 -3.628906 13.285156 -3.53125 13.234375 -3.4375 C 13.179688 -3.351562 13.109375 -3.265625 13.015625 -3.171875 C 12.929688 -3.078125 12.847656 -2.992188 12.765625 -2.921875 C 12.679688 -2.859375 12.582031 -2.785156 12.46875 -2.703125 C 12.363281 -2.628906 12.269531 -2.5625 12.1875 -2.5 C 12.113281 -2.445312 12.019531 -2.378906 11.90625 -2.296875 C 11.789062 -2.222656 11.710938 -2.171875 11.671875 -2.140625 C 11.296875 -1.890625 10.90625 -1.675781 10.5 -1.5 C 10.46875 -1.488281 10.390625 -1.453125 10.265625 -1.390625 C 9.835938 -0.953125 9.457031 -0.65625 9.125 -0.5 C 8.8125 -0.375 8.398438 -0.296875 7.890625 -0.265625 C 7.347656 -0.109375 6.976562 -0.125 6.78125 -0.3125 C 6.71875 -0.3125 6.53125 -0.328125 6.21875 -0.359375 C 5.914062 -0.390625 5.707031 -0.40625 5.59375 -0.40625 C 5.488281 -0.414062 5.320312 -0.421875 5.09375 -0.421875 C 4.863281 -0.421875 4.664062 -0.394531 4.5 -0.34375 C 4.34375 -0.300781 4.1875 -0.242188 4.03125 -0.171875 C 3.820312 -0.0351562 3.5625 0.0195312 3.25 0 C 2.9375 -0.0195312 2.394531 -0.0820312 1.625 -0.1875 C 1.070312 -0.269531 0.609375 -0.328125 0.234375 -0.359375 C 0.160156 -0.359375 0.078125 -0.359375 -0.015625 -0.359375 C -0.117188 -0.359375 -0.222656 -0.359375 -0.328125 -0.359375 C -0.441406 -0.367188 -0.53125 -0.398438 -0.59375 -0.453125 C -0.757812 -0.554688 -0.96875 -0.976562 -1.21875 -1.71875 C -1.363281 -2.144531 -1.453125 -2.582031 -1.484375 -3.03125 C -1.515625 -3.21875 -1.515625 -3.367188 -1.484375 -3.484375 C -1.398438 -3.878906 -1.273438 -4.125 -1.109375 -4.21875 C -1.046875 -4.25 -0.925781 -4.28125 -0.75 -4.3125 C -0.582031 -4.34375 -0.457031 -4.394531 -0.375 -4.46875 C -0.238281 -4.582031 -0.125 -4.765625 -0.03125 -5.015625 C 0.0703125 -5.273438 0.128906 -5.546875 0.140625 -5.828125 C 0.160156 -6.085938 0.1875 -6.253906 0.21875 -6.328125 C 0.28125 -6.421875 0.398438 -6.519531 0.578125 -6.625 C 0.753906 -6.738281 0.851562 -6.804688 0.875 -6.828125 C 1.0625 -6.984375 1.222656 -7.191406 1.359375 -7.453125 C 1.421875 -7.597656 1.546875 -8.039062 1.734375 -8.78125 C 1.910156 -9.351562 2.054688 -9.945312 2.171875 -10.5625 C 2.273438 -11.15625 2.351562 -11.664062 2.40625 -12.09375 C 2.476562 -13.0625 2.582031 -13.632812 2.71875 -13.8125 C 2.851562 -13.988281 3.101562 -14.070312 3.46875 -14.0625 C 3.84375 -14.050781 4.160156 -13.945312 4.421875 -13.75 C 4.546875 -13.664062 4.660156 -13.53125 4.765625 -13.34375 C 4.867188 -13.164062 4.941406 -13.003906 4.984375 -12.859375 C 5.035156 -12.722656 5.09375 -12.53125 5.15625 -12.28125 C 5.226562 -12.03125 5.28125 -11.867188 5.3125 -11.796875 C 5.59375 -10.941406 5.800781 -10.15625 5.9375 -9.4375 C 5.976562 -9.15625 6.03125 -8.742188 6.09375 -8.203125 C 6.15625 -7.660156 6.222656 -7.171875 6.296875 -6.734375 C 6.378906 -6.296875 6.492188 -5.882812 6.640625 -5.5 C 6.890625 -4.8125 6.972656 -4.191406 6.890625 -3.640625 C 6.847656 -3.296875 6.828125 -2.972656 6.828125 -2.671875 C 6.828125 -2.378906 6.921875 -2.140625 7.109375 -1.953125 C 7.304688 -1.765625 7.613281 -1.6875 8.03125 -1.71875 C 8.195312 -1.726562 8.363281 -1.765625 8.53125 -1.828125 C 8.707031 -1.890625 8.851562 -1.953125 8.96875 -2.015625 C 9.09375 -2.085938 9.242188 -2.191406 9.421875 -2.328125 C 9.597656 -2.472656 9.71875 -2.570312 9.78125 -2.625 C 9.851562 -2.675781 9.988281 -2.796875 10.1875 -2.984375 C 10.425781 -3.203125 10.789062 -3.488281 11.28125 -3.84375 C 11.78125 -4.195312 12.0625 -4.398438 12.125 -4.453125 Z M 3.53125 -2.84375 C 4.238281 -3 4.65625 -3.347656 4.78125 -3.890625 C 4.90625 -4.429688 4.769531 -5.304688 4.375 -6.515625 C 3.976562 -7.660156 3.734375 -8.234375 3.640625 -8.234375 C 3.535156 -8.234375 3.441406 -8.015625 3.359375 -7.578125 C 3.265625 -7.171875 3.148438 -6.875 3.015625 -6.6875 C 2.828125 -6.414062 2.523438 -5.84375 2.109375 -4.96875 C 1.703125 -4.101562 1.53125 -3.625 1.59375 -3.53125 C 1.675781 -3.414062 1.832031 -3.296875 2.0625 -3.171875 C 2.300781 -3.046875 2.554688 -2.953125 2.828125 -2.890625 C 3.109375 -2.828125 3.34375 -2.8125 3.53125 -2.84375 Z M 3.53125 -2.84375 "/></g></g></g><g fill="#b0c89f" fill-opacity="1"><g transform="translate(184.45009, 83.230385)"><g><path d="M 12.125 -4.453125 C 12.46875 -4.742188 12.765625 -4.863281 13.015625 -4.8125 C 13.273438 -4.757812 13.40625 -4.503906 13.40625 -4.046875 C 13.40625 -3.953125 13.390625 -3.847656 13.359375 -3.734375 C 13.328125 -3.628906 13.285156 -3.53125 13.234375 -3.4375 C 13.179688 -3.351562 13.109375 -3.265625 13.015625 -3.171875 C 12.929688 -3.078125 12.847656 -2.992188 12.765625 -2.921875 C 12.679688 -2.859375 12.582031 -2.785156 12.46875 -2.703125 C 12.363281 -2.628906 12.269531 -2.5625 12.1875 -2.5 C 12.113281 -2.445312 12.019531 -2.378906 11.90625 -2.296875 C 11.789062 -2.222656 11.710938 -2.171875 11.671875 -2.140625 C 11.296875 -1.890625 10.90625 -1.675781 10.5 -1.5 C 10.46875 -1.488281 10.390625 -1.453125 10.265625 -1.390625 C 9.835938 -0.953125 9.457031 -0.65625 9.125 -0.5 C 8.8125 -0.375 8.398438 -0.296875 7.890625 -0.265625 C 7.347656 -0.109375 6.976562 -0.125 6.78125 -0.3125 C 6.71875 -0.3125 6.53125 -0.328125 6.21875 -0.359375 C 5.914062 -0.390625 5.707031 -0.40625 5.59375 -0.40625 C 5.488281 -0.414062 5.320312 -0.421875 5.09375 -0.421875 C 4.863281 -0.421875 4.664062 -0.394531 4.5 -0.34375 C 4.34375 -0.300781 4.1875 -0.242188 4.03125 -0.171875 C 3.820312 -0.0351562 3.5625 0.0195312 3.25 0 C 2.9375 -0.0195312 2.394531 -0.0820312 1.625 -0.1875 C 1.070312 -0.269531 0.609375 -0.328125 0.234375 -0.359375 C 0.160156 -0.359375 0.078125 -0.359375 -0.015625 -0.359375 C -0.117188 -0.359375 -0.222656 -0.359375 -0.328125 -0.359375 C -0.441406 -0.367188 -0.53125 -0.398438 -0.59375 -0.453125 C -0.757812 -0.554688 -0.96875 -0.976562 -1.21875 -1.71875 C -1.363281 -2.144531 -1.453125 -2.582031 -1.484375 -3.03125 C -1.515625 -3.21875 -1.515625 -3.367188 -1.484375 -3.484375 C -1.398438 -3.878906 -1.273438 -4.125 -1.109375 -4.21875 C -1.046875 -4.25 -0.925781 -4.28125 -0.75 -4.3125 C -0.582031 -4.34375 -0.457031 -4.394531 -0.375 -4.46875 C -0.238281 -4.582031 -0.125 -4.765625 -0.03125 -5.015625 C 0.0703125 -5.273438 0.128906 -5.546875 0.140625 -5.828125 C 0.160156 -6.085938 0.1875 -6.253906 0.21875 -6.328125 C 0.28125 -6.421875 0.398438 -6.519531 0.578125 -6.625 C 0.753906 -6.738281 0.851562 -6.804688 0.875 -6.828125 C 1.0625 -6.984375 1.222656 -7.191406 1.359375 -7.453125 C 1.421875 -7.597656 1.546875 -8.039062 1.734375 -8.78125 C 1.910156 -9.351562 2.054688 -9.945312 2.171875 -10.5625 C 2.273438 -11.15625 2.351562 -11.664062 2.40625 -12.09375 C 2.476562 -13.0625 2.582031 -13.632812 2.71875 -13.8125 C 2.851562 -13.988281 3.101562 -14.070312 3.46875 -14.0625 C 3.84375 -14.050781 4.160156 -13.945312 4.421875 -13.75 C 4.546875 -13.664062 4.660156 -13.53125 4.765625 -13.34375 C 4.867188 -13.164062 4.941406 -13.003906 4.984375 -12.859375 C 5.035156 -12.722656 5.09375 -12.53125 5.15625 -12.28125 C 5.226562 -12.03125 5.28125 -11.867188 5.3125 -11.796875 C 5.59375 -10.941406 5.800781 -10.15625 5.9375 -9.4375 C 5.976562 -9.15625 6.03125 -8.742188 6.09375 -8.203125 C 6.15625 -7.660156 6.222656 -7.171875 6.296875 -6.734375 C 6.378906 -6.296875 6.492188 -5.882812 6.640625 -5.5 C 6.890625 -4.8125 6.972656 -4.191406 6.890625 -3.640625 C 6.847656 -3.296875 6.828125 -2.972656 6.828125 -2.671875 C 6.828125 -2.378906 6.921875 -2.140625 7.109375 -1.953125 C 7.304688 -1.765625 7.613281 -1.6875 8.03125 -1.71875 C 8.195312 -1.726562 8.363281 -1.765625 8.53125 -1.828125 C 8.707031 -1.890625 8.851562 -1.953125 8.96875 -2.015625 C 9.09375 -2.085938 9.242188 -2.191406 9.421875 -2.328125 C 9.597656 -2.472656 9.71875 -2.570312 9.78125 -2.625 C 9.851562 -2.675781 9.988281 -2.796875 10.1875 -2.984375 C 10.425781 -3.203125 10.789062 -3.488281 11.28125 -3.84375 C 11.78125 -4.195312 12.0625 -4.398438 12.125 -4.453125 Z M 3.53125 -2.84375 C 4.238281 -3 4.65625 -3.347656 4.78125 -3.890625 C 4.90625 -4.429688 4.769531 -5.304688 4.375 -6.515625 C 3.976562 -7.660156 3.734375 -8.234375 3.640625 -8.234375 C 3.535156 -8.234375 3.441406 -8.015625 3.359375 -7.578125 C 3.265625 -7.171875 3.148438 -6.875 3.015625 -6.6875 C 2.828125 -6.414062 2.523438 -5.84375 2.109375 -4.96875 C 1.703125 -4.101562 1.53125 -3.625 1.59375 -3.53125 C 1.675781 -3.414062 1.832031 -3.296875 2.0625 -3.171875 C 2.300781 -3.046875 2.554688 -2.953125 2.828125 -2.890625 C 3.109375 -2.828125 3.34375 -2.8125 3.53125 -2.84375 Z M 3.53125 -2.84375 "/></g></g></g><g fill="#b0c89f" fill-opacity="1"><g transform="translate(196.337252, 83.230385)"><g><path d="M 11.0625 -2.640625 C 11.40625 -2.921875 11.707031 -3.03125 11.96875 -2.96875 C 12.226562 -2.914062 12.359375 -2.671875 12.359375 -2.234375 C 12.367188 -2.097656 12.335938 -1.957031 12.265625 -1.8125 C 12.203125 -1.664062 12.128906 -1.539062 12.046875 -1.4375 C 11.972656 -1.34375 11.859375 -1.234375 11.703125 -1.109375 C 11.554688 -0.984375 11.4375 -0.890625 11.34375 -0.828125 C 11.25 -0.765625 11.109375 -0.671875 10.921875 -0.546875 C 10.742188 -0.429688 10.640625 -0.359375 10.609375 -0.328125 C 10.234375 -0.078125 9.847656 0.132812 9.453125 0.3125 C 9.421875 0.320312 9.378906 0.335938 9.328125 0.359375 C 9.273438 0.390625 9.21875 0.414062 9.15625 0.4375 C 9.09375 0.457031 9.03125 0.476562 8.96875 0.5 C 8.90625 0.53125 8.851562 0.550781 8.8125 0.5625 L 8.75 0.59375 C 7.789062 0.976562 6.765625 1.203125 5.671875 1.265625 C 4.546875 1.328125 3.722656 1.226562 3.203125 0.96875 C 3.140625 0.9375 2.882812 0.828125 2.4375 0.640625 C 2 0.453125 1.6875 0.285156 1.5 0.140625 C 1.144531 -0.0976562 0.800781 -0.609375 0.46875 -1.390625 C -0.144531 -2.796875 -0.453125 -4.039062 -0.453125 -5.125 C -0.453125 -5.789062 -0.332031 -6.65625 -0.09375 -7.71875 C -0.0820312 -7.78125 -0.0546875 -7.910156 -0.015625 -8.109375 C 0.0234375 -8.316406 0.0625 -8.472656 0.09375 -8.578125 C 0.125 -8.679688 0.160156 -8.820312 0.203125 -9 C 0.253906 -9.175781 0.300781 -9.328125 0.34375 -9.453125 C 0.394531 -9.578125 0.453125 -9.707031 0.515625 -9.84375 C 0.578125 -9.976562 0.640625 -10.101562 0.703125 -10.21875 C 1.035156 -10.664062 1.300781 -10.992188 1.5 -11.203125 C 2.351562 -12.078125 3.429688 -12.46875 4.734375 -12.375 C 6.078125 -12.269531 6.804688 -11.820312 6.921875 -11.03125 C 7.015625 -10.425781 6.976562 -9.796875 6.8125 -9.140625 C 6.644531 -8.492188 6.4375 -7.957031 6.1875 -7.53125 C 5.945312 -7.101562 5.613281 -6.550781 5.1875 -5.875 C 4.757812 -5.207031 4.453125 -4.691406 4.265625 -4.328125 C 3.566406 -3.023438 3.21875 -2.25 3.21875 -2 C 3.21875 -1.789062 3.414062 -1.5 3.8125 -1.125 C 4.0625 -0.894531 4.285156 -0.753906 4.484375 -0.703125 C 4.679688 -0.660156 5.035156 -0.6875 5.546875 -0.78125 C 6.367188 -0.882812 7.257812 -1.078125 8.21875 -1.359375 C 8.570312 -1.484375 9.09375 -1.695312 9.78125 -2 C 10.476562 -2.300781 10.90625 -2.515625 11.0625 -2.640625 Z M 1.921875 -4.3125 C 2.066406 -4.3125 2.460938 -4.921875 3.109375 -6.140625 C 3.734375 -7.367188 4.046875 -8.109375 4.046875 -8.359375 C 4.046875 -8.648438 3.882812 -8.835938 3.5625 -8.921875 C 3.238281 -9.015625 2.984375 -8.941406 2.796875 -8.703125 C 2.640625 -8.515625 2.484375 -8.234375 2.328125 -7.859375 C 2.171875 -7.484375 2.046875 -7.097656 1.953125 -6.703125 C 1.867188 -6.316406 1.796875 -5.941406 1.734375 -5.578125 C 1.671875 -5.210938 1.65625 -4.910156 1.6875 -4.671875 C 1.71875 -4.429688 1.796875 -4.3125 1.921875 -4.3125 Z M 1.921875 -4.3125 "/></g></g></g><g fill="#b0c89f" fill-opacity="1"><g transform="translate(206.931047, 83.230385)"><g><path d="M 11.9375 -2.84375 C 12.289062 -3.09375 12.59375 -3.175781 12.84375 -3.09375 C 13.09375 -3.007812 13.203125 -2.75 13.171875 -2.3125 C 13.160156 -2.195312 13.125 -2.078125 13.0625 -1.953125 C 13.007812 -1.835938 12.9375 -1.734375 12.84375 -1.640625 C 12.75 -1.546875 12.660156 -1.457031 12.578125 -1.375 C 12.492188 -1.300781 12.378906 -1.222656 12.234375 -1.140625 C 12.097656 -1.054688 11.976562 -0.988281 11.875 -0.9375 C 11.78125 -0.894531 11.660156 -0.832031 11.515625 -0.75 C 11.367188 -0.675781 11.269531 -0.625 11.21875 -0.59375 C 10.832031 -0.382812 10.425781 -0.21875 10 -0.09375 C 9.988281 -0.0820312 9.796875 0.0351562 9.421875 0.265625 C 9.054688 0.492188 8.632812 0.742188 8.15625 1.015625 C 7.6875 1.296875 7.304688 1.484375 7.015625 1.578125 C 6.609375 1.710938 6.179688 1.820312 5.734375 1.90625 C 5.296875 1.988281 4.832031 2.039062 4.34375 2.0625 C 3.863281 2.082031 3.398438 2.03125 2.953125 1.90625 C 2.503906 1.78125 2.128906 1.59375 1.828125 1.34375 C 1.472656 1.007812 1.179688 0.554688 0.953125 -0.015625 C 0.722656 -0.585938 0.570312 -1.207031 0.5 -1.875 C 0.4375 -2.539062 0.40625 -3.160156 0.40625 -3.734375 C 0.40625 -4.316406 0.425781 -4.875 0.46875 -5.40625 C 0.488281 -5.488281 0.578125 -6.160156 0.734375 -7.421875 C 0.898438 -8.679688 1.0625 -9.921875 1.21875 -11.140625 L 1.4375 -12.96875 C 1.25 -13.070312 0.894531 -13.148438 0.375 -13.203125 C 0.0625 -13.210938 -0.257812 -13.210938 -0.59375 -13.203125 C -1.351562 -13.203125 -1.894531 -13.222656 -2.21875 -13.265625 C -2.28125 -13.285156 -2.367188 -13.296875 -2.484375 -13.296875 C -2.597656 -13.296875 -2.710938 -13.296875 -2.828125 -13.296875 C -2.953125 -13.296875 -3.070312 -13.296875 -3.1875 -13.296875 C -3.300781 -13.296875 -3.394531 -13.304688 -3.46875 -13.328125 C -3.539062 -13.347656 -3.582031 -13.382812 -3.59375 -13.4375 C -3.625 -13.6875 -3.523438 -13.867188 -3.296875 -13.984375 C -3.273438 -13.992188 -3.164062 -14.054688 -2.96875 -14.171875 C -2.78125 -14.296875 -2.578125 -14.410156 -2.359375 -14.515625 C -2.148438 -14.628906 -1.863281 -14.726562 -1.5 -14.8125 C -1.144531 -14.894531 -0.78125 -14.929688 -0.40625 -14.921875 C 0.769531 -14.804688 1.503906 -14.769531 1.796875 -14.8125 C 2.085938 -14.851562 2.375 -15.019531 2.65625 -15.3125 C 3.082031 -15.707031 3.648438 -16.738281 4.359375 -18.40625 C 4.390625 -18.46875 4.4375 -18.5625 4.5 -18.6875 C 4.757812 -19.3125 4.972656 -19.800781 5.140625 -20.15625 C 5.316406 -20.519531 5.5625 -20.976562 5.875 -21.53125 C 6.195312 -22.09375 6.546875 -22.5625 6.921875 -22.9375 C 7.296875 -23.320312 7.6875 -23.613281 8.09375 -23.8125 C 9.414062 -24.4375 10.078125 -24.398438 10.078125 -23.703125 C 10.078125 -23.285156 9.769531 -22.363281 9.15625 -20.9375 C 8.976562 -20.550781 8.851562 -20.25 8.78125 -20.03125 C 8.6875 -19.75 8.609375 -19.410156 8.546875 -19.015625 C 8.484375 -18.617188 8.332031 -18.226562 8.09375 -17.84375 C 7.71875 -17.175781 7.40625 -16.617188 7.15625 -16.171875 C 6.851562 -15.628906 6.742188 -15.3125 6.828125 -15.21875 C 6.898438 -15.09375 7.691406 -14.953125 9.203125 -14.796875 C 10.253906 -14.691406 10.890625 -14.597656 11.109375 -14.515625 C 11.335938 -14.441406 11.4375 -14.296875 11.40625 -14.078125 C 11.375 -13.773438 11.203125 -13.644531 10.890625 -13.6875 C 10.765625 -13.707031 10.515625 -13.71875 10.140625 -13.71875 C 9.765625 -13.695312 9.34375 -13.671875 8.875 -13.640625 C 8.40625 -13.609375 7.914062 -13.5625 7.40625 -13.5 C 6.925781 -13.4375 6.519531 -13.390625 6.1875 -13.359375 C 6.019531 -13.328125 5.789062 -12.828125 5.5 -11.859375 C 5.21875 -10.890625 4.910156 -9.707031 4.578125 -8.3125 C 4.242188 -6.925781 3.992188 -6 3.828125 -5.53125 C 3.035156 -3.125 3.140625 -1.476562 4.140625 -0.59375 C 4.597656 -0.175781 5.019531 0.0195312 5.40625 0 C 5.644531 0 5.90625 -0.0859375 6.1875 -0.265625 C 6.238281 -0.328125 6.398438 -0.421875 6.671875 -0.546875 C 6.941406 -0.671875 7.222656 -0.78125 7.515625 -0.875 C 7.804688 -0.976562 8.101562 -1.082031 8.40625 -1.1875 C 8.71875 -1.300781 8.878906 -1.359375 8.890625 -1.359375 C 10.148438 -1.867188 11.164062 -2.363281 11.9375 -2.84375 Z M 11.9375 -2.84375 "/></g></g></g><g fill="#b0c89f" fill-opacity="1"><g transform="translate(218.536017, 83.230385)"><g/></g></g><g fill="#b0c89f" fill-opacity="1"><g transform="translate(229.270908, 83.230385)"><g><path d="M 13.578125 -3.40625 C 13.921875 -3.6875 14.222656 -3.800781 14.484375 -3.75 C 14.742188 -3.695312 14.875 -3.453125 14.875 -3.015625 C 14.875 -2.867188 14.84375 -2.722656 14.78125 -2.578125 C 14.71875 -2.441406 14.644531 -2.320312 14.5625 -2.21875 C 14.488281 -2.125 14.375 -2.007812 14.21875 -1.875 C 14.0625 -1.738281 13.9375 -1.640625 13.84375 -1.578125 C 13.757812 -1.515625 13.625 -1.421875 13.4375 -1.296875 C 13.257812 -1.179688 13.148438 -1.109375 13.109375 -1.078125 C 12.742188 -0.828125 12.359375 -0.625 11.953125 -0.46875 C 11.648438 -0.332031 11.101562 -0.179688 10.3125 -0.015625 C 9.519531 0.140625 8.898438 0.21875 8.453125 0.21875 C 8.078125 0.21875 7.550781 0.0859375 6.875 -0.171875 C 6.195312 -0.429688 5.617188 -0.671875 5.140625 -0.890625 C 4.660156 -1.109375 4.421875 -1.195312 4.421875 -1.15625 C 4.421875 -1.15625 4.367188 -1.15625 4.265625 -1.15625 C 4.148438 -1.15625 4.023438 -1.160156 3.890625 -1.171875 C 3.753906 -1.191406 3.5625 -1.117188 3.3125 -0.953125 C 3.0625 -0.785156 2.804688 -0.53125 2.546875 -0.1875 C 2.148438 0.300781 1.796875 0.960938 1.484375 1.796875 C 1.171875 2.640625 0.953125 3.171875 0.828125 3.390625 C 0.671875 3.703125 0.507812 4.0625 0.34375 4.46875 C 0.175781 4.875 0.015625 5.21875 -0.140625 5.5 C -0.296875 5.789062 -0.507812 6.09375 -0.78125 6.40625 C -1.007812 6.6875 -1.191406 6.859375 -1.328125 6.921875 C -1.460938 6.984375 -1.6875 6.953125 -2 6.828125 C -2.375 6.679688 -2.644531 6.3125 -2.8125 5.71875 C -2.976562 5.132812 -3.003906 4.625 -2.890625 4.1875 C -2.828125 3.914062 -2.640625 3.554688 -2.328125 3.109375 C -2.023438 2.671875 -1.835938 2.347656 -1.765625 2.140625 C -1.671875 1.890625 -1.566406 1.515625 -1.453125 1.015625 C -1.347656 0.515625 -1.253906 0.160156 -1.171875 -0.046875 C -1.066406 -0.378906 -0.863281 -0.847656 -0.5625 -1.453125 C -0.269531 -2.054688 -0.0664062 -2.503906 0.046875 -2.796875 C 0.203125 -3.234375 0.316406 -3.773438 0.390625 -4.421875 C 0.460938 -5.066406 0.546875 -5.675781 0.640625 -6.25 C 0.742188 -6.832031 0.929688 -7.351562 1.203125 -7.8125 C 1.234375 -7.875 1.28125 -7.960938 1.34375 -8.078125 C 1.40625 -8.203125 1.460938 -8.3125 1.515625 -8.40625 C 1.566406 -8.507812 1.628906 -8.628906 1.703125 -8.765625 C 1.785156 -8.898438 1.863281 -9.015625 1.9375 -9.109375 C 2.007812 -9.210938 2.085938 -9.328125 2.171875 -9.453125 C 2.265625 -9.578125 2.351562 -9.6875 2.4375 -9.78125 C 2.519531 -9.882812 2.609375 -9.976562 2.703125 -10.0625 C 2.796875 -10.144531 2.894531 -10.21875 3 -10.28125 C 3.101562 -10.34375 3.203125 -10.390625 3.296875 -10.421875 C 3.859375 -10.578125 4.265625 -10.46875 4.515625 -10.09375 C 4.765625 -9.726562 4.75 -9.320312 4.46875 -8.875 C 4.0625 -8.195312 3.976562 -7.882812 4.21875 -7.9375 C 4.445312 -8.007812 4.828125 -8.3125 5.359375 -8.84375 C 5.992188 -9.476562 6.582031 -9.957031 7.125 -10.28125 C 7.675781 -10.613281 8.3125 -10.84375 9.03125 -10.96875 C 9.726562 -11.09375 10.09375 -11.175781 10.125 -11.21875 C 10.1875 -11.238281 10.25 -11.203125 10.3125 -11.109375 C 10.375 -11.015625 10.4375 -10.878906 10.5 -10.703125 C 10.539062 -10.535156 10.585938 -10.34375 10.640625 -10.125 C 10.671875 -9.882812 10.703125 -9.644531 10.734375 -9.40625 C 10.765625 -9.175781 10.78125 -8.953125 10.78125 -8.734375 C 10.757812 -6.546875 10.445312 -5.125 9.84375 -4.46875 C 9.457031 -4.070312 9.164062 -3.695312 8.96875 -3.34375 C 8.90625 -3.195312 8.828125 -3.097656 8.734375 -3.046875 C 8.648438 -3.003906 8.582031 -2.988281 8.53125 -3 C 8.476562 -3.007812 8.394531 -3 8.28125 -2.96875 C 8.175781 -2.9375 8.082031 -2.859375 8 -2.734375 C 7.78125 -2.492188 7.546875 -2.375 7.296875 -2.375 C 7.085938 -2.363281 6.820312 -2.257812 6.5 -2.0625 C 6.1875 -1.863281 6.03125 -1.703125 6.03125 -1.578125 C 6.03125 -1.523438 6.109375 -1.457031 6.265625 -1.375 C 6.429688 -1.300781 6.628906 -1.226562 6.859375 -1.15625 C 7.097656 -1.09375 7.34375 -1.035156 7.59375 -0.984375 C 7.851562 -0.941406 8.066406 -0.921875 8.234375 -0.921875 C 8.503906 -0.921875 8.828125 -0.957031 9.203125 -1.03125 C 9.335938 -1.09375 9.507812 -1.160156 9.71875 -1.234375 C 9.925781 -1.304688 10.113281 -1.375 10.28125 -1.4375 C 10.457031 -1.5 10.597656 -1.5625 10.703125 -1.625 C 11.910156 -2.25 12.867188 -2.84375 13.578125 -3.40625 Z M 4.28125 -4.40625 C 4.3125 -4.101562 4.4375 -3.8125 4.65625 -3.53125 C 4.875 -3.257812 5.085938 -3.125 5.296875 -3.125 C 5.648438 -3.125 6.203125 -3.445312 6.953125 -4.09375 C 7.710938 -4.75 8.1875 -5.296875 8.375 -5.734375 C 8.582031 -6.242188 8.695312 -6.796875 8.71875 -7.390625 C 8.738281 -7.984375 8.65625 -8.453125 8.46875 -8.796875 C 8.28125 -9.128906 8.09375 -9.265625 7.90625 -9.203125 C 7.726562 -9.148438 7.328125 -8.820312 6.703125 -8.21875 C 6.109375 -7.675781 5.554688 -7 5.046875 -6.1875 C 4.535156 -5.375 4.28125 -4.78125 4.28125 -4.40625 Z M 4.28125 -4.40625 "/></g></g></g><g fill="#b0c89f" fill-opacity="1"><g transform="translate(242.239782, 83.230385)"><g><path d="M 15.0625 -3.8125 C 15.382812 -4.113281 15.675781 -4.234375 15.9375 -4.171875 C 16.195312 -4.117188 16.335938 -3.875 16.359375 -3.4375 C 16.359375 -3.3125 16.335938 -3.1875 16.296875 -3.0625 C 16.253906 -2.945312 16.191406 -2.835938 16.109375 -2.734375 C 16.023438 -2.640625 15.9375 -2.546875 15.84375 -2.453125 C 15.757812 -2.359375 15.65625 -2.265625 15.53125 -2.171875 C 15.40625 -2.078125 15.296875 -1.992188 15.203125 -1.921875 C 15.117188 -1.859375 15.003906 -1.785156 14.859375 -1.703125 C 14.722656 -1.617188 14.632812 -1.550781 14.59375 -1.5 C 14.21875 -1.25 13.832031 -1.046875 13.4375 -0.890625 C 13.40625 -0.878906 13.359375 -0.859375 13.296875 -0.828125 C 13.265625 -0.742188 13.203125 -0.679688 13.109375 -0.640625 C 13.015625 -0.585938 12.875 -0.539062 12.6875 -0.5 C 12.320312 -0.289062 11.785156 -0.144531 11.078125 -0.0625 C 10.378906 0.0078125 9.738281 0.0234375 9.15625 -0.015625 C 8.570312 -0.0546875 8.195312 -0.125 8.03125 -0.21875 C 7.882812 -0.3125 7.722656 -0.503906 7.546875 -0.796875 C 7.378906 -1.097656 7.234375 -1.394531 7.109375 -1.6875 C 6.984375 -1.988281 6.90625 -2.21875 6.875 -2.375 C 6.757812 -2.832031 6.71875 -3.316406 6.75 -3.828125 C 6.800781 -4.367188 6.890625 -5.203125 7.015625 -6.328125 L 7.015625 -6.65625 C 7.015625 -6.738281 6.984375 -6.796875 6.921875 -6.828125 C 6.867188 -6.867188 6.796875 -6.898438 6.703125 -6.921875 C 6.609375 -6.921875 6.484375 -6.921875 6.328125 -6.921875 C 6.140625 -6.921875 5.925781 -6.953125 5.6875 -7.015625 C 5.457031 -7.078125 5.226562 -7.132812 5 -7.1875 C 4.769531 -7.238281 4.570312 -7.265625 4.40625 -7.265625 C 4.414062 -7.265625 4.359375 -7.015625 4.234375 -6.515625 C 4.109375 -6.023438 3.945312 -5.503906 3.75 -4.953125 C 3.550781 -4.410156 3.375 -4.09375 3.21875 -4 C 2.65625 -3.664062 2.0625 -3.429688 1.4375 -3.296875 C 0.625 -3.109375 0.992188 -4.890625 2.546875 -8.640625 C 2.578125 -8.734375 2.65625 -8.925781 2.78125 -9.21875 C 2.90625 -9.519531 2.988281 -9.726562 3.03125 -9.84375 C 3.082031 -9.96875 3.15625 -10.15625 3.25 -10.40625 C 3.351562 -10.664062 3.425781 -10.878906 3.46875 -11.046875 C 3.519531 -11.210938 3.570312 -11.410156 3.625 -11.640625 C 3.6875 -11.878906 3.726562 -12.101562 3.75 -12.3125 C 3.769531 -12.53125 3.78125 -12.75 3.78125 -12.96875 C 3.78125 -13.21875 3.941406 -13.660156 4.265625 -14.296875 C 4.585938 -14.941406 4.84375 -15.335938 5.03125 -15.484375 C 5.28125 -15.628906 5.617188 -15.679688 6.046875 -15.640625 C 6.484375 -15.597656 6.773438 -15.5 6.921875 -15.34375 C 7.109375 -15.101562 7.109375 -14.191406 6.921875 -12.609375 C 6.773438 -11.578125 6.710938 -10.910156 6.734375 -10.609375 C 6.742188 -10.296875 6.828125 -10.046875 6.984375 -9.859375 C 7.171875 -9.703125 7.332031 -9.625 7.46875 -9.625 C 7.613281 -9.632812 7.882812 -9.757812 8.28125 -10 C 8.863281 -10.332031 9.285156 -10.488281 9.546875 -10.46875 C 9.804688 -10.457031 10.046875 -10.28125 10.265625 -9.9375 C 10.429688 -9.675781 10.503906 -9.441406 10.484375 -9.234375 C 10.472656 -9.035156 10.359375 -8.648438 10.140625 -8.078125 C 9.828125 -7.242188 9.546875 -6.289062 9.296875 -5.21875 C 9.109375 -4.375 9.046875 -3.75 9.109375 -3.34375 C 9.179688 -2.9375 9.441406 -2.457031 9.890625 -1.90625 C 10.078125 -1.632812 10.222656 -1.484375 10.328125 -1.453125 C 10.378906 -1.441406 10.460938 -1.453125 10.578125 -1.484375 C 10.691406 -1.523438 10.816406 -1.570312 10.953125 -1.625 C 11.085938 -1.6875 11.175781 -1.722656 11.21875 -1.734375 C 11.707031 -1.859375 12.03125 -1.960938 12.1875 -2.046875 C 13.394531 -2.671875 14.351562 -3.257812 15.0625 -3.8125 Z M 15.0625 -3.8125 "/></g></g></g><g fill="#b0c89f" fill-opacity="1"><g transform="translate(256.878272, 83.230385)"><g><path d="M 13.765625 -4.515625 C 14.003906 -4.390625 14.125 -4.113281 14.125 -3.6875 C 14.132812 -3.207031 13.859375 -2.753906 13.296875 -2.328125 C 13.085938 -2.191406 12.851562 -2.050781 12.59375 -1.90625 C 12.539062 -1.882812 12.484375 -1.851562 12.421875 -1.8125 C 12.203125 -1.6875 12.015625 -1.613281 11.859375 -1.59375 C 11.390625 -1.5625 10.9375 -1.753906 10.5 -2.171875 C 10.382812 -2.265625 10.265625 -2.425781 10.140625 -2.65625 L 10.078125 -2.78125 C 9.929688 -3.007812 9.796875 -3.15625 9.671875 -3.21875 C 9.546875 -3.28125 9.390625 -3.265625 9.203125 -3.171875 C 8.960938 -3.046875 8.695312 -2.664062 8.40625 -2.03125 C 8.257812 -1.695312 8.140625 -1.46875 8.046875 -1.34375 C 7.742188 -0.90625 7.484375 -0.65625 7.265625 -0.59375 C 6.984375 -0.445312 6.601562 -0.222656 6.125 0.078125 C 5.519531 0.429688 4.953125 0.625 4.421875 0.65625 C 3.804688 0.707031 3.351562 0.769531 3.0625 0.84375 C 2.976562 0.863281 2.898438 0.875 2.828125 0.875 C 2.648438 0.875 2.5 0.84375 2.375 0.78125 C 2.1875 0.695312 1.910156 0.484375 1.546875 0.140625 C 1.160156 -0.222656 0.894531 -0.539062 0.75 -0.8125 C 0.613281 -1.082031 0.472656 -1.566406 0.328125 -2.265625 C 0.0859375 -3.390625 0.03125 -4.289062 0.15625 -4.96875 C 0.289062 -5.65625 0.640625 -6.453125 1.203125 -7.359375 C 1.921875 -8.523438 2.601562 -9.367188 3.25 -9.890625 C 3.894531 -10.398438 4.6875 -10.765625 5.625 -10.984375 C 6.082031 -11.078125 6.484375 -11.242188 6.828125 -11.484375 C 7.367188 -11.847656 7.851562 -11.984375 8.28125 -11.890625 C 8.6875 -11.804688 9.15625 -11.484375 9.6875 -10.921875 C 9.976562 -10.609375 10.1875 -10.359375 10.3125 -10.171875 C 10.4375 -9.984375 10.519531 -9.800781 10.5625 -9.625 C 10.613281 -9.445312 10.640625 -9.195312 10.640625 -8.875 C 10.640625 -7.476562 10.6875 -6.394531 10.78125 -5.625 C 10.820312 -5.164062 10.925781 -4.816406 11.09375 -4.578125 C 11.257812 -4.335938 11.546875 -4.039062 11.953125 -3.6875 L 12.03125 -3.734375 C 12.3125 -3.929688 12.515625 -4.082031 12.640625 -4.1875 C 13.109375 -4.550781 13.484375 -4.660156 13.765625 -4.515625 Z M 8.328125 -8.5625 C 8.328125 -9.175781 8.265625 -9.515625 8.140625 -9.578125 C 8.109375 -9.546875 8.078125 -9.503906 8.046875 -9.453125 C 7.972656 -9.316406 7.984375 -9 8.078125 -8.5 C 8.140625 -8.132812 8.203125 -7.90625 8.265625 -7.8125 C 8.304688 -7.9375 8.328125 -8.1875 8.328125 -8.5625 Z M 7.640625 -4.9375 C 7.703125 -5.300781 7.695312 -5.5625 7.625 -5.71875 C 7.5625 -5.875 7.363281 -6.117188 7.03125 -6.453125 C 6.519531 -6.953125 6.265625 -7.363281 6.265625 -7.6875 C 6.265625 -7.914062 6.191406 -8.175781 6.046875 -8.46875 C 5.898438 -8.769531 5.757812 -8.96875 5.625 -9.0625 C 5.507812 -9.132812 5.414062 -9.171875 5.34375 -9.171875 C 5.28125 -9.171875 5.222656 -9.15625 5.171875 -9.125 C 5.015625 -9.050781 4.695312 -8.765625 4.21875 -8.265625 C 3.789062 -7.835938 3.390625 -7.289062 3.015625 -6.625 C 2.648438 -5.96875 2.382812 -5.351562 2.21875 -4.78125 C 2.039062 -4.226562 2.007812 -3.828125 2.125 -3.578125 C 2.25 -3.335938 2.316406 -2.9375 2.328125 -2.375 C 2.378906 -1.945312 2.441406 -1.632812 2.515625 -1.4375 C 2.597656 -1.257812 2.71875 -1.140625 2.875 -1.078125 C 3.039062 -1.003906 3.320312 -0.96875 3.71875 -0.96875 C 3.90625 -0.96875 4.0625 -0.972656 4.1875 -0.984375 C 4.3125 -0.984375 4.429688 -1 4.546875 -1.03125 C 4.648438 -1.0625 4.75 -1.101562 4.84375 -1.15625 C 4.957031 -1.21875 5.066406 -1.285156 5.171875 -1.359375 C 5.285156 -1.441406 5.421875 -1.546875 5.578125 -1.671875 C 6.171875 -2.140625 6.507812 -2.515625 6.59375 -2.796875 C 6.6875 -3.097656 6.875 -3.410156 7.15625 -3.734375 C 7.40625 -4.003906 7.566406 -4.40625 7.640625 -4.9375 Z M 7.640625 -4.9375 "/></g></g></g><g fill="#b0c89f" fill-opacity="1"><g transform="translate(269.659031, 83.230385)"><g><path d="M 17.4375 -3.59375 C 17.78125 -3.894531 18.082031 -4.015625 18.34375 -3.953125 C 18.601562 -3.898438 18.734375 -3.65625 18.734375 -3.21875 C 18.742188 -3.082031 18.710938 -2.941406 18.640625 -2.796875 C 18.578125 -2.660156 18.503906 -2.539062 18.421875 -2.4375 C 18.347656 -2.332031 18.234375 -2.210938 18.078125 -2.078125 C 17.929688 -1.941406 17.8125 -1.84375 17.71875 -1.78125 C 17.625 -1.71875 17.484375 -1.628906 17.296875 -1.515625 C 17.117188 -1.398438 17.015625 -1.328125 16.984375 -1.296875 C 16.609375 -1.046875 16.226562 -0.84375 15.84375 -0.6875 C 15.78125 -0.65625 15.664062 -0.59375 15.5 -0.5 C 15.34375 -0.40625 15.226562 -0.34375 15.15625 -0.3125 C 14.632812 -0.101562 14.25 0.015625 14 0.046875 C 12.664062 0.222656 11.753906 0.253906 11.265625 0.140625 C 10.785156 0.0234375 10.238281 -0.300781 9.625 -0.84375 C 9.25 -1.21875 8.984375 -1.5625 8.828125 -1.875 C 8.671875 -2.195312 8.546875 -2.625 8.453125 -3.15625 C 8.265625 -4.019531 8.078125 -4.457031 7.890625 -4.46875 C 7.742188 -4.46875 7.578125 -4.3125 7.390625 -4 C 7.140625 -3.539062 6.691406 -2.957031 6.046875 -2.25 C 5.398438 -1.550781 4.875 -1.0625 4.46875 -0.78125 C 4.1875 -0.59375 3.867188 -0.4375 3.515625 -0.3125 C 3.160156 -0.195312 2.78125 -0.117188 2.375 -0.078125 C 1.8125 -0.0234375 1.4375 -0.0195312 1.25 -0.0625 C 1.0625 -0.101562 0.890625 -0.25 0.734375 -0.5 C 0.242188 -1.257812 0.0703125 -2.40625 0.21875 -3.9375 C 0.375 -5.46875 0.796875 -6.769531 1.484375 -7.84375 C 1.890625 -8.4375 2.445312 -9.066406 3.15625 -9.734375 C 3.863281 -10.398438 4.613281 -10.953125 5.40625 -11.390625 C 5.914062 -11.691406 6.789062 -11.84375 8.03125 -11.84375 C 8.414062 -11.851562 8.738281 -11.910156 9 -12.015625 C 9.269531 -12.117188 9.492188 -12.273438 9.671875 -12.484375 C 9.847656 -12.691406 9.984375 -12.898438 10.078125 -13.109375 C 10.179688 -13.328125 10.316406 -13.613281 10.484375 -13.96875 C 10.648438 -14.320312 10.8125 -14.625 10.96875 -14.875 C 13.382812 -18.6875 14.6875 -20.734375 14.875 -21.015625 C 14.914062 -21.109375 15.007812 -21.269531 15.15625 -21.5 C 16.144531 -23.1875 16.875 -24.097656 17.34375 -24.234375 C 17.75 -24.359375 18.039062 -24.066406 18.21875 -23.359375 C 18.40625 -22.660156 18.320312 -21.832031 17.96875 -20.875 C 17.625 -19.914062 17.207031 -19.0625 16.71875 -18.3125 C 16.226562 -17.570312 15.632812 -16.71875 14.9375 -15.75 C 14.25 -14.789062 13.796875 -14.101562 13.578125 -13.6875 C 13.390625 -13.375 13.179688 -12.898438 12.953125 -12.265625 C 12.722656 -11.628906 12.5625 -11.203125 12.46875 -10.984375 C 11.101562 -8.023438 10.554688 -5.53125 10.828125 -3.5 C 10.921875 -2.75 11.113281 -2.210938 11.40625 -1.890625 C 11.695312 -1.566406 12.113281 -1.40625 12.65625 -1.40625 C 13.050781 -1.40625 13.554688 -1.492188 14.171875 -1.671875 C 14.398438 -1.742188 14.539062 -1.796875 14.59375 -1.828125 C 15.800781 -2.460938 16.75 -3.050781 17.4375 -3.59375 Z M 5.203125 -4.546875 C 7.429688 -7.367188 8.515625 -9.003906 8.453125 -9.453125 C 8.367188 -9.785156 8.0625 -9.945312 7.53125 -9.9375 C 7.007812 -9.9375 6.507812 -9.757812 6.03125 -9.40625 C 5.425781 -9 4.765625 -8.394531 4.046875 -7.59375 C 3.335938 -6.800781 2.882812 -6.160156 2.6875 -5.671875 C 2.445312 -5.148438 2.328125 -4.503906 2.328125 -3.734375 C 2.328125 -2.785156 2.515625 -2.332031 2.890625 -2.375 C 3.328125 -2.425781 4.097656 -3.148438 5.203125 -4.546875 Z M 5.203125 -4.546875 "/></g></g></g><g fill="#b0c89f" fill-opacity="1"><g transform="translate(287.072369, 83.230385)"><g><path d="M 16.09375 -3.15625 C 16.4375 -3.4375 16.738281 -3.550781 17 -3.5 C 17.257812 -3.457031 17.390625 -3.207031 17.390625 -2.75 C 17.390625 -2.613281 17.359375 -2.472656 17.296875 -2.328125 C 17.234375 -2.191406 17.160156 -2.070312 17.078125 -1.96875 C 17.003906 -1.875 16.890625 -1.757812 16.734375 -1.625 C 16.578125 -1.5 16.453125 -1.40625 16.359375 -1.34375 C 16.273438 -1.28125 16.144531 -1.1875 15.96875 -1.0625 C 15.789062 -0.945312 15.675781 -0.875 15.625 -0.84375 C 14.507812 -0.0703125 13.9375 0.332031 13.90625 0.375 C 13.8125 0.46875 13.578125 0.566406 13.203125 0.671875 C 12.835938 0.785156 12.554688 0.84375 12.359375 0.84375 C 12.085938 0.925781 11.847656 0.96875 11.640625 0.96875 C 11.441406 0.96875 11.210938 0.929688 10.953125 0.859375 C 10.691406 0.785156 10.503906 0.722656 10.390625 0.671875 C 10.273438 0.628906 10.175781 0.59375 10.09375 0.5625 C 9.664062 0.363281 9.085938 -0.0820312 8.359375 -0.78125 L 7.4375 -1.640625 L 6.265625 -0.78125 C 5.441406 -0.226562 4.550781 0.109375 3.59375 0.234375 C 2.800781 0.316406 2.039062 0.234375 1.3125 -0.015625 C 0.59375 -0.273438 0.0234375 -0.710938 -0.390625 -1.328125 C -0.804688 -1.953125 -0.925781 -2.691406 -0.75 -3.546875 C -0.5625 -4.460938 -0.113281 -5.460938 0.59375 -6.546875 C 1.3125 -7.640625 2.070312 -8.570312 2.875 -9.34375 C 3.476562 -9.925781 3.960938 -10.21875 4.328125 -10.21875 C 4.503906 -10.21875 4.738281 -10.054688 5.03125 -9.734375 C 5.238281 -9.515625 5.335938 -9.332031 5.328125 -9.1875 C 5.316406 -9.050781 5.195312 -8.765625 4.96875 -8.328125 C 3.039062 -4.546875 2.535156 -2.492188 3.453125 -2.171875 L 3.640625 -2.140625 C 4.285156 -2.046875 5.171875 -2.578125 6.296875 -3.734375 C 7.429688 -4.898438 8.21875 -6.078125 8.65625 -7.265625 C 8.988281 -8.066406 9.390625 -8.789062 9.859375 -9.4375 C 10.265625 -10 10.5625 -10.316406 10.75 -10.390625 C 10.9375 -10.460938 11.289062 -10.363281 11.8125 -10.09375 C 12.25 -9.851562 12.476562 -9.582031 12.5 -9.28125 C 12.53125 -8.988281 12.375 -8.515625 12.03125 -7.859375 C 11.851562 -7.585938 11.707031 -7.289062 11.59375 -6.96875 C 11.488281 -6.65625 11.40625 -6.375 11.34375 -6.125 C 11.3125 -6.039062 11.269531 -5.890625 11.21875 -5.671875 C 11.175781 -5.460938 11.128906 -5.289062 11.078125 -5.15625 C 10.984375 -4.757812 10.898438 -4.4375 10.828125 -4.1875 C 10.671875 -3.53125 10.59375 -2.90625 10.59375 -2.3125 C 10.59375 -1.726562 10.6875 -1.34375 10.875 -1.15625 C 11.03125 -1 11.367188 -0.90625 11.890625 -0.875 C 11.960938 -0.90625 12.171875 -0.976562 12.515625 -1.09375 C 12.859375 -1.207031 13.09375 -1.296875 13.21875 -1.359375 C 14.425781 -1.992188 15.382812 -2.59375 16.09375 -3.15625 Z M 16.09375 -3.15625 "/></g></g></g><g fill="#b0c89f" fill-opacity="1"><g transform="translate(303.051245, 83.230385)"><g><path d="M 12.6875 -2.890625 C 13.03125 -3.171875 13.328125 -3.285156 13.578125 -3.234375 C 13.828125 -3.191406 13.960938 -2.945312 13.984375 -2.5 C 13.984375 -2.382812 13.960938 -2.269531 13.921875 -2.15625 C 13.878906 -2.039062 13.8125 -1.925781 13.71875 -1.8125 C 13.632812 -1.695312 13.550781 -1.597656 13.46875 -1.515625 C 13.394531 -1.429688 13.289062 -1.335938 13.15625 -1.234375 C 13.03125 -1.128906 12.921875 -1.050781 12.828125 -1 C 12.742188 -0.945312 12.628906 -0.875 12.484375 -0.78125 C 12.347656 -0.6875 12.257812 -0.625 12.21875 -0.59375 C 11.832031 -0.34375 11.445312 -0.128906 11.0625 0.046875 C 10.8125 0.160156 10.382812 0.3125 9.78125 0.5 C 9.1875 0.695312 8.425781 0.914062 7.5 1.15625 C 6.582031 1.40625 5.679688 1.5 4.796875 1.4375 C 3.921875 1.382812 3.265625 1.140625 2.828125 0.703125 C 2.648438 0.535156 2.453125 0.285156 2.234375 -0.046875 C 2.015625 -0.378906 1.820312 -0.703125 1.65625 -1.015625 C 1.488281 -1.328125 1.367188 -1.582031 1.296875 -1.78125 C 1.085938 -2.332031 0.992188 -3.097656 1.015625 -4.078125 C 1.148438 -7.035156 2.421875 -9.570312 4.828125 -11.6875 C 5.390625 -12.164062 5.800781 -12.453125 6.0625 -12.546875 C 6.332031 -12.648438 6.835938 -12.703125 7.578125 -12.703125 C 8.921875 -12.703125 9.945312 -12.40625 10.65625 -11.8125 C 11.375 -11.21875 11.648438 -10.429688 11.484375 -9.453125 C 11.367188 -8.972656 11.257812 -8.671875 11.15625 -8.546875 C 11.0625 -8.429688 10.832031 -8.351562 10.46875 -8.3125 C 9.976562 -8.257812 9.519531 -8.351562 9.09375 -8.59375 C 8.664062 -8.84375 8.5 -9.109375 8.59375 -9.390625 C 8.6875 -9.617188 8.632812 -9.851562 8.4375 -10.09375 C 8.238281 -10.34375 8 -10.46875 7.71875 -10.46875 C 7.195312 -10.46875 6.40625 -9.921875 5.34375 -8.828125 C 4.289062 -7.742188 3.765625 -6.925781 3.765625 -6.375 C 3.765625 -6.175781 3.65625 -5.878906 3.4375 -5.484375 C 3.195312 -5.140625 3.085938 -4.539062 3.109375 -3.6875 C 3.140625 -2.863281 3.269531 -2.273438 3.5 -1.921875 C 3.882812 -1.359375 4.519531 -0.972656 5.40625 -0.765625 C 6.289062 -0.554688 7.101562 -0.519531 7.84375 -0.65625 C 8.226562 -0.71875 8.648438 -0.84375 9.109375 -1.03125 C 9.941406 -1.363281 10.703125 -1.796875 11.390625 -2.328125 C 11.921875 -2.722656 12.289062 -2.875 12.5 -2.78125 C 12.507812 -2.78125 12.535156 -2.796875 12.578125 -2.828125 C 12.617188 -2.859375 12.65625 -2.878906 12.6875 -2.890625 Z M 12.6875 -2.890625 "/></g></g></g><g fill="#b0c89f" fill-opacity="1"><g transform="translate(315.926061, 83.230385)"><g><path d="M 11.9375 -2.84375 C 12.289062 -3.09375 12.59375 -3.175781 12.84375 -3.09375 C 13.09375 -3.007812 13.203125 -2.75 13.171875 -2.3125 C 13.160156 -2.195312 13.125 -2.078125 13.0625 -1.953125 C 13.007812 -1.835938 12.9375 -1.734375 12.84375 -1.640625 C 12.75 -1.546875 12.660156 -1.457031 12.578125 -1.375 C 12.492188 -1.300781 12.378906 -1.222656 12.234375 -1.140625 C 12.097656 -1.054688 11.976562 -0.988281 11.875 -0.9375 C 11.78125 -0.894531 11.660156 -0.832031 11.515625 -0.75 C 11.367188 -0.675781 11.269531 -0.625 11.21875 -0.59375 C 10.832031 -0.382812 10.425781 -0.21875 10 -0.09375 C 9.988281 -0.0820312 9.796875 0.0351562 9.421875 0.265625 C 9.054688 0.492188 8.632812 0.742188 8.15625 1.015625 C 7.6875 1.296875 7.304688 1.484375 7.015625 1.578125 C 6.609375 1.710938 6.179688 1.820312 5.734375 1.90625 C 5.296875 1.988281 4.832031 2.039062 4.34375 2.0625 C 3.863281 2.082031 3.398438 2.03125 2.953125 1.90625 C 2.503906 1.78125 2.128906 1.59375 1.828125 1.34375 C 1.472656 1.007812 1.179688 0.554688 0.953125 -0.015625 C 0.722656 -0.585938 0.570312 -1.207031 0.5 -1.875 C 0.4375 -2.539062 0.40625 -3.160156 0.40625 -3.734375 C 0.40625 -4.316406 0.425781 -4.875 0.46875 -5.40625 C 0.488281 -5.488281 0.578125 -6.160156 0.734375 -7.421875 C 0.898438 -8.679688 1.0625 -9.921875 1.21875 -11.140625 L 1.4375 -12.96875 C 1.25 -13.070312 0.894531 -13.148438 0.375 -13.203125 C 0.0625 -13.210938 -0.257812 -13.210938 -0.59375 -13.203125 C -1.351562 -13.203125 -1.894531 -13.222656 -2.21875 -13.265625 C -2.28125 -13.285156 -2.367188 -13.296875 -2.484375 -13.296875 C -2.597656 -13.296875 -2.710938 -13.296875 -2.828125 -13.296875 C -2.953125 -13.296875 -3.070312 -13.296875 -3.1875 -13.296875 C -3.300781 -13.296875 -3.394531 -13.304688 -3.46875 -13.328125 C -3.539062 -13.347656 -3.582031 -13.382812 -3.59375 -13.4375 C -3.625 -13.6875 -3.523438 -13.867188 -3.296875 -13.984375 C -3.273438 -13.992188 -3.164062 -14.054688 -2.96875 -14.171875 C -2.78125 -14.296875 -2.578125 -14.410156 -2.359375 -14.515625 C -2.148438 -14.628906 -1.863281 -14.726562 -1.5 -14.8125 C -1.144531 -14.894531 -0.78125 -14.929688 -0.40625 -14.921875 C 0.769531 -14.804688 1.503906 -14.769531 1.796875 -14.8125 C 2.085938 -14.851562 2.375 -15.019531 2.65625 -15.3125 C 3.082031 -15.707031 3.648438 -16.738281 4.359375 -18.40625 C 4.390625 -18.46875 4.4375 -18.5625 4.5 -18.6875 C 4.757812 -19.3125 4.972656 -19.800781 5.140625 -20.15625 C 5.316406 -20.519531 5.5625 -20.976562 5.875 -21.53125 C 6.195312 -22.09375 6.546875 -22.5625 6.921875 -22.9375 C 7.296875 -23.320312 7.6875 -23.613281 8.09375 -23.8125 C 9.414062 -24.4375 10.078125 -24.398438 10.078125 -23.703125 C 10.078125 -23.285156 9.769531 -22.363281 9.15625 -20.9375 C 8.976562 -20.550781 8.851562 -20.25 8.78125 -20.03125 C 8.6875 -19.75 8.609375 -19.410156 8.546875 -19.015625 C 8.484375 -18.617188 8.332031 -18.226562 8.09375 -17.84375 C 7.71875 -17.175781 7.40625 -16.617188 7.15625 -16.171875 C 6.851562 -15.628906 6.742188 -15.3125 6.828125 -15.21875 C 6.898438 -15.09375 7.691406 -14.953125 9.203125 -14.796875 C 10.253906 -14.691406 10.890625 -14.597656 11.109375 -14.515625 C 11.335938 -14.441406 11.4375 -14.296875 11.40625 -14.078125 C 11.375 -13.773438 11.203125 -13.644531 10.890625 -13.6875 C 10.765625 -13.707031 10.515625 -13.71875 10.140625 -13.71875 C 9.765625 -13.695312 9.34375 -13.671875 8.875 -13.640625 C 8.40625 -13.609375 7.914062 -13.5625 7.40625 -13.5 C 6.925781 -13.4375 6.519531 -13.390625 6.1875 -13.359375 C 6.019531 -13.328125 5.789062 -12.828125 5.5 -11.859375 C 5.21875 -10.890625 4.910156 -9.707031 4.578125 -8.3125 C 4.242188 -6.925781 3.992188 -6 3.828125 -5.53125 C 3.035156 -3.125 3.140625 -1.476562 4.140625 -0.59375 C 4.597656 -0.175781 5.019531 0.0195312 5.40625 0 C 5.644531 0 5.90625 -0.0859375 6.1875 -0.265625 C 6.238281 -0.328125 6.398438 -0.421875 6.671875 -0.546875 C 6.941406 -0.671875 7.222656 -0.78125 7.515625 -0.875 C 7.804688 -0.976562 8.101562 -1.082031 8.40625 -1.1875 C 8.71875 -1.300781 8.878906 -1.359375 8.890625 -1.359375 C 10.148438 -1.867188 11.164062 -2.363281 11.9375 -2.84375 Z M 11.9375 -2.84375 "/></g></g></g><g fill="#b0c89f" fill-opacity="1"><g transform="translate(327.53103, 83.230385)"><g><path d="M 5.625 -14.28125 C 5.1875 -14.175781 4.753906 -14.332031 4.328125 -14.75 C 4.023438 -15.050781 3.863281 -15.25 3.84375 -15.34375 C 3.832031 -15.4375 3.945312 -15.578125 4.1875 -15.765625 C 4.519531 -16.003906 4.941406 -16.125 5.453125 -16.125 C 5.960938 -16.125 6.3125 -16.003906 6.5 -15.765625 C 6.695312 -15.492188 6.707031 -15.203125 6.53125 -14.890625 C 6.351562 -14.578125 6.050781 -14.375 5.625 -14.28125 Z M 9.8125 -3.015625 C 9.925781 -2.828125 9.929688 -2.644531 9.828125 -2.46875 C 9.722656 -2.300781 9.4375 -2.019531 8.96875 -1.625 C 8.226562 -1 7.359375 -0.425781 6.359375 0.09375 C 5.597656 0.46875 4.8125 0.617188 4 0.546875 C 3.195312 0.484375 2.4375 0.253906 1.71875 -0.140625 C 1.007812 -0.535156 0.394531 -1.046875 -0.125 -1.671875 C -0.851562 -2.546875 -1.070312 -3.710938 -0.78125 -5.171875 C -0.75 -5.285156 -0.6875 -5.660156 -0.59375 -6.296875 C -0.5 -6.941406 -0.398438 -7.507812 -0.296875 -8 C -0.191406 -8.5 -0.078125 -8.828125 0.046875 -8.984375 C 0.191406 -9.160156 0.421875 -9.28125 0.734375 -9.34375 C 1.054688 -9.40625 1.390625 -9.40625 1.734375 -9.34375 C 2.085938 -9.289062 2.421875 -9.191406 2.734375 -9.046875 C 3.046875 -8.898438 3.257812 -8.703125 3.375 -8.453125 C 3.488281 -8.203125 3.484375 -7.914062 3.359375 -7.59375 C 3.003906 -6.84375 2.828125 -6.320312 2.828125 -6.03125 C 2.828125 -5.738281 2.671875 -5.382812 2.359375 -4.96875 C 2.085938 -4.65625 1.921875 -4.273438 1.859375 -3.828125 C 1.804688 -3.378906 1.882812 -3.082031 2.09375 -2.9375 C 2.269531 -2.875 2.359375 -2.679688 2.359375 -2.359375 C 2.359375 -2.066406 2.5625 -1.742188 2.96875 -1.390625 C 3.25 -1.117188 3.46875 -0.96875 3.625 -0.9375 C 3.789062 -0.90625 4.097656 -0.945312 4.546875 -1.0625 C 5.179688 -1.289062 6.003906 -1.769531 7.015625 -2.5 C 7.816406 -3.070312 8.421875 -3.394531 8.828125 -3.46875 C 9.242188 -3.550781 9.570312 -3.398438 9.8125 -3.015625 Z M 9.8125 -3.015625 "/></g></g></g><g fill="#b0c89f" fill-opacity="1"><g transform="translate(335.373497, 83.230385)"><g><path d="M 13.765625 -4.515625 C 14.003906 -4.390625 14.125 -4.113281 14.125 -3.6875 C 14.132812 -3.207031 13.859375 -2.753906 13.296875 -2.328125 C 13.085938 -2.191406 12.851562 -2.050781 12.59375 -1.90625 C 12.539062 -1.882812 12.484375 -1.851562 12.421875 -1.8125 C 12.203125 -1.6875 12.015625 -1.613281 11.859375 -1.59375 C 11.390625 -1.5625 10.9375 -1.753906 10.5 -2.171875 C 10.382812 -2.265625 10.265625 -2.425781 10.140625 -2.65625 L 10.078125 -2.78125 C 9.929688 -3.007812 9.796875 -3.15625 9.671875 -3.21875 C 9.546875 -3.28125 9.390625 -3.265625 9.203125 -3.171875 C 8.960938 -3.046875 8.695312 -2.664062 8.40625 -2.03125 C 8.257812 -1.695312 8.140625 -1.46875 8.046875 -1.34375 C 7.742188 -0.90625 7.484375 -0.65625 7.265625 -0.59375 C 6.984375 -0.445312 6.601562 -0.222656 6.125 0.078125 C 5.519531 0.429688 4.953125 0.625 4.421875 0.65625 C 3.804688 0.707031 3.351562 0.769531 3.0625 0.84375 C 2.976562 0.863281 2.898438 0.875 2.828125 0.875 C 2.648438 0.875 2.5 0.84375 2.375 0.78125 C 2.1875 0.695312 1.910156 0.484375 1.546875 0.140625 C 1.160156 -0.222656 0.894531 -0.539062 0.75 -0.8125 C 0.613281 -1.082031 0.472656 -1.566406 0.328125 -2.265625 C 0.0859375 -3.390625 0.03125 -4.289062 0.15625 -4.96875 C 0.289062 -5.65625 0.640625 -6.453125 1.203125 -7.359375 C 1.921875 -8.523438 2.601562 -9.367188 3.25 -9.890625 C 3.894531 -10.398438 4.6875 -10.765625 5.625 -10.984375 C 6.082031 -11.078125 6.484375 -11.242188 6.828125 -11.484375 C 7.367188 -11.847656 7.851562 -11.984375 8.28125 -11.890625 C 8.6875 -11.804688 9.15625 -11.484375 9.6875 -10.921875 C 9.976562 -10.609375 10.1875 -10.359375 10.3125 -10.171875 C 10.4375 -9.984375 10.519531 -9.800781 10.5625 -9.625 C 10.613281 -9.445312 10.640625 -9.195312 10.640625 -8.875 C 10.640625 -7.476562 10.6875 -6.394531 10.78125 -5.625 C 10.820312 -5.164062 10.925781 -4.816406 11.09375 -4.578125 C 11.257812 -4.335938 11.546875 -4.039062 11.953125 -3.6875 L 12.03125 -3.734375 C 12.3125 -3.929688 12.515625 -4.082031 12.640625 -4.1875 C 13.109375 -4.550781 13.484375 -4.660156 13.765625 -4.515625 Z M 8.328125 -8.5625 C 8.328125 -9.175781 8.265625 -9.515625 8.140625 -9.578125 C 8.109375 -9.546875 8.078125 -9.503906 8.046875 -9.453125 C 7.972656 -9.316406 7.984375 -9 8.078125 -8.5 C 8.140625 -8.132812 8.203125 -7.90625 8.265625 -7.8125 C 8.304688 -7.9375 8.328125 -8.1875 8.328125 -8.5625 Z M 7.640625 -4.9375 C 7.703125 -5.300781 7.695312 -5.5625 7.625 -5.71875 C 7.5625 -5.875 7.363281 -6.117188 7.03125 -6.453125 C 6.519531 -6.953125 6.265625 -7.363281 6.265625 -7.6875 C 6.265625 -7.914062 6.191406 -8.175781 6.046875 -8.46875 C 5.898438 -8.769531 5.757812 -8.96875 5.625 -9.0625 C 5.507812 -9.132812 5.414062 -9.171875 5.34375 -9.171875 C 5.28125 -9.171875 5.222656 -9.15625 5.171875 -9.125 C 5.015625 -9.050781 4.695312 -8.765625 4.21875 -8.265625 C 3.789062 -7.835938 3.390625 -7.289062 3.015625 -6.625 C 2.648438 -5.96875 2.382812 -5.351562 2.21875 -4.78125 C 2.039062 -4.226562 2.007812 -3.828125 2.125 -3.578125 C 2.25 -3.335938 2.316406 -2.9375 2.328125 -2.375 C 2.378906 -1.945312 2.441406 -1.632812 2.515625 -1.4375 C 2.597656 -1.257812 2.71875 -1.140625 2.875 -1.078125 C 3.039062 -1.003906 3.320312 -0.96875 3.71875 -0.96875 C 3.90625 -0.96875 4.0625 -0.972656 4.1875 -0.984375 C 4.3125 -0.984375 4.429688 -1 4.546875 -1.03125 C 4.648438 -1.0625 4.75 -1.101562 4.84375 -1.15625 C 4.957031 -1.21875 5.066406 -1.285156 5.171875 -1.359375 C 5.285156 -1.441406 5.421875 -1.546875 5.578125 -1.671875 C 6.171875 -2.140625 6.507812 -2.515625 6.59375 -2.796875 C 6.6875 -3.097656 6.875 -3.410156 7.15625 -3.734375 C 7.40625 -4.003906 7.566406 -4.40625 7.640625 -4.9375 Z M 7.640625 -4.9375 "/></g></g></g><g fill="#b0c89f" fill-opacity="1"><g transform="translate(348.154255, 83.230385)"><g><path d="M -0.96875 -3.25 C -0.71875 -3.664062 -0.234375 -4.628906 0.484375 -6.140625 C 1.210938 -7.660156 1.835938 -8.726562 2.359375 -9.34375 C 2.429688 -9.445312 2.515625 -9.546875 2.609375 -9.640625 C 2.796875 -9.847656 3.050781 -10.003906 3.375 -10.109375 C 3.707031 -10.210938 4.007812 -10.203125 4.28125 -10.078125 C 4.375 -10.015625 4.441406 -9.847656 4.484375 -9.578125 C 4.523438 -9.304688 4.582031 -9.164062 4.65625 -9.15625 C 4.769531 -9.132812 5.035156 -9.273438 5.453125 -9.578125 C 6.179688 -10.078125 7.320312 -10.492188 8.875 -10.828125 C 9.5 -10.984375 9.90625 -11.046875 10.09375 -11.015625 C 10.28125 -10.984375 10.515625 -10.84375 10.796875 -10.59375 C 11.160156 -10.226562 11.347656 -9.785156 11.359375 -9.265625 C 11.378906 -8.753906 11.207031 -8.269531 10.84375 -7.8125 C 10.582031 -7.414062 10.238281 -6.632812 9.8125 -5.46875 C 9.382812 -4.3125 9.171875 -3.515625 9.171875 -3.078125 C 9.171875 -2.765625 9.273438 -2.421875 9.484375 -2.046875 C 9.703125 -1.679688 9.960938 -1.378906 10.265625 -1.140625 C 10.578125 -0.898438 10.859375 -0.78125 11.109375 -0.78125 C 11.484375 -0.78125 12.273438 -1.09375 13.484375 -1.71875 C 14.691406 -2.34375 15.640625 -2.9375 16.328125 -3.5 C 16.847656 -3.894531 17.21875 -4.082031 17.4375 -4.0625 C 17.65625 -4.039062 17.765625 -3.804688 17.765625 -3.359375 C 17.765625 -3.171875 17.679688 -2.957031 17.515625 -2.71875 C 17.347656 -2.476562 17.132812 -2.222656 16.875 -1.953125 C 16.59375 -1.703125 16.257812 -1.445312 15.875 -1.1875 C 15.5 -0.925781 15.117188 -0.71875 14.734375 -0.5625 C 13.691406 -0.0703125 12.945312 0.28125 12.5 0.5 C 11.707031 0.851562 11.007812 0.953125 10.40625 0.796875 C 9.800781 0.640625 9.09375 0.15625 8.28125 -0.65625 C 7.625 -1.3125 7.234375 -1.757812 7.109375 -2 C 6.992188 -2.25 6.9375 -2.71875 6.9375 -3.40625 C 6.9375 -4.414062 7.117188 -5.460938 7.484375 -6.546875 C 7.796875 -7.628906 7.921875 -8.21875 7.859375 -8.3125 C 7.765625 -8.40625 7.128906 -7.894531 5.953125 -6.78125 C 4.773438 -5.675781 3.617188 -4.507812 2.484375 -3.28125 C 1.359375 -2.050781 0.796875 -1.34375 0.796875 -1.15625 C 0.796875 -1 0.695312 -0.828125 0.5 -0.640625 C 0.3125 -0.453125 0.078125 -0.296875 -0.203125 -0.171875 C -0.492188 -0.0546875 -0.75 -0.0234375 -0.96875 -0.078125 C -1.320312 -0.117188 -1.570312 -0.398438 -1.71875 -0.921875 C -1.820312 -1.265625 -1.832031 -1.566406 -1.75 -1.828125 C -1.675781 -2.097656 -1.414062 -2.570312 -0.96875 -3.25 Z M -0.96875 -3.25 "/></g></g></g></g></g></svg>