<svg xmlns="http://www.w3.org/2000/svg" xmlns:xlink="http://www.w3.org/1999/xlink" width="500" zoomAndPan="magnify" viewBox="0 0 375 374.999991" height="500" preserveAspectRatio="xMidYMid meet" version="1.0"><defs><filter x="0%" y="0%" width="100%" height="100%" id="e0c703a218"><feColorMatrix values="0 0 0 0 1 0 0 0 0 1 0 0 0 0 1 0 0 0 1 0" color-interpolation-filters="sRGB"/></filter><mask id="d124ddbd47"><g filter="url(#e0c703a218)"><rect x="-37.5" width="450" fill="#000000" y="-37.499999" height="449.999989" fill-opacity="0.58"/></g></mask><clipPath id="efccb02eec"><path d="M 0.800781 0.199219 L 145.441406 0.199219 L 145.441406 213.691406 L 0.800781 213.691406 Z M 0.800781 0.199219 " clip-rule="nonzero"/></clipPath><clipPath id="5a61e09aa2"><rect x="0" width="146" y="0" height="214"/></clipPath><mask id="c69bcf705b"><g filter="url(#e0c703a218)"><rect x="-37.5" width="450" fill="#000000" y="-37.499999" height="449.999989" fill-opacity="0.58"/></g></mask><clipPath id="414d4a9f3c"><path d="M 0.601562 0.238281 L 97 0.238281 L 97 141.855469 L 0.601562 141.855469 Z M 0.601562 0.238281 " clip-rule="nonzero"/></clipPath><clipPath id="e87e657264"><rect x="0" width="98" y="0" height="143"/></clipPath><mask id="783a2a1e15"><g filter="url(#e0c703a218)"><rect x="-37.5" width="450" fill="#000000" y="-37.499999" height="449.999989" fill-opacity="0.58"/></g></mask><clipPath id="c6c0e1fcd2"><path d="M 0.320312 0.761719 L 54.777344 0.761719 L 54.777344 80.992188 L 0.320312 80.992188 Z M 0.320312 0.761719 " clip-rule="nonzero"/></clipPath><clipPath id="2f3056a1f0"><rect x="0" width="55" y="0" height="82"/></clipPath></defs><rect x="-37.5" width="450" fill="#ffffff" y="-37.499999" height="449.999989" fill-opacity="1"/><rect x="-37.5" width="450" fill="#ffffff" y="-37.499999" height="449.999989" fill-opacity="1"/><g mask="url(#d124ddbd47)"><g transform="matrix(1, 0, 0, 1, 154, 25)"><g clip-path="url(#5a61e09aa2)"><g clip-path="url(#efccb02eec)"><path fill="#b0c89f" d="M 145.191406 110.914062 C 144.921875 110.6875 144.6875 110.296875 144.6875 110.039062 C 144.6875 109.785156 144.488281 109.382812 144.238281 109.117188 C 143.652344 108.546875 143.167969 107.390625 143.257812 106.839844 C 143.289062 106.601562 142.886719 106.308594 142.347656 106.191406 C 141.816406 106.0625 141.222656 105.769531 141.03125 105.542969 C 140.835938 105.304688 140.15625 105.011719 139.519531 104.875 C 138.871094 104.757812 137.859375 104.425781 137.246094 104.148438 C 136.632812 103.851562 135.4375 103.546875 134.597656 103.441406 C 133.746094 103.363281 132.960938 103.15625 132.847656 103.007812 C 132.5625 102.617188 124.695312 98.699219 124.21875 98.710938 C 123.699219 98.710938 122.4375 98.042969 120.96875 96.972656 C 120.316406 96.480469 119.355469 95.859375 118.851562 95.566406 C 116.972656 94.515625 110.582031 89.492188 109.085938 87.886719 C 108.980469 87.789062 108.472656 87.429688 107.945312 87.082031 C 107.417969 86.75 106.980469 86.238281 106.980469 85.945312 C 106.980469 85.652344 106.824219 85.511719 106.613281 85.628906 C 105.949219 86.050781 101.511719 82.054688 97.660156 77.558594 C 96.855469 76.617188 95.574219 75.140625 94.832031 74.277344 C 94.082031 73.414062 93.035156 71.925781 92.515625 70.960938 C 91.988281 70 91.367188 68.976562 91.132812 68.683594 C 90.890625 68.394531 90.425781 67.542969 90.105469 66.757812 C 89.777344 66.003906 89.285156 64.980469 89.015625 64.5 C 88.742188 64.027344 88.160156 63.007812 87.714844 62.230469 C 86.976562 60.925781 86.59375 59.933594 84.679688 54.582031 C 84.277344 53.464844 83.789062 52.335938 83.582031 52.089844 C 83.386719 51.855469 83.0625 50.65625 82.855469 49.4375 C 82.636719 48.21875 82.277344 46.902344 82.039062 46.53125 C 81.796875 46.136719 81.515625 45.277344 81.410156 44.605469 C 81.171875 43.035156 80.902344 41.886719 80.640625 41.472656 C 80.527344 41.285156 80.355469 40.480469 80.242188 39.648438 C 80.132812 38.8125 79.925781 37.65625 79.769531 37.066406 C 79.625 36.476562 79.515625 35.613281 79.546875 35.152344 C 79.582031 34.679688 79.457031 34.199219 79.277344 34.082031 C 79.101562 33.953125 78.921875 32.902344 78.867188 31.742188 C 78.820312 30.574219 78.664062 29.449219 78.515625 29.210938 C 78.136719 28.582031 77.992188 5.722656 78.367188 5.488281 C 78.542969 5.378906 78.488281 4.917969 78.230469 4.410156 C 77.945312 3.859375 77.878906 3.25 78.058594 2.765625 C 78.203125 2.347656 78.195312 2.011719 78.035156 2.011719 C 77.878906 2.011719 77.660156 1.71875 77.570312 1.347656 C 77.265625 0.207031 76.265625 -0.0703125 74.515625 0.5 C 73.648438 0.804688 72.828125 1.226562 72.683594 1.441406 C 72.550781 1.660156 72.433594 1.6875 72.421875 1.519531 C 72.421875 1.347656 72.101562 1.480469 71.71875 1.835938 C 71.09375 2.40625 71.03125 2.765625 71.214844 5.585938 C 71.351562 7.726562 71.285156 8.855469 71.003906 9.199219 C 70.726562 9.523438 70.71875 9.691406 70.957031 9.691406 C 71.210938 9.691406 71.308594 11.320312 71.261719 14.578125 C 71.230469 17.269531 71.070312 19.472656 70.925781 19.472656 C 70.777344 19.472656 70.667969 20.058594 70.710938 20.769531 C 70.738281 21.492188 70.511719 23.042969 70.195312 24.222656 C 69.886719 25.402344 69.628906 26.835938 69.628906 27.417969 C 69.628906 27.996094 69.398438 28.640625 69.101562 28.886719 C 68.832031 29.125 68.671875 29.464844 68.789062 29.640625 C 68.886719 29.800781 68.820312 30.46875 68.617188 31.078125 C 68.25 32.195312 68.0625 33.316406 67.738281 36.046875 C 67.589844 37.351562 67.113281 39.519531 65.96875 44.253906 C 65.707031 45.304688 65.242188 47.277344 64.917969 48.613281 C 64.253906 51.480469 63.003906 55.445312 62.613281 55.957031 C 62.46875 56.152344 61.808594 57.636719 61.148438 59.277344 C 59.808594 62.574219 58.929688 64.597656 58.28125 65.894531 C 58.042969 66.375 57.660156 67.367188 57.417969 68.09375 C 57.195312 68.820312 56.390625 70.597656 55.644531 72.050781 C 54.386719 74.492188 53.957031 75.09375 51.941406 77.265625 C 51.535156 77.71875 51.140625 78.226562 51.074219 78.414062 C 50.839844 79.03125 46.183594 83.824219 44.730469 84.933594 C 43.914062 85.5625 42.386719 86.886719 41.339844 87.910156 C 40.296875 88.910156 38.945312 89.953125 38.351562 90.195312 C 37.757812 90.441406 37.078125 90.894531 36.828125 91.1875 C 36.578125 91.5 36.226562 91.738281 36.042969 91.738281 C 35.859375 91.738281 35.160156 92.171875 34.476562 92.671875 C 33.792969 93.191406 33.023438 93.652344 32.75 93.703125 C 32.472656 93.730469 31.988281 94.082031 31.660156 94.464844 C 31.039062 95.183594 21.496094 101.074219 20.675781 101.242188 C 20.425781 101.28125 20.144531 101.4375 20.050781 101.558594 C 19.757812 101.929688 11.175781 105.984375 10.085938 106.25 C 9.515625 106.40625 8.394531 106.800781 7.582031 107.164062 C 6.757812 107.527344 5.699219 107.730469 5.152344 107.644531 C 4.632812 107.546875 4.109375 107.605469 4.003906 107.773438 C 3.90625 107.941406 3.503906 108.136719 3.121094 108.195312 C 1.175781 108.546875 0.0429688 111.828125 1.402344 113.203125 C 1.8125 113.613281 2.210938 114.132812 2.292969 114.367188 C 2.492188 115.011719 5.746094 115.746094 8.617188 115.816406 C 11.984375 115.890625 13.496094 116.03125 16.214844 116.472656 C 20.503906 117.171875 21.097656 117.316406 21.097656 117.632812 C 21.097656 117.820312 21.261719 117.855469 21.445312 117.738281 C 21.859375 117.484375 26.53125 118.9375 29.214844 120.152344 C 30.292969 120.652344 31.433594 121.066406 31.722656 121.066406 C 32.023438 121.066406 32.269531 121.214844 32.269531 121.410156 C 32.269531 121.605469 32.460938 121.757812 32.714844 121.757812 C 33.183594 121.761719 37.011719 123.648438 37.675781 124.199219 C 37.910156 124.394531 38.210938 124.433594 38.347656 124.296875 C 38.5 124.140625 38.792969 124.277344 39.023438 124.59375 C 39.25 124.886719 40.054688 125.539062 40.828125 126.023438 C 42.328125 126.980469 43.839844 128.304688 44.351562 129.109375 C 44.519531 129.382812 45.078125 129.855469 45.585938 130.128906 C 47.09375 130.988281 49.707031 133.585938 50.539062 135.019531 C 50.953125 135.765625 51.949219 137.085938 52.757812 137.964844 C 53.558594 138.839844 54.320312 139.871094 54.433594 140.242188 C 54.796875 141.382812 57.445312 146.6875 57.933594 147.253906 C 58.179688 147.53125 58.582031 148.707031 58.808594 149.855469 C 59.042969 151.007812 59.457031 152.261719 59.714844 152.675781 C 60.273438 153.519531 61.988281 158.625 62.835938 161.90625 C 63.148438 163.160156 63.648438 164.457031 63.953125 164.792969 C 64.253906 165.125 64.425781 165.496094 64.308594 165.597656 C 64.203125 165.695312 64.503906 167.226562 64.972656 168.976562 C 65.429688 170.722656 65.738281 172.34375 65.644531 172.597656 C 65.558594 172.824219 65.664062 173.097656 65.878906 173.175781 C 66.09375 173.234375 66.269531 173.882812 66.269531 174.589844 C 66.269531 175.296875 66.390625 175.878906 66.511719 175.878906 C 66.738281 175.878906 67.230469 178.230469 67.351562 179.910156 C 67.390625 180.308594 67.488281 180.773438 67.605469 180.953125 C 67.714844 181.140625 67.902344 182.09375 68.015625 183.085938 C 68.128906 184.074219 68.316406 185.136719 68.441406 185.453125 C 68.566406 185.78125 68.476562 186 68.207031 186 C 67.925781 186 67.992188 186.175781 68.386719 186.453125 C 69.113281 186.992188 69.390625 189.28125 68.933594 190.890625 C 68.726562 191.578125 68.75 191.933594 68.992188 191.933594 C 69.199219 191.933594 69.285156 192.324219 69.199219 192.796875 C 69.101562 193.265625 69.15625 193.582031 69.292969 193.492188 C 69.433594 193.414062 69.558594 194.003906 69.558594 194.808594 C 69.558594 195.625 69.660156 197 69.777344 197.871094 C 70.152344 200.648438 70.207031 203.792969 69.890625 203.890625 C 69.71875 203.949219 69.777344 204.441406 70.011719 204.972656 C 70.375 205.753906 70.375 206.011719 70.027344 206.230469 C 69.761719 206.386719 69.671875 206.835938 69.785156 207.328125 C 69.898438 207.789062 70.046875 208.683594 70.117188 209.300781 C 70.277344 210.820312 71.933594 212.976562 72.75 212.707031 C 73.09375 212.609375 73.570312 212.757812 73.808594 213.050781 L 73.820312 213.042969 C 74.058594 213.335938 74.386719 213.570312 74.53125 213.570312 C 75.101562 213.570312 77.84375 211.253906 77.855469 210.765625 C 77.867188 210.492188 78.058594 209.917969 78.289062 209.496094 C 78.835938 208.503906 78.820312 207.976562 78.25 207.976562 C 78.015625 207.976562 77.789062 207.664062 77.753906 207.25 C 77.695312 206.523438 77.707031 206.523438 78.449219 207.171875 C 79.164062 207.789062 79.164062 207.78125 78.398438 206.679688 C 77.9375 206.011719 77.789062 205.539062 78.023438 205.539062 C 78.34375 205.539062 78.359375 205.425781 78.035156 205.046875 C 77.808594 204.777344 77.53125 203.398438 77.4375 201.984375 C 77.332031 200.589844 77.160156 199.195312 77.046875 198.914062 C 76.945312 198.621094 76.90625 198.234375 76.953125 198.039062 C 77.074219 197.707031 77.246094 189.28125 77.34375 179.011719 C 77.382812 175.671875 77.558594 173.585938 77.867188 172.882812 C 78.136719 172.242188 78.277344 170.917969 78.207031 169.574219 C 78.152344 168.328125 78.25 167.128906 78.4375 166.894531 C 78.613281 166.65625 78.707031 166.261719 78.613281 166.007812 C 78.535156 165.773438 78.671875 164.957031 78.933594 164.222656 C 79.199219 163.464844 79.398438 162.433594 79.398438 161.902344 C 79.398438 160.34375 81.285156 153.433594 81.925781 152.675781 C 82.070312 152.496094 82.199219 152.003906 82.199219 151.574219 C 82.199219 151.164062 82.433594 150.621094 82.71875 150.378906 C 83.019531 150.140625 83.46875 149.195312 83.742188 148.292969 C 84.320312 146.332031 85.144531 144.671875 86.261719 143.1875 C 86.726562 142.601562 87.085938 141.992188 87.085938 141.832031 C 87.085938 141.265625 90.234375 135.097656 90.742188 134.683594 C 91.039062 134.441406 91.28125 134.117188 91.28125 133.957031 C 91.28125 133.796875 91.742188 132.96875 92.320312 132.113281 C 92.902344 131.257812 93.367188 130.421875 93.367188 130.246094 C 93.367188 130.070312 93.640625 129.695312 93.984375 129.382812 C 94.324219 129.089844 94.886719 128.429688 95.242188 127.910156 C 95.605469 127.421875 96.015625 127.074219 96.164062 127.164062 C 96.308594 127.265625 96.71875 126.949219 97.074219 126.457031 C 97.4375 125.988281 97.914062 125.59375 98.152344 125.59375 C 98.386719 125.59375 98.742188 125.277344 98.949219 124.90625 C 99.304688 124.269531 102.132812 122.6875 103.054688 122.648438 C 103.277344 122.628906 103.691406 122.332031 103.960938 121.960938 C 104.28125 121.519531 104.6875 121.363281 105.1875 121.5 C 105.605469 121.605469 105.9375 121.570312 105.9375 121.410156 C 105.9375 121.019531 108.613281 119.652344 109.371094 119.652344 C 109.710938 119.652344 110.144531 119.503906 110.324219 119.335938 C 110.652344 119.003906 114.628906 117.90625 115.804688 117.816406 C 116.140625 117.796875 116.417969 117.632812 116.417969 117.472656 C 116.417969 117.308594 116.574219 117.265625 116.769531 117.40625 C 116.960938 117.523438 117.632812 117.441406 118.253906 117.253906 C 120.074219 116.660156 121.371094 116.441406 123.222656 116.34375 C 124.175781 116.304688 125.683594 116.066406 126.546875 115.824219 C 127.410156 115.585938 128.898438 115.324219 129.863281 115.234375 C 132.324219 115.007812 132.917969 114.910156 133.625 114.613281 C 134.464844 114.242188 137.964844 114.613281 138.601562 115.136719 C 138.871094 115.363281 139.707031 115.617188 140.421875 115.660156 C 141.136719 115.722656 142.320312 115.851562 143.039062 115.933594 C 144.007812 116.046875 144.351562 115.96875 144.351562 115.617188 C 144.351562 115.339844 144.488281 115.125 144.648438 115.125 C 144.925781 115.125 145.332031 113.851562 145.578125 112.082031 C 145.636719 111.667969 145.460938 111.140625 145.191406 110.914062 Z M 126.335938 108.882812 C 126.148438 108.902344 124.917969 108.980469 123.574219 109.058594 C 122.199219 109.144531 120.789062 109.429688 120.316406 109.753906 C 119.855469 110.058594 119.164062 110.226562 118.792969 110.117188 C 118.414062 110.019531 116.832031 110.316406 115.289062 110.785156 C 113.742188 111.246094 112.332031 111.535156 112.164062 111.433594 C 111.980469 111.316406 111.609375 111.414062 111.335938 111.640625 C 111.050781 111.882812 110.820312 111.945312 110.820312 111.804688 C 110.820312 111.667969 110.617188 111.710938 110.371094 111.925781 C 110.132812 112.144531 109.394531 112.398438 108.742188 112.515625 C 108.09375 112.625 107.441406 112.789062 107.28125 112.886719 C 107.117188 112.984375 106.648438 113.132812 106.242188 113.210938 C 105.835938 113.289062 104.882812 113.671875 104.128906 114.066406 C 103.378906 114.457031 102.539062 114.78125 102.25 114.78125 C 101.980469 114.78125 101.746094 114.910156 101.746094 115.097656 C 101.746094 115.285156 101.277344 115.519531 100.695312 115.636719 C 100.117188 115.773438 99.652344 116.03125 99.652344 116.226562 C 99.652344 116.402344 99.492188 116.460938 99.285156 116.34375 C 99.09375 116.226562 98.492188 116.597656 97.945312 117.175781 C 97.398438 117.757812 96.320312 118.484375 95.539062 118.796875 C 94.75 119.113281 94.039062 119.574219 93.933594 119.839844 C 93.84375 120.085938 93.296875 120.398438 92.730469 120.527344 C 92.117188 120.652344 91.617188 121.027344 91.515625 121.429688 C 91.410156 121.804688 90.890625 122.3125 90.34375 122.546875 C 89.695312 122.824219 89.308594 123.273438 89.257812 123.835938 C 89.207031 124.308594 88.945312 124.921875 88.671875 125.242188 C 88.402344 125.535156 87.996094 126.160156 87.796875 126.640625 C 87.59375 127.125 87.148438 127.949219 86.820312 128.453125 C 86.480469 128.96875 85.535156 130.484375 84.730469 131.839844 C 83.914062 133.171875 83.035156 134.492188 82.785156 134.734375 C 82.550781 135 82.058594 135.953125 81.707031 136.886719 C 81.351562 137.808594 80.535156 139.574219 79.886719 140.832031 C 79.242188 142.078125 78.707031 143.316406 78.707031 143.5625 C 78.707031 143.816406 78.5 144.113281 78.25 144.199219 C 78.003906 144.289062 77.570312 145.074219 77.296875 145.898438 C 77.027344 146.742188 76.605469 147.628906 76.355469 147.882812 C 76.113281 148.140625 75.910156 148.628906 75.910156 148.980469 C 75.910156 149.316406 75.664062 150.210938 75.351562 150.933594 C 74.34375 153.351562 72.628906 160.234375 72.296875 163.152344 L 72.296875 163.160156 C 72.226562 163.738281 72.035156 164.476562 71.851562 164.792969 C 71.589844 165.273438 71.476562 165.226562 71.101562 164.4375 C 70.863281 163.933594 70.667969 163.394531 70.667969 163.257812 C 70.667969 163.121094 70.484375 162.554688 70.257812 162.023438 C 70.035156 161.480469 69.804688 160.707031 69.757812 160.285156 C 69.53125 158.425781 66.230469 148.390625 65.738281 148.089844 C 65.566406 147.984375 65.429688 147.507812 65.429688 147.019531 C 65.429688 145.976562 63.082031 140.910156 62.410156 140.519531 C 62.160156 140.351562 61.945312 139.949219 61.945312 139.59375 C 61.945312 139.242188 61.707031 138.761719 61.417969 138.515625 C 61.136719 138.277344 60.898438 137.867188 60.898438 137.59375 C 60.898438 136.25 52.714844 125.269531 51.714844 125.261719 C 51.433594 125.261719 51.03125 124.90625 47.882812 121.960938 C 46.964844 121.113281 45.90625 120.300781 45.523438 120.195312 C 45.148438 120.066406 44.839844 119.820312 44.839844 119.644531 C 44.839844 119.46875 44.613281 119.320312 44.339844 119.320312 C 44.0625 119.320312 43.792969 119.171875 43.738281 119.007812 C 43.597656 118.640625 41.882812 117.59375 39.601562 116.464844 C 38.738281 116.03125 37.816406 115.472656 37.5625 115.234375 C 37.316406 114.988281 36.691406 114.691406 36.167969 114.578125 C 35.660156 114.460938 34.769531 114.164062 34.191406 113.910156 C 30.746094 112.433594 28.121094 111.535156 27.167969 111.457031 C 26.566406 111.414062 25.882812 111.265625 25.636719 111.101562 C 25.390625 110.964844 24.085938 110.628906 22.742188 110.375 C 21.390625 110.117188 20.210938 109.824219 20.109375 109.730469 C 19.84375 109.453125 21.113281 108.566406 22.144531 108.3125 C 22.617188 108.195312 23.085938 107.980469 23.195312 107.859375 C 23.28125 107.726562 24.542969 107.007812 25.988281 106.25 C 27.429688 105.503906 28.679688 104.796875 28.78125 104.679688 C 28.871094 104.5625 29.386719 104.277344 29.921875 104.042969 C 30.4375 103.816406 30.871094 103.464844 30.871094 103.265625 C 30.871094 103.070312 31.082031 102.902344 31.324219 102.902344 C 31.566406 102.902344 32.3125 102.441406 32.972656 101.871094 C 33.640625 101.304688 34.394531 100.828125 34.632812 100.828125 C 34.882812 100.828125 35.167969 100.574219 35.28125 100.289062 C 35.394531 100.007812 35.609375 99.851562 35.757812 99.9375 C 35.910156 100.023438 36.222656 99.867188 36.464844 99.59375 C 36.703125 99.300781 37.148438 99.0625 37.460938 99.0625 C 37.773438 99.0625 38.417969 98.75 38.90625 98.355469 C 39.386719 97.972656 40.632812 97.023438 41.691406 96.253906 C 42.734375 95.488281 44.550781 93.9375 45.738281 92.816406 C 46.90625 91.6875 48.191406 90.601562 48.59375 90.382812 C 49.398438 89.953125 51.679688 87.691406 53.640625 85.394531 C 56.207031 82.398438 57.054688 81.347656 57.054688 81.152344 C 57.054688 81.035156 57.433594 80.542969 57.886719 80.054688 C 58.351562 79.542969 59.292969 78.089844 59.984375 76.792969 C 60.683594 75.519531 61.738281 73.59375 62.34375 72.53125 C 62.933594 71.472656 63.730469 69.753906 64.089844 68.703125 C 64.917969 66.308594 66.71875 61.710938 67.636719 59.609375 C 68.429688 57.804688 69.953125 53.484375 70.15625 52.460938 C 70.445312 51.007812 72.152344 43.644531 72.683594 41.515625 L 73.242188 39.292969 L 73.726562 40.992188 C 74.765625 44.578125 74.898438 45.175781 75 46.382812 C 75.058594 47.082031 75.183594 47.785156 75.273438 47.953125 C 75.363281 48.121094 75.652344 48.984375 75.910156 49.839844 C 76.179688 50.714844 76.515625 51.558594 76.667969 51.734375 C 76.828125 51.921875 76.953125 52.445312 76.953125 52.894531 C 76.953125 53.355469 77.421875 54.855469 77.992188 56.242188 C 78.558594 57.617188 79.128906 59.21875 79.257812 59.789062 C 79.527344 60.945312 81.953125 65.855469 84.003906 69.390625 C 84.167969 69.6875 84.546875 70.472656 84.839844 71.136719 C 86.308594 74.425781 86.949219 75.523438 88.957031 78.199219 C 91.324219 81.347656 97.605469 87.910156 98.871094 88.558594 C 99.304688 88.789062 99.652344 89.167969 99.652344 89.398438 C 99.652344 89.636719 100.117188 90.117188 100.695312 90.464844 C 101.28125 90.792969 101.746094 91.21875 101.746094 91.40625 C 101.746094 91.570312 102.179688 91.945312 102.707031 92.230469 C 103.234375 92.523438 104.617188 93.660156 105.777344 94.792969 C 106.949219 95.917969 108.402344 97.042969 109.015625 97.296875 C 109.621094 97.550781 110.132812 97.894531 110.132812 98.050781 C 110.132812 98.511719 113.417969 101.859375 113.847656 101.859375 C 114.0625 101.859375 114.402344 102.078125 114.621094 102.34375 C 114.835938 102.597656 116.398438 103.46875 118.078125 104.285156 C 119.746094 105.113281 121.402344 106.035156 121.75 106.339844 C 122.101562 106.632812 122.722656 106.9375 123.144531 106.996094 C 123.5625 107.066406 123.960938 107.273438 124.03125 107.449219 C 124.097656 107.644531 124.410156 107.800781 124.734375 107.800781 C 125.367188 107.8125 126.867188 108.8125 126.335938 108.882812 Z M 126.335938 108.882812 " fill-opacity="1" fill-rule="nonzero"/></g></g></g></g><g mask="url(#c69bcf705b)"><g transform="matrix(1, 0, 0, 1, 75, 168)"><g clip-path="url(#e87e657264)"><g clip-path="url(#414d4a9f3c)"><path fill="#b0c89f" d="M 96.65625 73.757812 C 96.476562 73.609375 96.320312 73.347656 96.320312 73.179688 C 96.320312 73.007812 96.1875 72.742188 96.023438 72.566406 C 95.636719 72.1875 95.3125 71.417969 95.371094 71.054688 C 95.394531 70.898438 95.125 70.703125 94.765625 70.625 C 94.414062 70.539062 94.023438 70.34375 93.894531 70.195312 C 93.765625 70.035156 93.3125 69.839844 92.890625 69.75 C 92.460938 69.671875 91.789062 69.449219 91.382812 69.269531 C 90.976562 69.070312 90.183594 68.871094 89.625 68.796875 C 89.058594 68.746094 88.539062 68.609375 88.460938 68.511719 C 88.273438 68.253906 83.054688 65.652344 82.738281 65.660156 C 82.390625 65.660156 81.554688 65.214844 80.578125 64.503906 C 80.144531 64.179688 79.507812 63.769531 79.171875 63.570312 C 77.925781 62.875 73.683594 59.539062 72.691406 58.476562 C 72.625 58.410156 72.285156 58.171875 71.9375 57.941406 C 71.585938 57.722656 71.292969 57.382812 71.292969 57.1875 C 71.292969 56.992188 71.191406 56.898438 71.050781 56.976562 C 70.609375 57.257812 67.667969 54.605469 65.109375 51.621094 C 64.574219 50.996094 63.726562 50.015625 63.234375 49.445312 C 62.734375 48.871094 62.042969 47.882812 61.695312 47.242188 C 61.34375 46.601562 60.933594 45.925781 60.777344 45.730469 C 60.617188 45.539062 60.308594 44.972656 60.09375 44.453125 C 59.878906 43.953125 59.550781 43.273438 59.371094 42.953125 C 59.191406 42.640625 58.804688 41.960938 58.507812 41.449219 C 58.019531 40.582031 57.765625 39.925781 56.492188 36.371094 C 56.226562 35.628906 55.902344 34.878906 55.765625 34.71875 C 55.636719 34.5625 55.421875 33.765625 55.28125 32.957031 C 55.140625 32.148438 54.898438 31.273438 54.742188 31.027344 C 54.582031 30.765625 54.394531 30.195312 54.324219 29.75 C 54.164062 28.707031 53.988281 27.945312 53.8125 27.671875 C 53.738281 27.546875 53.625 27.011719 53.550781 26.460938 C 53.476562 25.90625 53.339844 25.136719 53.234375 24.746094 C 53.140625 24.355469 53.066406 23.78125 53.085938 23.476562 C 53.109375 23.164062 53.027344 22.84375 52.90625 22.765625 C 52.792969 22.679688 52.671875 21.984375 52.636719 21.214844 C 52.605469 20.4375 52.5 19.691406 52.402344 19.535156 C 52.152344 19.117188 52.054688 3.945312 52.304688 3.789062 C 52.421875 3.714844 52.386719 3.410156 52.214844 3.070312 C 52.023438 2.707031 51.980469 2.300781 52.101562 1.984375 C 52.195312 1.703125 52.191406 1.480469 52.082031 1.480469 C 51.980469 1.480469 51.835938 1.285156 51.777344 1.039062 C 51.574219 0.28125 50.910156 0.0976562 49.746094 0.480469 C 49.175781 0.679688 48.628906 0.960938 48.53125 1.101562 C 48.445312 1.246094 48.367188 1.265625 48.359375 1.15625 C 48.359375 1.039062 48.148438 1.128906 47.890625 1.363281 C 47.476562 1.742188 47.4375 1.984375 47.558594 3.855469 C 47.648438 5.273438 47.605469 6.023438 47.417969 6.253906 C 47.234375 6.46875 47.226562 6.578125 47.386719 6.578125 C 47.554688 6.578125 47.621094 7.660156 47.589844 9.824219 C 47.566406 11.609375 47.460938 13.070312 47.367188 13.070312 C 47.265625 13.070312 47.195312 13.457031 47.222656 13.929688 C 47.242188 14.410156 47.089844 15.441406 46.878906 16.222656 C 46.675781 17.003906 46.503906 17.957031 46.503906 18.34375 C 46.503906 18.726562 46.351562 19.15625 46.15625 19.316406 C 45.976562 19.476562 45.871094 19.703125 45.949219 19.820312 C 46.011719 19.925781 45.96875 20.367188 45.832031 20.769531 C 45.589844 21.511719 45.464844 22.257812 45.25 24.070312 C 45.152344 24.9375 44.835938 26.375 44.078125 29.515625 C 43.902344 30.214844 43.59375 31.523438 43.378906 32.410156 C 42.9375 34.3125 42.105469 36.945312 41.851562 37.285156 C 41.753906 37.414062 41.316406 38.398438 40.878906 39.488281 C 39.988281 41.675781 39.40625 43.019531 38.976562 43.878906 C 38.816406 44.199219 38.5625 44.855469 38.402344 45.339844 C 38.253906 45.820312 37.71875 47 37.226562 47.964844 C 36.390625 49.585938 36.105469 49.984375 34.765625 51.425781 C 34.496094 51.726562 34.234375 52.066406 34.191406 52.1875 C 34.035156 52.597656 30.945312 55.777344 29.980469 56.515625 C 29.4375 56.929688 28.425781 57.8125 27.730469 58.488281 C 27.035156 59.15625 26.140625 59.847656 25.746094 60.007812 C 25.351562 60.171875 24.902344 60.472656 24.738281 60.667969 C 24.570312 60.875 24.335938 61.03125 24.214844 61.03125 C 24.09375 61.03125 23.628906 61.320312 23.175781 61.652344 C 22.722656 61.996094 22.210938 62.300781 22.03125 62.335938 C 21.847656 62.351562 21.523438 62.589844 21.304688 62.84375 C 20.894531 63.320312 14.5625 67.230469 14.015625 67.339844 C 13.851562 67.367188 13.664062 67.46875 13.601562 67.546875 C 13.40625 67.796875 7.710938 70.484375 6.988281 70.664062 C 6.609375 70.765625 5.863281 71.027344 5.328125 71.269531 C 4.777344 71.511719 4.074219 71.644531 3.714844 71.589844 C 3.367188 71.523438 3.019531 71.5625 2.949219 71.671875 C 2.886719 71.785156 2.617188 71.914062 2.363281 71.953125 C 1.074219 72.1875 0.320312 74.363281 1.222656 75.277344 C 1.496094 75.550781 1.761719 75.894531 1.8125 76.050781 C 1.945312 76.476562 4.109375 76.964844 6.011719 77.011719 C 8.25 77.0625 9.253906 77.152344 11.054688 77.445312 C 13.902344 77.910156 14.296875 78.007812 14.296875 78.21875 C 14.296875 78.339844 14.40625 78.363281 14.527344 78.289062 C 14.800781 78.117188 17.902344 79.082031 19.683594 79.890625 C 20.398438 80.222656 21.15625 80.496094 21.347656 80.496094 C 21.546875 80.496094 21.710938 80.59375 21.710938 80.722656 C 21.710938 80.855469 21.839844 80.953125 22.003906 80.953125 C 22.316406 80.957031 24.859375 82.210938 25.300781 82.574219 C 25.453125 82.707031 25.65625 82.730469 25.746094 82.640625 C 25.84375 82.535156 26.039062 82.625 26.191406 82.835938 C 26.34375 83.03125 26.878906 83.464844 27.390625 83.785156 C 28.386719 84.421875 29.390625 85.300781 29.730469 85.835938 C 29.84375 86.015625 30.210938 86.328125 30.550781 86.511719 C 31.550781 87.082031 33.28125 88.804688 33.835938 89.757812 C 34.109375 90.25 34.773438 91.128906 35.308594 91.710938 C 35.839844 92.292969 36.34375 92.976562 36.421875 93.222656 C 36.664062 93.980469 38.417969 97.5 38.742188 97.878906 C 38.90625 98.058594 39.171875 98.839844 39.324219 99.605469 C 39.480469 100.367188 39.753906 101.199219 39.925781 101.472656 C 40.296875 102.035156 41.4375 105.421875 41.996094 107.601562 C 42.203125 108.433594 42.539062 109.292969 42.738281 109.515625 C 42.9375 109.738281 43.050781 109.984375 42.972656 110.050781 C 42.90625 110.117188 43.105469 111.132812 43.414062 112.292969 C 43.71875 113.453125 43.925781 114.527344 43.863281 114.695312 C 43.804688 114.847656 43.875 115.027344 44.015625 115.082031 C 44.160156 115.121094 44.277344 115.550781 44.277344 116.019531 C 44.277344 116.488281 44.355469 116.875 44.4375 116.875 C 44.585938 116.875 44.914062 118.4375 44.992188 119.550781 C 45.019531 119.8125 45.085938 120.125 45.164062 120.242188 C 45.234375 120.367188 45.359375 121 45.433594 121.65625 C 45.507812 122.316406 45.636719 123.019531 45.71875 123.226562 C 45.800781 123.449219 45.742188 123.589844 45.5625 123.589844 C 45.375 123.589844 45.417969 123.710938 45.683594 123.894531 C 46.164062 124.25 46.347656 125.769531 46.042969 126.835938 C 45.90625 127.296875 45.921875 127.53125 46.082031 127.53125 C 46.21875 127.53125 46.277344 127.789062 46.21875 128.101562 C 46.15625 128.414062 46.191406 128.625 46.285156 128.5625 C 46.375 128.511719 46.460938 128.90625 46.460938 129.4375 C 46.460938 129.980469 46.527344 130.890625 46.601562 131.472656 C 46.851562 133.3125 46.890625 135.402344 46.679688 135.464844 C 46.566406 135.503906 46.601562 135.832031 46.761719 136.183594 C 47 136.703125 47 136.875 46.769531 137.019531 C 46.59375 137.121094 46.535156 137.421875 46.609375 137.746094 C 46.6875 138.054688 46.78125 138.648438 46.828125 139.054688 C 46.9375 140.066406 48.035156 141.496094 48.578125 141.316406 C 48.804688 141.253906 49.121094 141.351562 49.277344 141.546875 L 49.289062 141.539062 C 49.445312 141.734375 49.664062 141.890625 49.761719 141.890625 C 50.136719 141.890625 51.957031 140.351562 51.964844 140.027344 C 51.972656 139.847656 52.101562 139.46875 52.253906 139.183594 C 52.617188 138.527344 52.605469 138.175781 52.226562 138.175781 C 52.074219 138.175781 51.921875 137.96875 51.898438 137.695312 C 51.859375 137.214844 51.867188 137.214844 52.359375 137.640625 C 52.832031 138.054688 52.832031 138.046875 52.324219 137.316406 C 52.019531 136.875 51.921875 136.558594 52.078125 136.558594 C 52.289062 136.558594 52.300781 136.484375 52.085938 136.234375 C 51.933594 136.054688 51.75 135.140625 51.6875 134.203125 C 51.617188 133.277344 51.503906 132.351562 51.429688 132.160156 C 51.359375 131.96875 51.335938 131.710938 51.367188 131.582031 C 51.445312 131.359375 51.558594 125.769531 51.625 118.953125 C 51.652344 116.738281 51.765625 115.355469 51.972656 114.886719 C 52.152344 114.460938 52.246094 113.582031 52.199219 112.691406 C 52.160156 111.863281 52.226562 111.066406 52.351562 110.910156 C 52.46875 110.753906 52.53125 110.492188 52.46875 110.324219 C 52.414062 110.167969 52.507812 109.625 52.679688 109.140625 C 52.855469 108.636719 52.988281 107.953125 52.988281 107.601562 C 52.988281 106.5625 54.242188 101.976562 54.664062 101.472656 C 54.761719 101.355469 54.847656 101.03125 54.847656 100.742188 C 54.847656 100.46875 55.003906 100.113281 55.191406 99.949219 C 55.390625 99.792969 55.691406 99.167969 55.871094 98.566406 C 56.253906 97.265625 56.800781 96.160156 57.546875 95.179688 C 57.851562 94.789062 58.089844 94.386719 58.089844 94.277344 C 58.089844 93.902344 60.179688 89.808594 60.515625 89.535156 C 60.714844 89.375 60.875 89.160156 60.875 89.050781 C 60.875 88.945312 61.183594 88.394531 61.566406 87.828125 C 61.949219 87.261719 62.261719 86.707031 62.261719 86.589844 C 62.261719 86.472656 62.441406 86.222656 62.671875 86.015625 C 62.894531 85.820312 63.269531 85.382812 63.503906 85.039062 C 63.746094 84.714844 64.019531 84.484375 64.117188 84.542969 C 64.210938 84.609375 64.484375 84.402344 64.71875 84.074219 C 64.960938 83.761719 65.277344 83.5 65.4375 83.5 C 65.59375 83.5 65.828125 83.292969 65.964844 83.046875 C 66.199219 82.621094 68.078125 81.570312 68.691406 81.546875 C 68.839844 81.53125 69.113281 81.335938 69.292969 81.089844 C 69.503906 80.796875 69.773438 80.691406 70.105469 80.785156 C 70.382812 80.855469 70.601562 80.832031 70.601562 80.722656 C 70.601562 80.464844 72.378906 79.558594 72.882812 79.558594 C 73.105469 79.558594 73.394531 79.460938 73.515625 79.347656 C 73.734375 79.128906 76.371094 78.398438 77.152344 78.339844 C 77.375 78.324219 77.558594 78.21875 77.558594 78.109375 C 77.558594 78.003906 77.660156 77.976562 77.792969 78.066406 C 77.921875 78.144531 78.367188 78.089844 78.777344 77.96875 C 79.988281 77.570312 80.847656 77.425781 82.074219 77.359375 C 82.707031 77.335938 83.707031 77.179688 84.28125 77.019531 C 84.855469 76.859375 85.839844 76.683594 86.484375 76.625 C 88.117188 76.476562 88.511719 76.410156 88.976562 76.214844 C 89.535156 75.964844 91.859375 76.214844 92.28125 76.5625 C 92.460938 76.710938 93.015625 76.878906 93.488281 76.90625 C 93.964844 76.949219 94.75 77.035156 95.226562 77.089844 C 95.867188 77.164062 96.097656 77.113281 96.097656 76.878906 C 96.097656 76.695312 96.191406 76.554688 96.292969 76.554688 C 96.480469 76.554688 96.75 75.707031 96.914062 74.53125 C 96.949219 74.257812 96.835938 73.910156 96.65625 73.757812 Z M 84.140625 72.410156 C 84.019531 72.421875 83.199219 72.476562 82.308594 72.527344 C 81.394531 72.585938 80.460938 72.773438 80.144531 72.988281 C 79.839844 73.191406 79.382812 73.300781 79.132812 73.230469 C 78.882812 73.164062 77.835938 73.359375 76.808594 73.675781 C 75.785156 73.980469 74.847656 74.171875 74.734375 74.101562 C 74.613281 74.027344 74.367188 74.089844 74.183594 74.242188 C 73.996094 74.402344 73.84375 74.441406 73.84375 74.351562 C 73.84375 74.257812 73.707031 74.285156 73.546875 74.429688 C 73.386719 74.574219 72.898438 74.742188 72.464844 74.820312 C 72.035156 74.894531 71.601562 75.003906 71.492188 75.066406 C 71.386719 75.132812 71.074219 75.230469 70.804688 75.28125 C 70.535156 75.335938 69.902344 75.589844 69.402344 75.851562 C 68.90625 76.109375 68.347656 76.324219 68.15625 76.324219 C 67.976562 76.324219 67.820312 76.410156 67.820312 76.535156 C 67.820312 76.660156 67.511719 76.816406 67.125 76.890625 C 66.738281 76.984375 66.429688 77.152344 66.429688 77.285156 C 66.429688 77.402344 66.324219 77.441406 66.1875 77.359375 C 66.0625 77.285156 65.660156 77.53125 65.300781 77.914062 C 64.9375 78.300781 64.21875 78.78125 63.703125 78.992188 C 63.175781 79.199219 62.707031 79.507812 62.636719 79.683594 C 62.574219 79.84375 62.214844 80.054688 61.839844 80.136719 C 61.433594 80.222656 61.097656 80.472656 61.03125 80.738281 C 60.960938 80.984375 60.617188 81.324219 60.253906 81.480469 C 59.824219 81.664062 59.566406 81.960938 59.53125 82.335938 C 59.5 82.648438 59.324219 83.054688 59.144531 83.269531 C 58.964844 83.464844 58.695312 83.878906 58.5625 84.195312 C 58.425781 84.519531 58.132812 85.066406 57.914062 85.398438 C 57.691406 85.742188 57.0625 86.746094 56.527344 87.644531 C 55.988281 88.53125 55.402344 89.40625 55.238281 89.566406 C 55.082031 89.742188 54.753906 90.375 54.519531 90.996094 C 54.285156 91.609375 53.746094 92.78125 53.3125 93.613281 C 52.886719 94.441406 52.53125 95.261719 52.53125 95.425781 C 52.53125 95.597656 52.394531 95.792969 52.226562 95.851562 C 52.0625 95.90625 51.777344 96.429688 51.59375 96.976562 C 51.414062 97.535156 51.136719 98.125 50.96875 98.292969 C 50.808594 98.464844 50.675781 98.789062 50.675781 99.023438 C 50.675781 99.246094 50.511719 99.839844 50.304688 100.320312 C 49.636719 101.925781 48.496094 106.492188 48.277344 108.425781 L 48.277344 108.433594 C 48.230469 108.816406 48.101562 109.308594 47.980469 109.515625 C 47.808594 109.835938 47.734375 109.804688 47.480469 109.28125 C 47.324219 108.949219 47.195312 108.589844 47.195312 108.5 C 47.195312 108.40625 47.074219 108.03125 46.925781 107.679688 C 46.777344 107.320312 46.621094 106.804688 46.59375 106.527344 C 46.441406 105.292969 44.25 98.632812 43.921875 98.433594 C 43.808594 98.359375 43.71875 98.046875 43.71875 97.71875 C 43.71875 97.03125 42.160156 93.667969 41.714844 93.40625 C 41.550781 93.292969 41.40625 93.027344 41.40625 92.792969 C 41.40625 92.5625 41.246094 92.238281 41.054688 92.074219 C 40.867188 91.917969 40.710938 91.644531 40.710938 91.464844 C 40.710938 90.574219 35.28125 83.285156 34.617188 83.28125 C 34.429688 83.28125 34.160156 83.046875 32.074219 81.089844 C 31.464844 80.527344 30.761719 79.988281 30.503906 79.917969 C 30.257812 79.832031 30.054688 79.667969 30.054688 79.550781 C 30.054688 79.4375 29.902344 79.335938 29.71875 79.335938 C 29.539062 79.335938 29.359375 79.238281 29.320312 79.128906 C 29.230469 78.886719 28.089844 78.191406 26.578125 77.441406 C 26.003906 77.152344 25.390625 76.785156 25.222656 76.625 C 25.058594 76.460938 24.644531 76.265625 24.300781 76.191406 C 23.960938 76.113281 23.371094 75.914062 22.984375 75.746094 C 20.699219 74.769531 18.957031 74.171875 18.324219 74.117188 C 17.925781 74.089844 17.472656 73.992188 17.308594 73.882812 C 17.144531 73.792969 16.28125 73.570312 15.386719 73.402344 C 14.492188 73.230469 13.707031 73.035156 13.640625 72.972656 C 13.464844 72.789062 14.304688 72.203125 14.992188 72.03125 C 15.304688 71.953125 15.617188 71.808594 15.6875 71.730469 C 15.746094 71.640625 16.582031 71.164062 17.542969 70.664062 C 18.5 70.167969 19.328125 69.699219 19.394531 69.621094 C 19.453125 69.542969 19.796875 69.355469 20.152344 69.195312 C 20.496094 69.046875 20.785156 68.8125 20.785156 68.683594 C 20.785156 68.550781 20.921875 68.441406 21.085938 68.441406 C 21.242188 68.441406 21.738281 68.136719 22.175781 67.757812 C 22.621094 67.378906 23.121094 67.066406 23.28125 67.066406 C 23.445312 67.066406 23.632812 66.898438 23.710938 66.707031 C 23.785156 66.519531 23.929688 66.414062 24.023438 66.472656 C 24.128906 66.53125 24.335938 66.429688 24.496094 66.242188 C 24.652344 66.050781 24.949219 65.894531 25.15625 65.894531 C 25.363281 65.894531 25.792969 65.683594 26.113281 65.425781 C 26.433594 65.167969 27.261719 64.539062 27.964844 64.03125 C 28.65625 63.519531 29.859375 62.492188 30.648438 61.746094 C 31.425781 61 32.277344 60.277344 32.542969 60.132812 C 33.078125 59.847656 34.59375 58.347656 35.894531 56.820312 C 37.597656 54.832031 38.160156 54.136719 38.160156 54.007812 C 38.160156 53.929688 38.414062 53.601562 38.710938 53.277344 C 39.019531 52.9375 39.644531 51.972656 40.105469 51.113281 C 40.566406 50.265625 41.269531 48.988281 41.667969 48.285156 C 42.0625 47.582031 42.589844 46.441406 42.828125 45.742188 C 43.378906 44.152344 44.574219 41.105469 45.183594 39.710938 C 45.710938 38.511719 46.722656 35.640625 46.855469 34.964844 C 47.046875 34 48.179688 29.113281 48.53125 27.699219 L 48.902344 26.226562 L 49.226562 27.351562 C 49.914062 29.730469 50.003906 30.128906 50.070312 30.929688 C 50.109375 31.394531 50.191406 31.863281 50.25 31.972656 C 50.3125 32.085938 50.503906 32.65625 50.675781 33.222656 C 50.851562 33.804688 51.078125 34.367188 51.175781 34.484375 C 51.285156 34.605469 51.367188 34.953125 51.367188 35.25 C 51.367188 35.558594 51.679688 36.554688 52.058594 37.472656 C 52.429688 38.386719 52.808594 39.449219 52.898438 39.828125 C 53.074219 40.59375 54.6875 43.855469 56.046875 46.199219 C 56.152344 46.394531 56.40625 46.917969 56.601562 47.359375 C 57.578125 49.542969 58 50.269531 59.332031 52.046875 C 60.902344 54.136719 65.074219 58.488281 65.914062 58.921875 C 66.199219 59.074219 66.429688 59.324219 66.429688 59.480469 C 66.429688 59.636719 66.738281 59.957031 67.125 60.183594 C 67.511719 60.40625 67.820312 60.6875 67.820312 60.808594 C 67.820312 60.921875 68.109375 61.167969 68.460938 61.359375 C 68.808594 61.554688 69.726562 62.308594 70.496094 63.058594 C 71.273438 63.808594 72.238281 64.550781 72.648438 64.71875 C 73.046875 64.890625 73.386719 65.117188 73.386719 65.222656 C 73.386719 65.527344 75.566406 67.75 75.851562 67.75 C 75.996094 67.75 76.222656 67.894531 76.367188 68.070312 C 76.507812 68.238281 77.546875 68.816406 78.660156 69.359375 C 79.765625 69.910156 80.867188 70.519531 81.097656 70.722656 C 81.332031 70.917969 81.746094 71.121094 82.023438 71.160156 C 82.300781 71.203125 82.566406 71.34375 82.613281 71.457031 C 82.65625 71.589844 82.863281 71.691406 83.078125 71.691406 C 83.5 71.699219 84.496094 72.363281 84.140625 72.410156 Z M 84.140625 72.410156 " fill-opacity="1" fill-rule="nonzero"/></g></g></g></g><g mask="url(#783a2a1e15)"><g transform="matrix(1, 0, 0, 1, 172, 269)"><g clip-path="url(#2f3056a1f0)"><g clip-path="url(#c6c0e1fcd2)"><path fill="#b0c89f" d="M 54.628906 42.460938 C 54.527344 42.375 54.441406 42.226562 54.441406 42.132812 C 54.441406 42.035156 54.363281 41.882812 54.269531 41.785156 C 54.050781 41.570312 53.867188 41.132812 53.902344 40.929688 C 53.914062 40.839844 53.761719 40.726562 53.558594 40.683594 C 53.359375 40.636719 53.136719 40.527344 53.066406 40.441406 C 52.992188 40.351562 52.734375 40.242188 52.496094 40.191406 C 52.253906 40.144531 51.871094 40.019531 51.640625 39.917969 C 51.410156 39.804688 50.960938 39.691406 50.648438 39.648438 C 50.324219 39.621094 50.03125 39.542969 49.988281 39.488281 C 49.882812 39.339844 46.925781 37.867188 46.746094 37.871094 C 46.550781 37.871094 46.074219 37.621094 45.523438 37.21875 C 45.277344 37.035156 44.917969 36.800781 44.726562 36.691406 C 44.019531 36.296875 41.617188 34.40625 41.054688 33.804688 C 41.015625 33.765625 40.824219 33.632812 40.628906 33.5 C 40.429688 33.375 40.265625 33.183594 40.265625 33.074219 C 40.265625 32.960938 40.207031 32.910156 40.128906 32.957031 C 39.875 33.113281 38.210938 31.609375 36.761719 29.921875 C 36.457031 29.566406 35.976562 29.011719 35.699219 28.6875 C 35.414062 28.363281 35.023438 27.800781 34.828125 27.441406 C 34.628906 27.078125 34.394531 26.695312 34.304688 26.585938 C 34.214844 26.476562 34.042969 26.15625 33.921875 25.859375 C 33.796875 25.578125 33.613281 25.191406 33.511719 25.011719 C 33.40625 24.835938 33.1875 24.449219 33.023438 24.160156 C 32.746094 23.667969 32.601562 23.296875 31.878906 21.28125 C 31.730469 20.863281 31.546875 20.4375 31.46875 20.347656 C 31.394531 20.257812 31.273438 19.808594 31.195312 19.347656 C 31.113281 18.890625 30.976562 18.398438 30.886719 18.257812 C 30.796875 18.109375 30.691406 17.785156 30.652344 17.535156 C 30.5625 16.941406 30.460938 16.511719 30.363281 16.355469 C 30.320312 16.285156 30.257812 15.984375 30.214844 15.667969 C 30.171875 15.355469 30.09375 14.921875 30.035156 14.699219 C 29.980469 14.476562 29.941406 14.152344 29.953125 13.980469 C 29.964844 13.800781 29.917969 13.621094 29.851562 13.578125 C 29.785156 13.527344 29.71875 13.132812 29.695312 12.699219 C 29.679688 12.257812 29.621094 11.835938 29.5625 11.746094 C 29.421875 11.507812 29.367188 2.917969 29.507812 2.828125 C 29.574219 2.789062 29.554688 2.613281 29.457031 2.421875 C 29.347656 2.214844 29.324219 1.984375 29.390625 1.804688 C 29.445312 1.648438 29.445312 1.523438 29.382812 1.523438 C 29.324219 1.523438 29.242188 1.410156 29.210938 1.269531 C 29.09375 0.84375 28.71875 0.738281 28.058594 0.953125 C 27.734375 1.066406 27.425781 1.226562 27.371094 1.308594 C 27.320312 1.390625 27.277344 1.398438 27.273438 1.335938 C 27.273438 1.269531 27.152344 1.324219 27.007812 1.457031 C 26.773438 1.671875 26.75 1.804688 26.820312 2.867188 C 26.871094 3.667969 26.847656 4.09375 26.738281 4.222656 C 26.636719 4.34375 26.632812 4.40625 26.722656 4.40625 C 26.816406 4.40625 26.855469 5.019531 26.835938 6.246094 C 26.824219 7.257812 26.765625 8.085938 26.710938 8.085938 C 26.65625 8.085938 26.613281 8.304688 26.628906 8.570312 C 26.640625 8.84375 26.554688 9.425781 26.4375 9.871094 C 26.320312 10.3125 26.222656 10.851562 26.222656 11.070312 C 26.222656 11.289062 26.136719 11.53125 26.027344 11.625 C 25.925781 11.714844 25.863281 11.839844 25.90625 11.90625 C 25.945312 11.96875 25.917969 12.21875 25.84375 12.445312 C 25.703125 12.867188 25.636719 13.289062 25.511719 14.316406 C 25.457031 14.804688 25.277344 15.621094 24.847656 17.402344 C 24.75 17.796875 24.574219 18.539062 24.453125 19.039062 C 24.203125 20.117188 23.730469 21.609375 23.585938 21.800781 C 23.53125 21.875 23.285156 22.429688 23.035156 23.046875 C 22.53125 24.289062 22.203125 25.046875 21.957031 25.535156 C 21.867188 25.714844 21.722656 26.089844 21.632812 26.363281 C 21.550781 26.636719 21.246094 27.304688 20.96875 27.851562 C 20.492188 28.769531 20.332031 28.996094 19.574219 29.8125 C 19.421875 29.980469 19.273438 30.171875 19.246094 30.242188 C 19.160156 30.476562 17.410156 32.277344 16.863281 32.695312 C 16.554688 32.929688 15.984375 33.425781 15.589844 33.8125 C 15.195312 34.1875 14.6875 34.578125 14.464844 34.671875 C 14.242188 34.761719 13.988281 34.933594 13.894531 35.042969 C 13.800781 35.164062 13.667969 35.25 13.597656 35.25 C 13.527344 35.25 13.265625 35.414062 13.007812 35.601562 C 12.753906 35.796875 12.464844 35.972656 12.359375 35.988281 C 12.257812 36 12.074219 36.132812 11.949219 36.277344 C 11.71875 36.546875 8.128906 38.761719 7.820312 38.824219 C 7.726562 38.839844 7.621094 38.898438 7.585938 38.941406 C 7.476562 39.082031 4.25 40.605469 3.839844 40.707031 C 3.625 40.765625 3.203125 40.914062 2.898438 41.050781 C 2.589844 41.1875 2.191406 41.261719 1.984375 41.230469 C 1.789062 41.195312 1.59375 41.214844 1.554688 41.277344 C 1.515625 41.339844 1.367188 41.414062 1.222656 41.4375 C 0.492188 41.570312 0.0625 42.804688 0.574219 43.320312 C 0.730469 43.476562 0.878906 43.671875 0.910156 43.757812 C 0.984375 44 2.210938 44.277344 3.289062 44.300781 C 4.554688 44.332031 5.121094 44.382812 6.144531 44.550781 C 7.757812 44.8125 7.980469 44.867188 7.980469 44.984375 C 7.980469 45.054688 8.042969 45.070312 8.109375 45.027344 C 8.265625 44.929688 10.023438 45.476562 11.03125 45.933594 C 11.4375 46.121094 11.863281 46.277344 11.972656 46.277344 C 12.085938 46.277344 12.179688 46.332031 12.179688 46.40625 C 12.179688 46.480469 12.25 46.535156 12.347656 46.535156 C 12.523438 46.539062 13.960938 47.246094 14.210938 47.453125 C 14.300781 47.527344 14.414062 47.542969 14.464844 47.492188 C 14.519531 47.433594 14.632812 47.484375 14.71875 47.601562 C 14.804688 47.714844 15.105469 47.957031 15.398438 48.140625 C 15.960938 48.5 16.527344 48.996094 16.722656 49.300781 C 16.785156 49.402344 16.992188 49.582031 17.1875 49.683594 C 17.753906 50.003906 18.734375 50.984375 19.046875 51.523438 C 19.203125 51.800781 19.578125 52.296875 19.882812 52.628906 C 20.179688 52.957031 20.46875 53.34375 20.511719 53.484375 C 20.648438 53.914062 21.644531 55.90625 21.828125 56.121094 C 21.917969 56.222656 22.070312 56.667969 22.15625 57.097656 C 22.246094 57.53125 22.398438 58.003906 22.496094 58.160156 C 22.707031 58.476562 23.351562 60.394531 23.667969 61.628906 C 23.789062 62.101562 23.976562 62.585938 24.089844 62.714844 C 24.203125 62.839844 24.265625 62.980469 24.222656 63.015625 C 24.183594 63.054688 24.296875 63.628906 24.472656 64.285156 C 24.644531 64.941406 24.761719 65.550781 24.726562 65.648438 C 24.695312 65.734375 24.730469 65.835938 24.8125 65.867188 C 24.894531 65.886719 24.960938 66.132812 24.960938 66.398438 C 24.960938 66.664062 25.003906 66.878906 25.050781 66.878906 C 25.136719 66.878906 25.320312 67.765625 25.367188 68.398438 C 25.382812 68.546875 25.417969 68.722656 25.464844 68.789062 C 25.503906 68.859375 25.574219 69.21875 25.617188 69.589844 C 25.660156 69.960938 25.730469 70.359375 25.777344 70.480469 C 25.824219 70.605469 25.789062 70.6875 25.6875 70.6875 C 25.582031 70.6875 25.605469 70.753906 25.757812 70.855469 C 26.03125 71.058594 26.132812 71.917969 25.960938 72.523438 C 25.882812 72.785156 25.894531 72.917969 25.984375 72.917969 C 26.0625 72.917969 26.09375 73.0625 26.0625 73.242188 C 26.027344 73.417969 26.046875 73.535156 26.097656 73.503906 C 26.148438 73.472656 26.199219 73.695312 26.199219 73.996094 C 26.199219 74.304688 26.234375 74.820312 26.277344 75.148438 C 26.417969 76.191406 26.441406 77.375 26.320312 77.410156 C 26.257812 77.433594 26.277344 77.617188 26.367188 77.816406 C 26.503906 78.113281 26.503906 78.207031 26.371094 78.289062 C 26.273438 78.347656 26.238281 78.519531 26.28125 78.703125 C 26.324219 78.875 26.378906 79.214844 26.40625 79.445312 C 26.46875 80.015625 27.089844 80.828125 27.398438 80.726562 C 27.527344 80.6875 27.707031 80.746094 27.792969 80.855469 L 27.800781 80.851562 C 27.886719 80.960938 28.011719 81.050781 28.066406 81.050781 C 28.28125 81.050781 29.3125 80.179688 29.316406 79.996094 C 29.320312 79.890625 29.394531 79.675781 29.480469 79.519531 C 29.683594 79.144531 29.679688 78.949219 29.464844 78.949219 C 29.375 78.949219 29.292969 78.828125 29.277344 78.675781 C 29.253906 78.402344 29.257812 78.402344 29.539062 78.644531 C 29.808594 78.875 29.808594 78.875 29.519531 78.460938 C 29.347656 78.207031 29.292969 78.03125 29.378906 78.03125 C 29.5 78.03125 29.503906 77.988281 29.382812 77.847656 C 29.296875 77.746094 29.195312 77.226562 29.15625 76.695312 C 29.121094 76.171875 29.054688 75.648438 29.011719 75.539062 C 28.972656 75.429688 28.960938 75.285156 28.976562 75.210938 C 29.023438 75.085938 29.085938 71.917969 29.125 68.058594 C 29.136719 66.804688 29.203125 66.019531 29.320312 65.753906 C 29.421875 65.515625 29.472656 65.015625 29.449219 64.511719 C 29.425781 64.042969 29.464844 63.589844 29.535156 63.503906 C 29.601562 63.414062 29.636719 63.265625 29.601562 63.171875 C 29.570312 63.082031 29.621094 62.777344 29.722656 62.5 C 29.820312 62.214844 29.894531 61.828125 29.894531 61.628906 C 29.894531 61.039062 30.605469 58.441406 30.84375 58.160156 C 30.898438 58.089844 30.949219 57.90625 30.949219 57.742188 C 30.949219 57.589844 31.035156 57.386719 31.144531 57.296875 C 31.257812 57.207031 31.425781 56.851562 31.527344 56.511719 C 31.746094 55.773438 32.054688 55.148438 32.476562 54.59375 C 32.648438 54.371094 32.785156 54.144531 32.785156 54.082031 C 32.785156 53.871094 33.96875 51.550781 34.160156 51.394531 C 34.273438 51.304688 34.363281 51.183594 34.363281 51.121094 C 34.363281 51.0625 34.535156 50.75 34.753906 50.429688 C 34.972656 50.109375 35.148438 49.792969 35.148438 49.726562 C 35.148438 49.660156 35.25 49.519531 35.378906 49.402344 C 35.507812 49.292969 35.71875 49.042969 35.851562 48.851562 C 35.988281 48.664062 36.144531 48.535156 36.199219 48.570312 C 36.253906 48.605469 36.40625 48.488281 36.539062 48.300781 C 36.675781 48.125 36.855469 47.976562 36.945312 47.976562 C 37.035156 47.976562 37.167969 47.859375 37.246094 47.71875 C 37.378906 47.480469 38.441406 46.886719 38.789062 46.871094 C 38.875 46.863281 39.027344 46.753906 39.128906 46.613281 C 39.25 46.445312 39.402344 46.386719 39.589844 46.4375 C 39.746094 46.480469 39.871094 46.464844 39.871094 46.40625 C 39.871094 46.257812 40.878906 45.746094 41.164062 45.746094 C 41.289062 45.746094 41.453125 45.6875 41.519531 45.625 C 41.644531 45.5 43.140625 45.085938 43.582031 45.054688 C 43.707031 45.046875 43.8125 44.984375 43.8125 44.925781 C 43.8125 44.863281 43.871094 44.847656 43.945312 44.898438 C 44.015625 44.945312 44.269531 44.914062 44.5 44.84375 C 45.1875 44.621094 45.675781 44.539062 46.371094 44.5 C 46.730469 44.488281 47.292969 44.398438 47.621094 44.304688 C 47.945312 44.214844 48.503906 44.117188 48.867188 44.082031 C 49.792969 44 50.015625 43.960938 50.28125 43.851562 C 50.597656 43.710938 51.910156 43.851562 52.152344 44.046875 C 52.253906 44.132812 52.566406 44.226562 52.835938 44.242188 C 53.105469 44.269531 53.550781 44.316406 53.820312 44.347656 C 54.183594 44.390625 54.3125 44.359375 54.3125 44.226562 C 54.3125 44.125 54.363281 44.042969 54.425781 44.042969 C 54.527344 44.042969 54.679688 43.5625 54.773438 42.898438 C 54.796875 42.742188 54.730469 42.542969 54.628906 42.460938 Z M 47.539062 41.695312 C 47.46875 41.703125 47.007812 41.734375 46.503906 41.761719 C 45.984375 41.796875 45.457031 41.902344 45.277344 42.023438 C 45.105469 42.136719 44.84375 42.203125 44.703125 42.160156 C 44.5625 42.125 43.96875 42.234375 43.386719 42.410156 C 42.808594 42.585938 42.277344 42.691406 42.214844 42.65625 C 42.144531 42.609375 42.003906 42.648438 41.902344 42.734375 C 41.792969 42.824219 41.707031 42.847656 41.707031 42.796875 C 41.707031 42.742188 41.632812 42.757812 41.539062 42.839844 C 41.449219 42.921875 41.171875 43.019531 40.925781 43.0625 C 40.683594 43.101562 40.4375 43.164062 40.378906 43.199219 C 40.316406 43.238281 40.140625 43.292969 39.988281 43.324219 C 39.832031 43.351562 39.476562 43.496094 39.191406 43.644531 C 38.910156 43.792969 38.59375 43.914062 38.484375 43.914062 C 38.386719 43.914062 38.296875 43.960938 38.296875 44.03125 C 38.296875 44.101562 38.121094 44.191406 37.902344 44.234375 C 37.683594 44.285156 37.507812 44.382812 37.507812 44.457031 C 37.507812 44.523438 37.449219 44.546875 37.371094 44.5 C 37.300781 44.457031 37.074219 44.597656 36.867188 44.8125 C 36.664062 45.03125 36.257812 45.304688 35.964844 45.421875 C 35.667969 45.542969 35.398438 45.714844 35.359375 45.816406 C 35.324219 45.90625 35.121094 46.027344 34.90625 46.074219 C 34.679688 46.121094 34.488281 46.261719 34.449219 46.414062 C 34.410156 46.554688 34.214844 46.746094 34.011719 46.832031 C 33.765625 46.9375 33.621094 47.105469 33.601562 47.316406 C 33.582031 47.496094 33.484375 47.726562 33.382812 47.847656 C 33.28125 47.957031 33.128906 48.191406 33.054688 48.371094 C 32.976562 48.554688 32.808594 48.863281 32.6875 49.050781 C 32.558594 49.246094 32.203125 49.816406 31.898438 50.324219 C 31.59375 50.828125 31.261719 51.324219 31.167969 51.414062 C 31.082031 51.515625 30.894531 51.871094 30.761719 52.222656 C 30.628906 52.570312 30.324219 53.234375 30.078125 53.707031 C 29.835938 54.175781 29.636719 54.640625 29.636719 54.734375 C 29.636719 54.828125 29.558594 54.941406 29.464844 54.972656 C 29.371094 55.003906 29.210938 55.300781 29.105469 55.609375 C 29.003906 55.929688 28.84375 56.261719 28.75 56.355469 C 28.660156 56.453125 28.585938 56.636719 28.585938 56.769531 C 28.585938 56.894531 28.492188 57.230469 28.375 57.503906 C 27.996094 58.414062 27.351562 61 27.226562 62.097656 L 27.226562 62.101562 C 27.199219 62.316406 27.128906 62.59375 27.058594 62.714844 C 26.960938 62.894531 26.917969 62.875 26.777344 62.582031 C 26.6875 62.390625 26.613281 62.1875 26.613281 62.136719 C 26.613281 62.085938 26.546875 61.871094 26.460938 61.671875 C 26.375 61.46875 26.289062 61.175781 26.273438 61.019531 C 26.1875 60.320312 24.945312 56.546875 24.761719 56.433594 C 24.695312 56.394531 24.644531 56.214844 24.644531 56.03125 C 24.644531 55.640625 23.761719 53.738281 23.507812 53.589844 C 23.417969 53.527344 23.335938 53.375 23.335938 53.242188 C 23.335938 53.109375 23.246094 52.929688 23.136719 52.835938 C 23.03125 52.746094 22.941406 52.589844 22.941406 52.488281 C 22.941406 51.984375 19.863281 47.855469 19.488281 47.851562 C 19.382812 47.851562 19.230469 47.71875 18.050781 46.613281 C 17.703125 46.292969 17.304688 45.988281 17.160156 45.949219 C 17.019531 45.898438 16.90625 45.808594 16.90625 45.742188 C 16.90625 45.675781 16.820312 45.621094 16.714844 45.621094 C 16.613281 45.621094 16.511719 45.5625 16.488281 45.5 C 16.4375 45.363281 15.792969 44.96875 14.9375 44.546875 C 14.609375 44.382812 14.265625 44.171875 14.167969 44.082031 C 14.078125 43.992188 13.839844 43.878906 13.644531 43.835938 C 13.453125 43.792969 13.121094 43.683594 12.902344 43.585938 C 11.605469 43.03125 10.621094 42.695312 10.261719 42.664062 C 10.035156 42.648438 9.777344 42.59375 9.683594 42.53125 C 9.59375 42.480469 9.105469 42.351562 8.597656 42.257812 C 8.089844 42.160156 7.648438 42.050781 7.609375 42.015625 C 7.507812 41.910156 7.984375 41.578125 8.371094 41.480469 C 8.550781 41.4375 8.726562 41.355469 8.769531 41.3125 C 8.800781 41.261719 9.273438 40.992188 9.816406 40.707031 C 10.359375 40.425781 10.828125 40.160156 10.867188 40.117188 C 10.902344 40.074219 11.09375 39.964844 11.296875 39.875 C 11.492188 39.792969 11.652344 39.660156 11.652344 39.585938 C 11.652344 39.511719 11.730469 39.449219 11.824219 39.449219 C 11.914062 39.449219 12.195312 39.273438 12.445312 39.0625 C 12.695312 38.847656 12.976562 38.667969 13.066406 38.667969 C 13.164062 38.667969 13.269531 38.574219 13.3125 38.464844 C 13.355469 38.359375 13.433594 38.300781 13.488281 38.332031 C 13.546875 38.367188 13.664062 38.308594 13.757812 38.203125 C 13.847656 38.09375 14.011719 38.003906 14.132812 38.003906 C 14.246094 38.003906 14.492188 37.886719 14.675781 37.738281 C 14.855469 37.59375 15.324219 37.238281 15.722656 36.949219 C 16.113281 36.660156 16.796875 36.078125 17.242188 35.65625 C 17.683594 35.230469 18.164062 34.824219 18.316406 34.742188 C 18.617188 34.578125 19.476562 33.730469 20.214844 32.867188 C 21.175781 31.742188 21.496094 31.34375 21.496094 31.273438 C 21.496094 31.226562 21.640625 31.042969 21.808594 30.859375 C 21.984375 30.667969 22.339844 30.121094 22.597656 29.632812 C 22.859375 29.152344 23.257812 28.429688 23.484375 28.03125 C 23.707031 27.632812 24.003906 26.984375 24.140625 26.59375 C 24.453125 25.691406 25.128906 23.964844 25.472656 23.175781 C 25.773438 22.496094 26.34375 20.871094 26.421875 20.484375 C 26.53125 19.941406 27.171875 17.171875 27.371094 16.371094 L 27.582031 15.535156 L 27.765625 16.175781 C 28.15625 17.523438 28.203125 17.746094 28.242188 18.203125 C 28.265625 18.464844 28.3125 18.730469 28.34375 18.792969 C 28.378906 18.855469 28.488281 19.179688 28.585938 19.5 C 28.6875 19.828125 28.8125 20.148438 28.871094 20.214844 C 28.929688 20.285156 28.976562 20.480469 28.976562 20.648438 C 28.976562 20.824219 29.152344 21.386719 29.367188 21.90625 C 29.578125 22.425781 29.792969 23.027344 29.84375 23.242188 C 29.945312 23.675781 30.855469 25.523438 31.628906 26.851562 C 31.6875 26.960938 31.832031 27.257812 31.941406 27.507812 C 32.496094 28.742188 32.734375 29.15625 33.488281 30.160156 C 34.378906 31.34375 36.742188 33.8125 37.214844 34.054688 C 37.378906 34.144531 37.507812 34.285156 37.507812 34.371094 C 37.507812 34.460938 37.683594 34.640625 37.902344 34.773438 C 38.121094 34.894531 38.296875 35.054688 38.296875 35.125 C 38.296875 35.1875 38.460938 35.328125 38.660156 35.4375 C 38.855469 35.546875 39.375 35.972656 39.8125 36.398438 C 40.253906 36.824219 40.800781 37.246094 41.03125 37.339844 C 41.257812 37.4375 41.449219 37.566406 41.449219 37.625 C 41.449219 37.796875 42.683594 39.054688 42.847656 39.054688 C 42.925781 39.054688 43.054688 39.136719 43.136719 39.238281 C 43.21875 39.332031 43.804688 39.660156 44.4375 39.96875 C 45.0625 40.277344 45.6875 40.625 45.816406 40.738281 C 45.949219 40.851562 46.183594 40.964844 46.339844 40.988281 C 46.5 41.011719 46.648438 41.089844 46.675781 41.15625 C 46.699219 41.230469 46.816406 41.289062 46.9375 41.289062 C 47.175781 41.292969 47.742188 41.667969 47.539062 41.695312 Z M 47.539062 41.695312 " fill-opacity="1" fill-rule="nonzero"/></g></g></g></g></svg>