<svg xmlns="http://www.w3.org/2000/svg" xmlns:xlink="http://www.w3.org/1999/xlink" width="500" zoomAndPan="magnify" viewBox="0 0 375 374.999991" height="500" preserveAspectRatio="xMidYMid meet" version="1.0"><defs><filter x="0%" y="0%" width="100%" height="100%" id="8d6575f5e7"><feColorMatrix values="0 0 0 0 1 0 0 0 0 1 0 0 0 0 1 0 0 0 1 0" color-interpolation-filters="sRGB"/></filter><g/><clipPath id="646557ac8f"><path d="M 0.078125 0.558594 L 366.320312 0.558594 L 366.320312 102.078125 L 0.078125 102.078125 Z M 0.078125 0.558594 " clip-rule="nonzero"/></clipPath><mask id="008b03d0de"><g filter="url(#8d6575f5e7)"><rect x="-86.5" width="540" fill="#000000" y="-218.499998" height="539.999987" fill-opacity="0.51"/></g></mask><clipPath id="3058fab0bf"><path d="M 1 1.394531 L 365.511719 1.394531 L 365.511719 102 L 1 102 Z M 1 1.394531 " clip-rule="nonzero"/></clipPath><clipPath id="da826f36bc"><rect x="0" width="367" y="0" height="103"/></clipPath><clipPath id="90c99ba02e"><rect x="0" width="367" y="0" height="103"/></clipPath></defs><rect x="-37.5" width="450" fill="#ffffff" y="-37.499999" height="449.999989" fill-opacity="1"/><rect x="-37.5" width="450" fill="#ffffff" y="-37.499999" height="449.999989" fill-opacity="1"/><g transform="matrix(1, 0, 0, 1, 4, 136)"><g clip-path="url(#90c99ba02e)"><g clip-path="url(#646557ac8f)"><g mask="url(#008b03d0de)"><g><g clip-path="url(#da826f36bc)"><g clip-path="url(#3058fab0bf)"><path fill="#b0c89f" d="M 364.839844 55.136719 C 363.273438 53.230469 361.53125 51.5 359.617188 49.941406 C 351.953125 43.671875 342.4375 40.234375 333.046875 37.480469 C 321.421875 34.066406 309.628906 31.171875 297.789062 28.609375 C 273.660156 23.386719 249.289062 19.765625 224.679688 17.753906 C 200.070312 15.742188 175.4375 15.351562 150.777344 16.582031 C 126.992188 17.628906 103.410156 20.386719 80.027344 24.855469 C 58.6875 29.085938 37.507812 35.503906 18.527344 46.324219 C 16.667969 47.382812 14.84375 48.496094 13.039062 49.636719 C 12.851562 48.097656 13 46.589844 13.484375 45.113281 C 13.96875 43.636719 14.746094 42.335938 15.816406 41.207031 C 19.292969 37.683594 24.742188 36.148438 29.234375 34.394531 C 49.683594 26.488281 70.628906 20.265625 92.078125 15.734375 C 113.578125 11.203125 135.273438 8.027344 157.167969 6.203125 C 179.1875 4.296875 201.289062 3.550781 223.382812 3.574219 C 245.527344 3.597656 267.660156 4.390625 289.765625 5.597656 C 295.132812 5.890625 300.496094 6.207031 305.859375 6.542969 C 306.96875 6.613281 306.960938 4.894531 305.859375 4.824219 C 282.140625 3.304688 258.394531 2.15625 234.625 1.824219 C 210.761719 1.492188 186.871094 1.984375 163.066406 3.785156 C 139.65625 5.472656 116.449219 8.667969 93.453125 13.371094 C 70.367188 18.105469 47.859375 24.792969 25.929688 33.433594 C 21.519531 35.191406 16.488281 36.851562 13.425781 40.691406 C 12.324219 42.152344 11.566406 43.769531 11.152344 45.550781 C 10.734375 47.328125 10.699219 49.113281 11.039062 50.910156 C 8.941406 52.289062 6.882812 53.726562 4.863281 55.222656 C 3.84375 55.898438 2.875 56.640625 1.957031 57.445312 C 0.984375 58.398438 1.429688 59.773438 1.511719 61.039062 L 2.125 70.792969 C 2.1875 71.808594 1.972656 73.175781 2.75 73.9375 C 3.839844 74.808594 5.011719 75.554688 6.265625 76.167969 C 8.628906 77.59375 11.039062 78.929688 13.503906 80.179688 C 18.335938 82.617188 23.300781 84.746094 28.398438 86.566406 C 49.347656 94.09375 71.710938 96.707031 93.78125 98.453125 C 118.382812 100.398438 143.070312 101.519531 167.753906 101.296875 C 192.269531 101.167969 216.664062 99.402344 240.945312 96 C 253.078125 94.25 265.125 91.988281 277.085938 89.21875 C 284.875 87.566406 292.5625 85.527344 300.148438 83.097656 C 308.335938 81.808594 316.492188 80.332031 324.585938 78.566406 C 330.726562 77.226562 336.835938 75.730469 342.886719 74.019531 C 347.253906 72.886719 351.425781 71.253906 355.402344 69.125 C 357.320312 68.136719 359.054688 66.894531 360.613281 65.402344 C 362.171875 63.914062 363.488281 62.230469 364.5625 60.363281 C 365.027344 59.492188 365.40625 58.585938 365.699219 57.644531 C 366.035156 56.492188 365.570312 56.039062 364.839844 55.136719 Z M 274.730469 87.089844 C 252.195312 92.183594 229.40625 95.542969 206.359375 97.171875 C 183.347656 98.796875 160.316406 99.199219 137.261719 98.378906 C 115.023438 97.664062 92.640625 96.464844 70.566406 93.59375 C 49.886719 90.902344 29.050781 86.113281 10.707031 75.867188 C 8.667969 74.726562 6.671875 73.507812 4.703125 72.238281 C 4.429688 67.851562 4.152344 63.46875 3.878906 59.082031 C 6.40625 57.113281 9 55.25 11.660156 53.488281 C 11.675781 53.535156 11.683594 53.582031 11.703125 53.628906 C 13.328125 58.347656 16.917969 61.941406 20.871094 64.824219 C 25.375 68 30.117188 70.761719 35.097656 73.113281 C 55.128906 82.9375 77.265625 87.402344 99.320312 89.671875 C 123.574219 92.164062 148.121094 92.550781 172.484375 92.429688 C 198.296875 92.300781 224.078125 91.136719 249.824219 88.933594 C 259.71875 88.085938 269.617188 87.117188 279.492188 85.9375 C 277.902344 86.328125 276.320312 86.726562 274.730469 87.089844 Z M 344.148438 71.144531 C 333.113281 74.382812 321.929688 76.976562 310.59375 78.921875 C 310.351562 78.96875 310.105469 79.003906 309.863281 79.046875 C 316.589844 75.570312 322.683594 70.308594 324.21875 62.554688 C 324.355469 62.0625 324.242188 61.636719 323.882812 61.273438 C 305.816406 45.972656 282.726562 38.96875 259.742188 35.195312 C 247.222656 33.136719 234.570312 31.886719 221.921875 30.847656 C 207.6875 29.675781 193.425781 28.9375 179.140625 28.632812 C 163.074219 28.289062 147.007812 28.488281 130.945312 29.238281 C 129.265625 29.316406 129.257812 31.9375 130.945312 31.859375 C 158.921875 30.570312 186.871094 30.929688 214.800781 32.945312 C 239.289062 34.714844 264.480469 36.828125 287.910156 44.628906 C 294.015625 46.566406 299.890625 49.054688 305.535156 52.09375 C 311.179688 55.128906 316.492188 58.664062 321.476562 62.691406 C 319.46875 70.6875 312.097656 75.46875 304.859375 78.5 C 302.484375 79.496094 300.050781 80.320312 297.589844 81.074219 C 278.5625 84.003906 259.355469 85.890625 240.171875 87.347656 C 216.222656 89.167969 192.222656 90.089844 168.179688 90.113281 C 145.550781 90.132812 122.785156 89.703125 100.257812 87.472656 C 79.519531 85.425781 58.636719 81.445312 39.566406 72.777344 C 34.78125 70.613281 30.152344 68.152344 25.679688 65.398438 C 21.410156 62.757812 17.074219 59.621094 14.671875 55.082031 C 14.195312 54.183594 13.820312 53.242188 13.539062 52.265625 C 29.464844 42.058594 47.421875 35.265625 65.734375 30.605469 C 89.253906 24.617188 113.59375 21.644531 137.757812 19.859375 C 163.589844 17.953125 189.433594 17.839844 215.28125 19.523438 C 241.128906 21.207031 266.734375 24.664062 292.101562 29.902344 C 304.742188 32.515625 317.28125 35.566406 329.71875 39.058594 C 339.820312 41.898438 350.410156 45.246094 358.535156 52.175781 C 360.273438 53.667969 361.863281 55.304688 363.304688 57.089844 C 360.523438 65.128906 351.699219 68.847656 344.148438 71.144531 Z M 344.148438 71.144531 " fill-opacity="1" fill-rule="nonzero"/></g></g></g></g></g><g fill="#b0c89f" fill-opacity="1"><g transform="translate(79.085094, 66.541042)"><g><path d="M 29.4375 -6 C 29.90625 -6.382812 30.316406 -6.539062 30.671875 -6.46875 C 31.023438 -6.40625 31.210938 -6.066406 31.234375 -5.453125 C 31.234375 -4.960938 30.953125 -4.441406 30.390625 -3.890625 C 29.835938 -3.347656 29.296875 -2.984375 28.765625 -2.796875 C 28.421875 -2.660156 28.046875 -2.664062 27.640625 -2.8125 C 27.234375 -2.96875 26.910156 -3.140625 26.671875 -3.328125 L 26.328125 -3.65625 C 26.304688 -3.65625 26.191406 -3.726562 25.984375 -3.875 C 25.785156 -4.03125 25.546875 -4.207031 25.265625 -4.40625 C 24.984375 -4.613281 24.664062 -4.8125 24.3125 -5 C 23.96875 -5.195312 23.644531 -5.332031 23.34375 -5.40625 C 23.039062 -5.476562 22.773438 -5.472656 22.546875 -5.390625 C 22.242188 -5.234375 21.9375 -4.960938 21.625 -4.578125 C 21.3125 -4.203125 20.988281 -3.75 20.65625 -3.21875 C 20.332031 -2.695312 20.09375 -2.351562 19.9375 -2.1875 C 19.550781 -1.707031 19.222656 -1.347656 18.953125 -1.109375 C 18.691406 -0.878906 18.367188 -0.671875 17.984375 -0.484375 C 17.304688 -0.140625 16.488281 0.015625 15.53125 -0.015625 C 14.582031 -0.046875 13.710938 -0.242188 12.921875 -0.609375 C 12.023438 -1.054688 11.367188 -1.273438 10.953125 -1.265625 C 10.535156 -1.253906 10.21875 -1.035156 10 -0.609375 C 9.851562 -0.304688 9.648438 -0.125 9.390625 -0.0625 C 9.140625 0 8.585938 -0.0078125 7.734375 -0.09375 C 7.023438 -0.15625 6.445312 -0.253906 6 -0.390625 C 4.5 -0.816406 3.359375 -1.476562 2.578125 -2.375 C 1.796875 -3.269531 1.394531 -4.269531 1.375 -5.375 C 1.351562 -6.488281 1.554688 -7.628906 1.984375 -8.796875 C 2.410156 -9.960938 3.039062 -11.101562 3.875 -12.21875 C 4.28125 -12.769531 4.6875 -13.078125 5.09375 -13.140625 C 5.289062 -13.179688 5.429688 -13.210938 5.515625 -13.234375 C 5.660156 -13.265625 5.851562 -13.300781 6.09375 -13.34375 C 6.257812 -13.34375 6.484375 -13.082031 6.765625 -12.5625 C 6.972656 -11.988281 6.898438 -11.175781 6.546875 -10.125 C 6.097656 -9.019531 5.875 -7.644531 5.875 -6 C 5.875 -4.84375 5.90625 -4.128906 5.96875 -3.859375 C 6.03125 -3.597656 6.222656 -3.429688 6.546875 -3.359375 C 6.953125 -3.335938 7.523438 -3.691406 8.265625 -4.421875 C 9.015625 -5.148438 9.390625 -5.738281 9.390625 -6.1875 C 9.390625 -6.507812 9.671875 -6.863281 10.234375 -7.25 C 10.867188 -7.675781 11.539062 -8.441406 12.25 -9.546875 C 13 -10.765625 13.660156 -11.441406 14.234375 -11.578125 C 15.285156 -11.847656 15.9375 -11.640625 16.1875 -10.953125 C 16.445312 -10.273438 16.210938 -9.40625 15.484375 -8.34375 C 14.929688 -7.570312 14.484375 -6.660156 14.140625 -5.609375 C 13.796875 -4.566406 13.722656 -3.914062 13.921875 -3.65625 C 14.003906 -3.4375 14.363281 -3.328125 15 -3.328125 C 15.601562 -3.328125 16.492188 -3.953125 17.671875 -5.203125 C 18.847656 -6.453125 19.5625 -7.539062 19.8125 -8.46875 C 20.03125 -9.382812 20.363281 -10.207031 20.8125 -10.9375 C 21.082031 -11.382812 21.335938 -11.679688 21.578125 -11.828125 C 21.816406 -11.984375 22.171875 -12.0625 22.640625 -12.0625 C 23.109375 -12.0625 23.457031 -11.882812 23.6875 -11.53125 C 23.925781 -11.175781 24.066406 -10.769531 24.109375 -10.3125 C 24.148438 -9.851562 24.25 -9.347656 24.40625 -8.796875 C 24.570312 -8.253906 24.804688 -7.84375 25.109375 -7.5625 C 25.296875 -7.394531 25.59375 -7.191406 26 -6.953125 C 27.195312 -6.203125 28.140625 -5.765625 28.828125 -5.640625 C 28.828125 -5.640625 28.835938 -5.640625 28.859375 -5.640625 C 29.128906 -5.796875 29.320312 -5.914062 29.4375 -6 Z M 29.4375 -6 "/></g></g></g><g fill="#b0c89f" fill-opacity="1"><g transform="translate(107.428898, 66.541042)"><g><path d="M 15.0625 -3.59375 C 15.539062 -3.976562 15.953125 -4.128906 16.296875 -4.046875 C 16.648438 -3.972656 16.828125 -3.640625 16.828125 -3.046875 C 16.847656 -2.847656 16.8125 -2.65625 16.71875 -2.46875 C 16.625 -2.28125 16.519531 -2.113281 16.40625 -1.96875 C 16.300781 -1.832031 16.144531 -1.675781 15.9375 -1.5 C 15.738281 -1.332031 15.578125 -1.207031 15.453125 -1.125 C 15.328125 -1.039062 15.140625 -0.914062 14.890625 -0.75 C 14.648438 -0.59375 14.503906 -0.492188 14.453125 -0.453125 C 13.941406 -0.109375 13.421875 0.179688 12.890625 0.421875 C 12.847656 0.441406 12.785156 0.46875 12.703125 0.5 C 12.628906 0.53125 12.550781 0.5625 12.46875 0.59375 C 12.382812 0.625 12.300781 0.65625 12.21875 0.6875 C 12.132812 0.71875 12.0625 0.742188 12 0.765625 L 11.921875 0.796875 C 10.617188 1.335938 9.222656 1.648438 7.734375 1.734375 C 6.191406 1.816406 5.066406 1.675781 4.359375 1.3125 C 4.273438 1.269531 3.929688 1.117188 3.328125 0.859375 C 2.734375 0.609375 2.304688 0.382812 2.046875 0.1875 C 1.554688 -0.125 1.085938 -0.816406 0.640625 -1.890625 C -0.191406 -3.816406 -0.609375 -5.515625 -0.609375 -6.984375 C -0.609375 -7.890625 -0.445312 -9.066406 -0.125 -10.515625 C -0.101562 -10.597656 -0.0664062 -10.78125 -0.015625 -11.0625 C 0.0351562 -11.34375 0.0820312 -11.550781 0.125 -11.6875 C 0.164062 -11.820312 0.21875 -12.007812 0.28125 -12.25 C 0.351562 -12.5 0.421875 -12.707031 0.484375 -12.875 C 0.546875 -13.050781 0.617188 -13.226562 0.703125 -13.40625 C 0.785156 -13.59375 0.875 -13.765625 0.96875 -13.921875 C 1.414062 -14.535156 1.773438 -14.984375 2.046875 -15.265625 C 3.203125 -16.460938 4.664062 -16.992188 6.4375 -16.859375 C 8.28125 -16.710938 9.273438 -16.101562 9.421875 -15.03125 C 9.554688 -14.195312 9.507812 -13.335938 9.28125 -12.453125 C 9.0625 -11.566406 8.785156 -10.832031 8.453125 -10.25 C 8.117188 -9.675781 7.65625 -8.929688 7.0625 -8.015625 C 6.476562 -7.097656 6.054688 -6.394531 5.796875 -5.90625 C 4.859375 -4.125 4.390625 -3.0625 4.390625 -2.71875 C 4.390625 -2.445312 4.65625 -2.050781 5.1875 -1.53125 C 5.53125 -1.21875 5.835938 -1.023438 6.109375 -0.953125 C 6.378906 -0.890625 6.863281 -0.925781 7.5625 -1.0625 C 8.675781 -1.207031 9.882812 -1.472656 11.1875 -1.859375 C 11.675781 -2.023438 12.390625 -2.3125 13.328125 -2.71875 C 14.273438 -3.125 14.851562 -3.414062 15.0625 -3.59375 Z M 2.625 -5.875 C 2.820312 -5.875 3.359375 -6.707031 4.234375 -8.375 C 5.085938 -10.039062 5.515625 -11.039062 5.515625 -11.375 C 5.515625 -11.78125 5.296875 -12.039062 4.859375 -12.15625 C 4.421875 -12.28125 4.070312 -12.179688 3.8125 -11.859375 C 3.601562 -11.609375 3.390625 -11.222656 3.171875 -10.703125 C 2.960938 -10.191406 2.789062 -9.671875 2.65625 -9.140625 C 2.550781 -8.609375 2.457031 -8.09375 2.375 -7.59375 C 2.289062 -7.101562 2.269531 -6.691406 2.3125 -6.359375 C 2.351562 -6.035156 2.457031 -5.875 2.625 -5.875 Z M 2.625 -5.875 "/></g></g></g><g fill="#b0c89f" fill-opacity="1"><g transform="translate(121.865166, 66.541042)"><g><path d="M 20.140625 -6.21875 C 20.160156 -6.09375 20.171875 -5.847656 20.171875 -5.484375 C 20.171875 -4.671875 19.820312 -4.132812 19.125 -3.875 C 18.425781 -3.625 17.148438 -3.550781 15.296875 -3.65625 L 12.1875 -3.8125 L 11.15625 -1.859375 C 10.46875 -0.535156 9.707031 0.425781 8.875 1.03125 C 8.039062 1.644531 6.929688 2.070312 5.546875 2.3125 C 4.085938 2.539062 2.910156 2.484375 2.015625 2.140625 C 1.316406 1.867188 0.710938 1.453125 0.203125 0.890625 C -0.296875 0.335938 -0.648438 -0.269531 -0.859375 -0.9375 C -1.078125 -1.613281 -1.21875 -2.335938 -1.28125 -3.109375 C -1.34375 -3.878906 -1.300781 -4.617188 -1.15625 -5.328125 C -0.957031 -6.523438 -0.570312 -8.25 0 -10.5 C 0.570312 -12.757812 0.96875 -14.410156 1.1875 -15.453125 C 1.507812 -17.265625 1.894531 -18.664062 2.34375 -19.65625 C 2.957031 -21.0625 3.445312 -22.148438 3.8125 -22.921875 C 4.15625 -23.648438 4.582031 -24.503906 5.09375 -25.484375 C 5.375 -26.023438 5.707031 -26.816406 6.09375 -27.859375 C 6.351562 -28.546875 6.5625 -29.0625 6.71875 -29.40625 C 6.875 -29.75 7.101562 -30.179688 7.40625 -30.703125 C 7.707031 -31.222656 8.066406 -31.660156 8.484375 -32.015625 C 8.898438 -32.367188 9.382812 -32.679688 9.9375 -32.953125 C 10.539062 -33.253906 11.132812 -33.410156 11.71875 -33.421875 C 12.300781 -33.429688 12.84375 -33.234375 13.34375 -32.828125 C 13.851562 -32.296875 14.140625 -31.546875 14.203125 -30.578125 C 14.265625 -29.617188 14.203125 -28.75 14.015625 -27.96875 C 13.835938 -27.1875 13.601562 -26.414062 13.3125 -25.65625 C 12.457031 -23.507812 11.890625 -21.925781 11.609375 -20.90625 C 11.367188 -19.988281 11.066406 -19.207031 10.703125 -18.5625 C 9.035156 -15.613281 8.171875 -14.078125 8.109375 -13.953125 C 7.210938 -12.347656 6.015625 -10.539062 4.515625 -8.53125 C 3.703125 -7.414062 3.175781 -6.125 2.9375 -4.65625 C 2.707031 -3.195312 2.90625 -2.335938 3.53125 -2.078125 C 3.550781 -2.035156 3.65625 -1.972656 3.84375 -1.890625 C 4.039062 -1.804688 4.222656 -1.722656 4.390625 -1.640625 C 4.585938 -1.546875 4.757812 -1.445312 4.90625 -1.34375 C 5.226562 -1.175781 5.5 -1.101562 5.71875 -1.125 C 5.945312 -1.144531 6.253906 -1.269531 6.640625 -1.5 C 7.046875 -1.800781 7.582031 -2.597656 8.25 -3.890625 C 8.925781 -5.179688 9.265625 -6.117188 9.265625 -6.703125 C 9.265625 -7.210938 9.476562 -7.703125 9.90625 -8.171875 C 10.332031 -8.640625 10.78125 -8.875 11.25 -8.875 C 11.832031 -8.875 12.582031 -8.382812 13.5 -7.40625 C 13.96875 -6.9375 14.375 -6.609375 14.71875 -6.421875 C 15.0625 -6.242188 15.332031 -6.15625 15.53125 -6.15625 C 15.738281 -6.15625 16.140625 -6.195312 16.734375 -6.28125 C 17.316406 -6.363281 17.875 -6.414062 18.40625 -6.4375 C 18.976562 -6.507812 19.398438 -6.519531 19.671875 -6.46875 C 19.941406 -6.425781 20.097656 -6.34375 20.140625 -6.21875 Z M 4.90625 -17.984375 C 4.476562 -16.742188 4.195312 -15.722656 4.0625 -14.921875 C 3.9375 -14.117188 3.972656 -13.65625 4.171875 -13.53125 C 4.378906 -13.53125 4.742188 -14.109375 5.265625 -15.265625 C 5.515625 -15.773438 6.082031 -16.921875 6.96875 -18.703125 C 7.851562 -20.492188 8.4375 -21.707031 8.71875 -22.34375 C 9.550781 -24.375 9.96875 -25.507812 9.96875 -25.75 C 9.96875 -26.425781 9.378906 -26.125 8.203125 -24.84375 C 7.453125 -23.945312 7.078125 -23.367188 7.078125 -23.109375 C 7.078125 -22.710938 6.789062 -22.019531 6.21875 -21.03125 C 5.769531 -20.238281 5.332031 -19.222656 4.90625 -17.984375 Z M 4.90625 -17.984375 "/></g></g></g><g fill="#b0c89f" fill-opacity="1"><g transform="translate(139.922523, 66.541042)"><g/></g></g><g fill="#b0c89f" fill-opacity="1"><g transform="translate(154.551065, 66.541042)"><g><path d="M 23.765625 -4.90625 C 24.234375 -5.3125 24.640625 -5.476562 24.984375 -5.40625 C 25.335938 -5.332031 25.515625 -4.992188 25.515625 -4.390625 C 25.535156 -4.203125 25.5 -4.007812 25.40625 -3.8125 C 25.3125 -3.625 25.207031 -3.457031 25.09375 -3.3125 C 24.988281 -3.175781 24.832031 -3.015625 24.625 -2.828125 C 24.425781 -2.648438 24.265625 -2.519531 24.140625 -2.4375 C 24.015625 -2.351562 23.828125 -2.226562 23.578125 -2.0625 C 23.335938 -1.90625 23.195312 -1.804688 23.15625 -1.765625 C 22.632812 -1.421875 22.109375 -1.144531 21.578125 -0.9375 C 21.492188 -0.882812 21.34375 -0.796875 21.125 -0.671875 C 20.914062 -0.546875 20.753906 -0.460938 20.640625 -0.421875 C 19.941406 -0.140625 19.421875 0.0195312 19.078125 0.0625 C 17.265625 0.300781 16.023438 0.34375 15.359375 0.1875 C 14.691406 0.0390625 13.941406 -0.40625 13.109375 -1.15625 C 12.597656 -1.664062 12.234375 -2.132812 12.015625 -2.5625 C 11.804688 -2.988281 11.640625 -3.566406 11.515625 -4.296875 C 11.253906 -5.472656 10.992188 -6.070312 10.734375 -6.09375 C 10.546875 -6.09375 10.320312 -5.878906 10.0625 -5.453125 C 9.71875 -4.828125 9.109375 -4.035156 8.234375 -3.078125 C 7.359375 -2.117188 6.644531 -1.445312 6.09375 -1.0625 C 5.707031 -0.800781 5.273438 -0.585938 4.796875 -0.421875 C 4.316406 -0.265625 3.796875 -0.15625 3.234375 -0.09375 C 2.460938 -0.03125 1.945312 -0.0234375 1.6875 -0.078125 C 1.4375 -0.128906 1.207031 -0.328125 1 -0.671875 C 0.332031 -1.722656 0.0976562 -3.289062 0.296875 -5.375 C 0.503906 -7.457031 1.078125 -9.222656 2.015625 -10.671875 C 2.578125 -11.484375 3.335938 -12.34375 4.296875 -13.25 C 5.253906 -14.164062 6.28125 -14.921875 7.375 -15.515625 C 8.0625 -15.921875 9.25 -16.125 10.9375 -16.125 C 11.46875 -16.144531 11.914062 -16.222656 12.28125 -16.359375 C 12.644531 -16.503906 12.941406 -16.71875 13.171875 -17 C 13.410156 -17.289062 13.597656 -17.582031 13.734375 -17.875 C 13.878906 -18.164062 14.0625 -18.550781 14.28125 -19.03125 C 14.507812 -19.507812 14.726562 -19.921875 14.9375 -20.265625 C 18.226562 -25.460938 20.003906 -28.25 20.265625 -28.625 C 20.328125 -28.757812 20.453125 -28.988281 20.640625 -29.3125 C 21.992188 -31.59375 22.988281 -32.832031 23.625 -33.03125 C 24.1875 -33.195312 24.582031 -32.800781 24.8125 -31.84375 C 25.070312 -30.875 24.96875 -29.738281 24.5 -28.4375 C 24.03125 -27.132812 23.457031 -25.972656 22.78125 -24.953125 C 22.101562 -23.941406 21.296875 -22.78125 20.359375 -21.46875 C 19.421875 -20.15625 18.800781 -19.21875 18.5 -18.65625 C 18.238281 -18.226562 17.953125 -17.582031 17.640625 -16.71875 C 17.335938 -15.851562 17.125 -15.269531 17 -14.96875 C 15.132812 -10.925781 14.382812 -7.53125 14.75 -4.78125 C 14.875 -3.75 15.132812 -3.015625 15.53125 -2.578125 C 15.925781 -2.140625 16.5 -1.921875 17.25 -1.921875 C 17.78125 -1.921875 18.460938 -2.039062 19.296875 -2.28125 C 19.617188 -2.382812 19.8125 -2.457031 19.875 -2.5 C 21.519531 -3.351562 22.816406 -4.15625 23.765625 -4.90625 Z M 7.078125 -6.1875 C 10.117188 -10.03125 11.597656 -12.265625 11.515625 -12.890625 C 11.398438 -13.335938 10.984375 -13.554688 10.265625 -13.546875 C 9.554688 -13.535156 8.867188 -13.296875 8.203125 -12.828125 C 7.390625 -12.265625 6.5 -11.4375 5.53125 -10.34375 C 4.5625 -9.257812 3.9375 -8.390625 3.65625 -7.734375 C 3.332031 -7.023438 3.171875 -6.144531 3.171875 -5.09375 C 3.171875 -3.789062 3.425781 -3.171875 3.9375 -3.234375 C 4.539062 -3.296875 5.585938 -4.28125 7.078125 -6.1875 Z M 7.078125 -6.1875 "/></g></g></g><g fill="#b0c89f" fill-opacity="1"><g transform="translate(178.280391, 66.541042)"><g><path d="M 15.0625 -3.59375 C 15.539062 -3.976562 15.953125 -4.128906 16.296875 -4.046875 C 16.648438 -3.972656 16.828125 -3.640625 16.828125 -3.046875 C 16.847656 -2.847656 16.8125 -2.65625 16.71875 -2.46875 C 16.625 -2.28125 16.519531 -2.113281 16.40625 -1.96875 C 16.300781 -1.832031 16.144531 -1.675781 15.9375 -1.5 C 15.738281 -1.332031 15.578125 -1.207031 15.453125 -1.125 C 15.328125 -1.039062 15.140625 -0.914062 14.890625 -0.75 C 14.648438 -0.59375 14.503906 -0.492188 14.453125 -0.453125 C 13.941406 -0.109375 13.421875 0.179688 12.890625 0.421875 C 12.847656 0.441406 12.785156 0.46875 12.703125 0.5 C 12.628906 0.53125 12.550781 0.5625 12.46875 0.59375 C 12.382812 0.625 12.300781 0.65625 12.21875 0.6875 C 12.132812 0.71875 12.0625 0.742188 12 0.765625 L 11.921875 0.796875 C 10.617188 1.335938 9.222656 1.648438 7.734375 1.734375 C 6.191406 1.816406 5.066406 1.675781 4.359375 1.3125 C 4.273438 1.269531 3.929688 1.117188 3.328125 0.859375 C 2.734375 0.609375 2.304688 0.382812 2.046875 0.1875 C 1.554688 -0.125 1.085938 -0.816406 0.640625 -1.890625 C -0.191406 -3.816406 -0.609375 -5.515625 -0.609375 -6.984375 C -0.609375 -7.890625 -0.445312 -9.066406 -0.125 -10.515625 C -0.101562 -10.597656 -0.0664062 -10.78125 -0.015625 -11.0625 C 0.0351562 -11.34375 0.0820312 -11.550781 0.125 -11.6875 C 0.164062 -11.820312 0.21875 -12.007812 0.28125 -12.25 C 0.351562 -12.5 0.421875 -12.707031 0.484375 -12.875 C 0.546875 -13.050781 0.617188 -13.226562 0.703125 -13.40625 C 0.785156 -13.59375 0.875 -13.765625 0.96875 -13.921875 C 1.414062 -14.535156 1.773438 -14.984375 2.046875 -15.265625 C 3.203125 -16.460938 4.664062 -16.992188 6.4375 -16.859375 C 8.28125 -16.710938 9.273438 -16.101562 9.421875 -15.03125 C 9.554688 -14.195312 9.507812 -13.335938 9.28125 -12.453125 C 9.0625 -11.566406 8.785156 -10.832031 8.453125 -10.25 C 8.117188 -9.675781 7.65625 -8.929688 7.0625 -8.015625 C 6.476562 -7.097656 6.054688 -6.394531 5.796875 -5.90625 C 4.859375 -4.125 4.390625 -3.0625 4.390625 -2.71875 C 4.390625 -2.445312 4.65625 -2.050781 5.1875 -1.53125 C 5.53125 -1.21875 5.835938 -1.023438 6.109375 -0.953125 C 6.378906 -0.890625 6.863281 -0.925781 7.5625 -1.0625 C 8.675781 -1.207031 9.882812 -1.472656 11.1875 -1.859375 C 11.675781 -2.023438 12.390625 -2.3125 13.328125 -2.71875 C 14.273438 -3.125 14.851562 -3.414062 15.0625 -3.59375 Z M 2.625 -5.875 C 2.820312 -5.875 3.359375 -6.707031 4.234375 -8.375 C 5.085938 -10.039062 5.515625 -11.039062 5.515625 -11.375 C 5.515625 -11.78125 5.296875 -12.039062 4.859375 -12.15625 C 4.421875 -12.28125 4.070312 -12.179688 3.8125 -11.859375 C 3.601562 -11.609375 3.390625 -11.222656 3.171875 -10.703125 C 2.960938 -10.191406 2.789062 -9.671875 2.65625 -9.140625 C 2.550781 -8.609375 2.457031 -8.09375 2.375 -7.59375 C 2.289062 -7.101562 2.269531 -6.691406 2.3125 -6.359375 C 2.351562 -6.035156 2.457031 -5.875 2.625 -5.875 Z M 2.625 -5.875 "/></g></g></g><g fill="#b0c89f" fill-opacity="1"><g transform="translate(192.716659, 66.541042)"><g><path d="M 16.515625 -6.0625 C 16.984375 -6.46875 17.394531 -6.628906 17.75 -6.546875 C 18.101562 -6.472656 18.28125 -6.128906 18.28125 -5.515625 C 18.28125 -5.390625 18.253906 -5.25 18.203125 -5.09375 C 18.160156 -4.945312 18.101562 -4.8125 18.03125 -4.6875 C 17.957031 -4.570312 17.859375 -4.453125 17.734375 -4.328125 C 17.617188 -4.203125 17.503906 -4.085938 17.390625 -3.984375 C 17.273438 -3.890625 17.140625 -3.789062 16.984375 -3.6875 C 16.835938 -3.582031 16.710938 -3.488281 16.609375 -3.40625 C 16.503906 -3.332031 16.375 -3.242188 16.21875 -3.140625 C 16.070312 -3.035156 15.96875 -2.960938 15.90625 -2.921875 C 15.394531 -2.578125 14.859375 -2.285156 14.296875 -2.046875 C 14.253906 -2.023438 14.148438 -1.972656 13.984375 -1.890625 C 13.398438 -1.296875 12.882812 -0.890625 12.4375 -0.671875 C 12.007812 -0.503906 11.441406 -0.398438 10.734375 -0.359375 C 10.015625 -0.140625 9.515625 -0.160156 9.234375 -0.421875 C 9.148438 -0.421875 8.898438 -0.441406 8.484375 -0.484375 C 8.066406 -0.523438 7.78125 -0.550781 7.625 -0.5625 C 7.476562 -0.570312 7.25 -0.578125 6.9375 -0.578125 C 6.632812 -0.578125 6.367188 -0.546875 6.140625 -0.484375 C 5.910156 -0.421875 5.691406 -0.332031 5.484375 -0.21875 C 5.203125 -0.0507812 4.847656 0.0195312 4.421875 0 C 3.992188 -0.0195312 3.257812 -0.101562 2.21875 -0.25 C 1.46875 -0.363281 0.835938 -0.441406 0.328125 -0.484375 C 0.210938 -0.484375 0.09375 -0.484375 -0.03125 -0.484375 C -0.15625 -0.484375 -0.289062 -0.488281 -0.4375 -0.5 C -0.59375 -0.507812 -0.710938 -0.546875 -0.796875 -0.609375 C -1.035156 -0.753906 -1.328125 -1.332031 -1.671875 -2.34375 C -1.859375 -2.914062 -1.972656 -3.515625 -2.015625 -4.140625 C -2.054688 -4.390625 -2.054688 -4.59375 -2.015625 -4.75 C -1.910156 -5.28125 -1.738281 -5.609375 -1.5 -5.734375 C -1.414062 -5.773438 -1.253906 -5.816406 -1.015625 -5.859375 C -0.785156 -5.910156 -0.617188 -5.988281 -0.515625 -6.09375 C -0.316406 -6.238281 -0.15625 -6.484375 -0.03125 -6.828125 C 0.09375 -7.191406 0.164062 -7.566406 0.1875 -7.953125 C 0.207031 -8.296875 0.238281 -8.519531 0.28125 -8.625 C 0.375 -8.75 0.539062 -8.882812 0.78125 -9.03125 C 1.03125 -9.1875 1.164062 -9.273438 1.1875 -9.296875 C 1.445312 -9.515625 1.671875 -9.800781 1.859375 -10.15625 C 1.941406 -10.351562 2.113281 -10.953125 2.375 -11.953125 C 2.601562 -12.742188 2.796875 -13.554688 2.953125 -14.390625 C 3.097656 -15.203125 3.203125 -15.898438 3.265625 -16.484375 C 3.378906 -17.804688 3.523438 -18.582031 3.703125 -18.8125 C 3.878906 -19.050781 4.21875 -19.164062 4.71875 -19.15625 C 5.226562 -19.144531 5.664062 -19 6.03125 -18.71875 C 6.195312 -18.613281 6.347656 -18.4375 6.484375 -18.1875 C 6.628906 -17.945312 6.734375 -17.726562 6.796875 -17.53125 C 6.859375 -17.34375 6.9375 -17.078125 7.03125 -16.734375 C 7.132812 -16.390625 7.207031 -16.164062 7.25 -16.0625 C 7.632812 -14.90625 7.910156 -13.835938 8.078125 -12.859375 C 8.140625 -12.472656 8.210938 -11.910156 8.296875 -11.171875 C 8.390625 -10.429688 8.488281 -9.757812 8.59375 -9.15625 C 8.695312 -8.5625 8.847656 -8.007812 9.046875 -7.5 C 9.378906 -6.5625 9.492188 -5.71875 9.390625 -4.96875 C 9.328125 -4.5 9.296875 -4.0625 9.296875 -3.65625 C 9.296875 -3.25 9.425781 -2.914062 9.6875 -2.65625 C 9.957031 -2.40625 10.375 -2.300781 10.9375 -2.34375 C 11.164062 -2.363281 11.394531 -2.414062 11.625 -2.5 C 11.863281 -2.582031 12.0625 -2.664062 12.21875 -2.75 C 12.382812 -2.84375 12.585938 -2.984375 12.828125 -3.171875 C 13.078125 -3.367188 13.242188 -3.503906 13.328125 -3.578125 C 13.421875 -3.648438 13.609375 -3.816406 13.890625 -4.078125 C 14.203125 -4.367188 14.695312 -4.753906 15.375 -5.234375 C 16.050781 -5.722656 16.429688 -6 16.515625 -6.0625 Z M 4.8125 -3.875 C 5.769531 -4.09375 6.332031 -4.566406 6.5 -5.296875 C 6.675781 -6.035156 6.5 -7.226562 5.96875 -8.875 C 5.425781 -10.4375 5.09375 -11.21875 4.96875 -11.21875 C 4.820312 -11.21875 4.691406 -10.921875 4.578125 -10.328125 C 4.453125 -9.765625 4.296875 -9.359375 4.109375 -9.109375 C 3.847656 -8.742188 3.4375 -7.96875 2.875 -6.78125 C 2.320312 -5.59375 2.09375 -4.9375 2.1875 -4.8125 C 2.289062 -4.65625 2.5 -4.492188 2.8125 -4.328125 C 3.132812 -4.160156 3.484375 -4.03125 3.859375 -3.9375 C 4.234375 -3.851562 4.550781 -3.832031 4.8125 -3.875 Z M 4.8125 -3.875 "/></g></g></g><g fill="#b0c89f" fill-opacity="1"><g transform="translate(208.91541, 66.541042)"><g><path d="M 7.65625 -19.46875 C 7.0625 -19.3125 6.476562 -19.523438 5.90625 -20.109375 C 5.5 -20.515625 5.28125 -20.78125 5.25 -20.90625 C 5.226562 -21.03125 5.378906 -21.222656 5.703125 -21.484375 C 6.148438 -21.804688 6.722656 -21.96875 7.421875 -21.96875 C 8.117188 -21.96875 8.59375 -21.804688 8.84375 -21.484375 C 9.125 -21.117188 9.140625 -20.722656 8.890625 -20.296875 C 8.648438 -19.867188 8.238281 -19.59375 7.65625 -19.46875 Z M 13.375 -4.109375 C 13.519531 -3.847656 13.519531 -3.597656 13.375 -3.359375 C 13.238281 -3.128906 12.851562 -2.75 12.21875 -2.21875 C 11.207031 -1.363281 10.019531 -0.582031 8.65625 0.125 C 7.632812 0.632812 6.570312 0.84375 5.46875 0.75 C 4.363281 0.65625 3.320312 0.34375 2.34375 -0.1875 C 1.375 -0.726562 0.539062 -1.425781 -0.15625 -2.28125 C -1.164062 -3.476562 -1.46875 -5.066406 -1.0625 -7.046875 C -1.019531 -7.203125 -0.929688 -7.71875 -0.796875 -8.59375 C -0.671875 -9.46875 -0.535156 -10.238281 -0.390625 -10.90625 C -0.253906 -11.582031 -0.101562 -12.03125 0.0625 -12.25 C 0.257812 -12.476562 0.578125 -12.632812 1.015625 -12.71875 C 1.453125 -12.8125 1.90625 -12.816406 2.375 -12.734375 C 2.84375 -12.660156 3.289062 -12.523438 3.71875 -12.328125 C 4.144531 -12.128906 4.4375 -11.859375 4.59375 -11.515625 C 4.757812 -11.171875 4.753906 -10.785156 4.578125 -10.359375 C 4.085938 -9.328125 3.84375 -8.609375 3.84375 -8.203125 C 3.84375 -7.816406 3.628906 -7.335938 3.203125 -6.765625 C 2.835938 -6.335938 2.617188 -5.816406 2.546875 -5.203125 C 2.472656 -4.597656 2.578125 -4.203125 2.859375 -4.015625 C 3.085938 -3.921875 3.203125 -3.648438 3.203125 -3.203125 C 3.203125 -2.816406 3.484375 -2.378906 4.046875 -1.890625 C 4.421875 -1.523438 4.722656 -1.320312 4.953125 -1.28125 C 5.179688 -1.238281 5.59375 -1.289062 6.1875 -1.4375 C 7.0625 -1.757812 8.179688 -2.414062 9.546875 -3.40625 C 10.640625 -4.1875 11.46875 -4.628906 12.03125 -4.734375 C 12.601562 -4.847656 13.050781 -4.640625 13.375 -4.109375 Z M 13.375 -4.109375 "/></g></g></g><g fill="#b0c89f" fill-opacity="1"><g transform="translate(219.602415, 66.541042)"><g><path d="M 15.640625 -4.171875 C 16.117188 -4.578125 16.53125 -4.738281 16.875 -4.65625 C 17.226562 -4.582031 17.40625 -4.238281 17.40625 -3.625 C 17.40625 -3.445312 17.363281 -3.265625 17.28125 -3.078125 C 17.195312 -2.890625 17.097656 -2.722656 16.984375 -2.578125 C 16.878906 -2.441406 16.71875 -2.28125 16.5 -2.09375 C 16.289062 -1.914062 16.128906 -1.785156 16.015625 -1.703125 C 15.898438 -1.617188 15.71875 -1.492188 15.46875 -1.328125 C 15.21875 -1.171875 15.070312 -1.070312 15.03125 -1.03125 C 14.519531 -0.6875 13.988281 -0.40625 13.4375 -0.1875 C 13.375 -0.144531 13.128906 -0.0078125 12.703125 0.21875 C 12.273438 0.457031 11.8125 0.691406 11.3125 0.921875 C 10.820312 1.160156 10.382812 1.34375 10 1.46875 C 9.53125 1.8125 8.921875 2.1875 8.171875 2.59375 C 7.066406 3.21875 6.332031 3.945312 5.96875 4.78125 C 5.851562 4.988281 5.703125 5.265625 5.515625 5.609375 C 5.347656 5.929688 5.144531 6.265625 4.90625 6.609375 C 4.6875 6.921875 4.441406 7.269531 4.171875 7.65625 C 3.890625 8.0625 3.644531 8.425781 3.4375 8.75 C 3.21875 9.070312 2.988281 9.382812 2.75 9.6875 C 2.519531 10 2.351562 10.234375 2.25 10.390625 C 2.09375 10.640625 1.613281 11.015625 0.8125 11.515625 C 0.0078125 12.023438 -0.796875 12.492188 -1.609375 12.921875 C -3.335938 13.773438 -4.425781 13.476562 -4.875 12.03125 C -5.0625 11.40625 -5.15625 10.929688 -5.15625 10.609375 C -5.15625 10.441406 -5.117188 10.265625 -5.046875 10.078125 C -4.972656 9.898438 -4.894531 9.734375 -4.8125 9.578125 C -4.726562 9.429688 -4.601562 9.269531 -4.4375 9.09375 C -4.28125 8.925781 -4.140625 8.789062 -4.015625 8.6875 C -3.898438 8.582031 -3.75 8.441406 -3.5625 8.265625 C -3.382812 8.097656 -3.253906 7.984375 -3.171875 7.921875 C -2.359375 7.128906 -1.269531 6.367188 0.09375 5.640625 C 0.476562 5.429688 1.046875 5.078125 1.796875 4.578125 C 2.773438 3.941406 3.351562 3.582031 3.53125 3.5 C 4 3.238281 4.582031 2.570312 5.28125 1.5 C 5.988281 0.4375 6.257812 -0.179688 6.09375 -0.359375 C 5.96875 -0.460938 5.410156 -0.351562 4.421875 -0.03125 C 1.796875 0.863281 0.117188 -0.0859375 -0.609375 -2.890625 C -0.828125 -3.660156 -0.753906 -4.6875 -0.390625 -5.96875 C -0.0234375 -7.25 0.5 -8.390625 1.1875 -9.390625 C 1.59375 -9.972656 2.023438 -10.53125 2.484375 -11.0625 C 2.941406 -11.59375 3.472656 -12.117188 4.078125 -12.640625 C 4.691406 -13.171875 5.3125 -13.625 5.9375 -14 C 6.570312 -14.375 7.253906 -14.644531 7.984375 -14.8125 C 8.710938 -14.976562 9.40625 -15 10.0625 -14.875 C 10.832031 -14.75 11.410156 -14.453125 11.796875 -13.984375 C 12.179688 -13.515625 12.378906 -12.976562 12.390625 -12.375 C 12.398438 -11.78125 12.34375 -11.140625 12.21875 -10.453125 C 11.976562 -9.472656 11.691406 -8.53125 11.359375 -7.625 C 11.035156 -6.726562 10.753906 -6.144531 10.515625 -5.875 C 10.234375 -5.53125 10.09375 -5.25 10.09375 -5.03125 C 10.09375 -4.84375 9.804688 -4.191406 9.234375 -3.078125 C 8.703125 -1.898438 8.4375 -1.078125 8.4375 -0.609375 C 8.4375 -0.421875 8.445312 -0.269531 8.46875 -0.15625 C 8.53125 -0.269531 8.757812 -0.421875 9.15625 -0.609375 C 9.550781 -0.796875 10.03125 -1.007812 10.59375 -1.25 C 11.164062 -1.488281 11.546875 -1.648438 11.734375 -1.734375 C 13.378906 -2.609375 14.679688 -3.421875 15.640625 -4.171875 Z M 3.140625 6.1875 C 3.546875 5.5 3.609375 5.15625 3.328125 5.15625 C 2.921875 5.15625 2.15625 5.617188 1.03125 6.546875 C -0.101562 7.460938 -1.113281 8.425781 -2 9.4375 C -2.882812 10.457031 -3.234375 11.0625 -3.046875 11.25 C -2.597656 11.675781 -1.664062 11.3125 -0.25 10.15625 C 1.15625 9.007812 2.285156 7.6875 3.140625 6.1875 Z M 5.9375 -4.265625 C 7.15625 -6.253906 7.765625 -7.363281 7.765625 -7.59375 C 7.765625 -8.0625 7.921875 -8.535156 8.234375 -9.015625 C 8.554688 -9.503906 8.75 -10.078125 8.8125 -10.734375 C 8.90625 -11.359375 8.820312 -11.710938 8.5625 -11.796875 C 8.28125 -11.878906 7.71875 -11.660156 6.875 -11.140625 C 6.03125 -10.617188 5.46875 -10.15625 5.1875 -9.75 C 5.101562 -9.613281 4.875 -9.390625 4.5 -9.078125 C 4.125 -8.773438 3.734375 -8.410156 3.328125 -7.984375 C 2.921875 -7.554688 2.625 -7.128906 2.4375 -6.703125 C 1.726562 -5.203125 1.460938 -4.125 1.640625 -3.46875 C 1.828125 -2.675781 2.15625 -2.226562 2.625 -2.125 C 3.09375 -2.03125 3.78125 -2.273438 4.6875 -2.859375 C 5.09375 -3.085938 5.507812 -3.554688 5.9375 -4.265625 Z M 5.9375 -4.265625 "/></g></g></g><g fill="#b0c89f" fill-opacity="1"><g transform="translate(234.615503, 66.541042)"><g><path d="M -1.3125 -4.421875 C -0.96875 -5.003906 -0.304688 -6.328125 0.671875 -8.390625 C 1.648438 -10.453125 2.492188 -11.898438 3.203125 -12.734375 C 3.304688 -12.878906 3.425781 -13.015625 3.5625 -13.140625 C 3.8125 -13.421875 4.160156 -13.628906 4.609375 -13.765625 C 5.066406 -13.910156 5.472656 -13.894531 5.828125 -13.71875 C 5.960938 -13.632812 6.054688 -13.410156 6.109375 -13.046875 C 6.160156 -12.679688 6.238281 -12.488281 6.34375 -12.46875 C 6.5 -12.445312 6.863281 -12.640625 7.4375 -13.046875 C 8.414062 -13.734375 9.96875 -14.300781 12.09375 -14.75 C 12.945312 -14.957031 13.5 -15.039062 13.75 -15 C 14.007812 -14.957031 14.332031 -14.765625 14.71875 -14.421875 C 15.207031 -13.929688 15.460938 -13.332031 15.484375 -12.625 C 15.503906 -11.925781 15.269531 -11.265625 14.78125 -10.640625 C 14.414062 -10.109375 13.941406 -9.050781 13.359375 -7.46875 C 12.785156 -5.882812 12.5 -4.796875 12.5 -4.203125 C 12.5 -3.773438 12.644531 -3.304688 12.9375 -2.796875 C 13.226562 -2.296875 13.582031 -1.878906 14 -1.546875 C 14.414062 -1.222656 14.796875 -1.0625 15.140625 -1.0625 C 15.648438 -1.0625 16.726562 -1.488281 18.375 -2.34375 C 20.019531 -3.195312 21.3125 -4.007812 22.25 -4.78125 C 22.957031 -5.3125 23.457031 -5.5625 23.75 -5.53125 C 24.050781 -5.5 24.203125 -5.179688 24.203125 -4.578125 C 24.203125 -4.328125 24.085938 -4.035156 23.859375 -3.703125 C 23.640625 -3.367188 23.347656 -3.019531 22.984375 -2.65625 C 22.597656 -2.3125 22.148438 -1.960938 21.640625 -1.609375 C 21.128906 -1.265625 20.609375 -0.984375 20.078125 -0.765625 C 18.660156 -0.109375 17.644531 0.367188 17.03125 0.671875 C 15.957031 1.160156 15.007812 1.296875 14.1875 1.078125 C 13.363281 0.867188 12.394531 0.210938 11.28125 -0.890625 C 10.382812 -1.796875 9.851562 -2.410156 9.6875 -2.734375 C 9.53125 -3.066406 9.453125 -3.707031 9.453125 -4.65625 C 9.453125 -6.019531 9.703125 -7.4375 10.203125 -8.90625 C 10.628906 -10.382812 10.796875 -11.1875 10.703125 -11.3125 C 10.578125 -11.445312 9.710938 -10.757812 8.109375 -9.25 C 6.503906 -7.738281 4.929688 -6.144531 3.390625 -4.46875 C 1.859375 -2.789062 1.09375 -1.828125 1.09375 -1.578125 C 1.09375 -1.359375 0.957031 -1.117188 0.6875 -0.859375 C 0.414062 -0.609375 0.09375 -0.398438 -0.28125 -0.234375 C -0.664062 -0.078125 -1.007812 -0.03125 -1.3125 -0.09375 C -1.800781 -0.15625 -2.144531 -0.539062 -2.34375 -1.25 C -2.488281 -1.71875 -2.507812 -2.132812 -2.40625 -2.5 C -2.300781 -2.863281 -1.9375 -3.503906 -1.3125 -4.421875 Z M -1.3125 -4.421875 "/></g></g></g></g></g></svg>